<svg xmlns="http://www.w3.org/2000/svg" viewBox="0 0 301.24 245.52">
    <title>benz</title>
    
    <style>
        g.benz {
            cursor:pointer;
        }
        
        path.crest:hover {
            fill: yellow;
        }
        
        circle.lights:hover {
            fill: yellow;
            
        }
        
        path#windscreen:hover {
            fill: red;
            opacity: 0.8
        }
        
    </style>
    
    <g class="benz" id="ae6e48b8-976a-49d3-8fc2-6cbdf55e251d" data-name="Car">
        <g id="eeba5c44-6be4-4761-b8c1-7ff47c73aa52" data-name="tryes">
            <path d="M276.25,178.21s10.09,39-5.18,66.56h-38.2s-13.64-15.55-6.54-60l2.18-6.55Z" fill="#611f45" />
            <path d="M275.73,178.35a108.72,108.72,0,0,1,2.72,17.1c1.08,11.91.7,24.17-2.51,35.75a63.23,63.23,0,0,1-3.48,9.63,24.28,24.28,0,0,0-1.15,2.35s-.39,1.13-.28,1c-.12.09-.49,0-.63,0-2.33.53-5.42,0-7.79,0H238.56c-1.62,0-4.09.48-5.66,0,.53.16.3.15.09-.18s-.6-.86-.88-1.31c-3-4.77-4.58-10.38-5.66-15.84-2.31-11.71-1.94-23.9-.49-35.69.53-4.34,1.23-8.78,3.06-12.81-.37.82-.71.21-.23.35a3.87,3.87,0,0,0,.9,0h46.56a.54.54,0,0,0,0-1.08H228.51a.55.55,0,0,0-.52.4,60.39,60.39,0,0,0-3,11.79,141.9,141.9,0,0,0-1.27,21.7c.22,8.8,1.36,17.86,4.64,26.09a35.44,35.44,0,0,0,2.8,5.7c.32.5.79,1.54,1.34,1.85,1.13.64,3.72.11,4.95.11h33.57a.54.54,0,0,0,.46-.26c10.08-18.48,10.08-41.35,6.38-61.58-.33-1.81-.68-3.62-1.14-5.4A.54.54,0,0,0,275.73,178.35Z" fill="#af8da1" />
            <path d="M29.52,178.21s-10.09,39,5.19,66.56H72.9s13.64-15.55,6.54-60l-2.18-6.55Z" fill="#611f45" />
            <path d="M29,178.07a110.79,110.79,0,0,0-1.56,47.69,66.79,66.79,0,0,0,6.8,19.29.55.55,0,0,0,.47.26H70.25a10.21,10.21,0,0,0,2.47,0c1.89-.52,3.19-4.32,3.9-5.9,3.22-7.21,4.6-15.17,5.15-23a128.1,128.1,0,0,0-.62-23,52.13,52.13,0,0,0-1.5-9.73c-.57-1.89-1.24-3.75-1.87-5.61a.55.55,0,0,0-.52-.4H29.52a.54.54,0,0,0,0,1.08H76.17a3.22,3.22,0,0,0,.76,0c.55-.13.06.18-.18-.35.68,1.51,1.08,3.23,1.61,4.8,2,5.87,2.1,12.73,2.41,18.88a113.92,113.92,0,0,1-.37,17.62c-.74,7.09-2.25,14.38-5.48,20.79-.64,1.25-1.4,2.38-2.14,3.56-.21.33-.44.34.1.18a6.91,6.91,0,0,1-1.76,0H38.36a13,13,0,0,1-3.06,0c-.13,0-.42.08-.54,0a2.82,2.82,0,0,0-.12-.72c-.45-.89-.91-1.77-1.32-2.68-8.6-18.62-8-41.61-3.56-61.29.09-.39.18-.79.28-1.19A.54.54,0,0,0,29,178.07Z" fill="#af8da1" />
            <path d="M33.61,186.89s-3.51,28.79,5.61,53.2" fill="none" stroke="#fff" stroke-miterlimit="10" stroke-width="1.62" />
            <path d="M39.22,192.68s-.87,19,3.69,32.66" fill="none" stroke="#fff" stroke-miterlimit="10" stroke-width="1.62" />
            <path d="M270.52,186.67s3.51,28.8-5.62,53.2" fill="none" stroke="#fff" stroke-miterlimit="10" stroke-width="1.62" />
            <path d="M264.9,192.47s.88,19-3.69,32.65" fill="none" stroke="#fff" stroke-miterlimit="10" stroke-width="1.62" />
        </g>
        <g id="fa63a753-bd60-4202-8ba9-fd0993125fab" data-name="one">
            <path d="M286.58,126.47s15.16-3.55,12.91,26.92c1.28,30.71,3.59,54.57-7.25,52.21s-20.33-27.17-20.33-27.17,8.79-10.15,9.5-26.69S279.71,127.41,286.58,126.47Z" fill="#fff" stroke="#611f45" stroke-miterlimit="10" stroke-width="1.24" />
            <path d="M14.65,126.47s-15.16-3.55-12.9,26.92C.46,184.1-1.84,208,9,205.6s20.33-27.17,20.33-27.17-8.79-10.15-9.5-26.69S21.52,127.41,14.65,126.47Z" fill="#fff" stroke="#611f45" stroke-miterlimit="10" stroke-width="1.24" />
            <path d="M21.3,105.23l15.36-11,30.82,9.6S27,102.78,21.3,105.23Z" fill="#fff" stroke="#611f45" stroke-miterlimit="10" stroke-width="1.24" />
            <path d="M280.49,104.62l-15.37-11-30.81,9.6S274.82,102.17,280.49,104.62Z" fill="#fff" stroke="#611f45" stroke-miterlimit="10" stroke-width="1.24" />
            <polygon points="36.66 94.2 37.14 85.21 73.61 100.28 73.61 103.8 67.48 103.8 36.66 94.2" fill="#fff" stroke="#611f45" stroke-miterlimit="10" stroke-width="1.24" />
            <polygon points="264.78 94.2 264.3 85.21 227.82 100.28 227.82 103.8 233.96 103.8 264.78 94.2" fill="#fff" stroke="#611f45" stroke-miterlimit="10" stroke-width="1.24" />
            <polygon points="54.18 80.11 246.3 80.11 264.3 85.21 227.82 100.3 73.61 100.3 37.14 85.21 54.18 80.11" fill="#fff" stroke="#611f45" stroke-miterlimit="10" stroke-width="1.24" />
            <path d="M264.61,85.21s1.14.2.9-4.34-12.69-75-12.69-75S251.54.71,246.3.71H59.15S49.77-.53,48.88,6c-.78,5.82-10.35,63.89-12.46,76.7a1.6,1.6,0,0,0,2,1.8l15.73-4.41H246.3Z" fill="#fff" stroke="#611f45" stroke-miterlimit="10" stroke-width="1.24" />
            <path d="M25.16,59.72S9,57.85,8.93,65.64s0,13.94,0,13.94-.22,3.07,4.38,2.85,23.11.29,23.11.29L39.9,61.57S40.08,58.4,25.16,59.72Z" fill="#fff" stroke="#611f45" stroke-miterlimit="10" stroke-width="1.24" />
            <path d="M276.92,58.79s16-1.28,16.15,6.51,0,13.93,0,13.93.22,3.08-4.38,2.86-23.11.28-23.11.28L262.1,61.23S262.1,59.05,276.92,58.79Z" fill="#fff" stroke="#611f45" stroke-miterlimit="10" stroke-width="1.24" />
            <path d="M151.39,147.08s116.6.21,127.22,0S284,153,282.06,163s-3.88,9.43-3.88,9.43h-254s-2,.58-3.89-9.43-7.16-16.1,3.46-15.9,127.21,0,127.21,0Z" fill="#fff" stroke="#611f45" stroke-miterlimit="10" stroke-width="0.97" />
        </g>
        <g id="fc37bd4e-1843-457e-9e48-743198e5e666" data-name="windshield">
            <path id="windscreen" d="M147.2,65.19H57.43s-6.1-.15-5.38-3.46,8.14-47,8.14-47,.44-4.82,6.54-5,80.47,0,80.47,0h.94s74.37-.15,80.47,0,6.54,5,6.54,5,7.41,43.71,8.14,47-5.38,3.46-5.38,3.46H147.2Z" fill="#529975" stroke="#611f45" stroke-miterlimit="10" stroke-width="2.01" />
        </g>
        <g id="e9ab0b6c-ec9f-44c3-99fb-93bbce25fd52" data-name="lower hood">
            <path d="M152.13,162.66s129.53.29,141.33,0,6,8.63,3.84,23.3S293,199.8,293,199.8H10.78s-2.21.85-4.32-13.83-8-23.59,3.84-23.3,141.33,0,141.33,0Z" fill="#fff" stroke="#611f45" stroke-miterlimit="10" stroke-width="1.24" />
            <path d="M49.78,171H27.14s-2.33,0-2.33,3.62v15s.07,2.86,2.53,2.86H65.49a2.6,2.6,0,0,0,2.59-2.59V173.17s.4-2.15-3.72-2.15Z" fill="#e5dbe1" stroke="#611f45" stroke-miterlimit="10" stroke-width="1.86" />
            <path d="M262.22,170.52H239.58s-2.33,0-2.33,3.62v15s.07,2.86,2.53,2.86h38.15a2.6,2.6,0,0,0,2.59-2.59V172.67s.4-2.15-3.72-2.15Z" fill="#e5dbe1" stroke="#611f45" stroke-miterlimit="10" stroke-width="1.86" />
            <path d="M161,171H99.41s-6.32,0-6.32,3.62v15s.18,2.86,6.86,2.86H203.66s7-.07,7-2.59V173.17s1.09-2.15-10.12-2.15Z" fill="none" stroke="#611f45" stroke-miterlimit="10" stroke-width="1.24" />
            <polyline points="27.14 171.02 48.54 190.85 68.08 174.96 61.41 171.02 34.96 190.85 24.81 180.94 37.83 171.02 61.26 190.85 68.09 184.03 52.49 171.02 48.53 171.02 25.08 190.85" fill="#e5dbe1" stroke="#611f45" stroke-miterlimit="10" stroke-width="1.86" />
            <polyline points="239.58 171.02 260.98 190.85 280.52 174.96 273.85 171.02 247.4 190.85 237.25 180.94 250.27 171.02 273.69 190.85 280.53 184.03 264.93 171.02 260.97 171.02 237.52 190.85" fill="none" stroke="#611f45" stroke-miterlimit="10" stroke-width="1.22" />
        </g>
        <g id="bf385274-3a4e-42f2-851d-627cf574d585" data-name="head">
            <rect x="26.45" y="155.43" width="249.67" height="7.94" rx="1.01" fill="#611f45" stroke="#af8da1" stroke-miterlimit="10" stroke-width="1.24" />
            <path d="M172.81,101.54H29.65S15,101.6,15,110.82v38.42s.42,7.35,16,7.35h241.2s16.39-.17,16.39-6.66V107.06s2.52-5.52-23.54-5.52Z" fill="#e5dbe1" stroke="#611f45" stroke-miterlimit="10" stroke-width="1.86" />
            <rect x="84.17" y="109.87" width="134.16" height="38.4" fill="#611f45" stroke="#af8da1" stroke-miterlimit="10" stroke-width="1.24" />
            <path d="M70.58,102.28S84.17,96,84.17,103.84V208.6H70.58Z" fill="#e0cad8" stroke="#611f45" stroke-miterlimit="10" stroke-width="1.24" />
            <path d="M231.92,102.28s-13.59-6.24-13.59,1.56V208.6h13.59Z" fill="#e0cad8" stroke="#611f45" stroke-miterlimit="10" stroke-width="1.24" />
            <rect x="86.21" y="116.21" width="131.1" height="5.01" rx="1.01" fill="#e0cad8" stroke="#611f45" stroke-miterlimit="10" stroke-width="1.24" />
            <rect x="86.21" y="128.02" width="131.1" height="5.01" rx="1.01" fill="#e0cad8" stroke="#611f45" stroke-miterlimit="10" stroke-width="1.24" />
            <rect x="85.44" y="139.82" width="131.1" height="5.01" rx="1.01" fill="#e0cad8" stroke="#611f45" stroke-miterlimit="10" stroke-width="1.24" />
            <path d="M22.72,109.87H70.58a0,0,0,0,1,0,0v38.4a0,0,0,0,1,0,0H22.92a1.33,1.33,0,0,1-1.33-1.33V111A1.13,1.13,0,0,1,22.72,109.87Z" fill="none" stroke="#611f45" stroke-miterlimit="10" stroke-width="1.24" />
            <path d="M233.26,109.86h47.66a0,0,0,0,1,0,0v38.4a0,0,0,0,1,0,0H233.06a1.13,1.13,0,0,1-1.13-1.13V111.2a1.33,1.33,0,0,1,1.33-1.33Z" transform="translate(512.84 258.12) rotate(-180)" fill="none" stroke="#611f45" stroke-miterlimit="10" stroke-width="1.24" />
            <path class="crest" d="M154.84,110.25c-.56,0-1.13-.08-1.7-.08a20.39,20.39,0,0,0-20.36,20.35,20.23,20.23,0,0,0,3.88,11.92,20.67,20.67,0,0,0,2.71,3.05,20.25,20.25,0,0,0,11.41,5.24,20.48,20.48,0,0,0,2.36.15c.57,0,1.14,0,1.7-.09a20.26,20.26,0,0,0,12.31-5.52,21.08,21.08,0,0,0,2.66-3.08,20.33,20.33,0,0,0-15-31.94Zm-16.68,20.56a14.64,14.64,0,0,1,12.62-14.49v11.25l-.65.68-9.75,10.28A14.51,14.51,0,0,1,138.16,130.81Zm12.62,14.5a14.62,14.62,0,0,1-7.79-3.64l7.79-8.21Zm4.06,0V133l8.27,8.27A14.53,14.53,0,0,1,154.84,145.31ZM165.59,138l-9.79-9.79-1-1v-10.9A14.61,14.61,0,0,1,165.59,138Z" fill="#fff" stroke="#611f45" stroke-miterlimit="10" stroke-width="1.24" />
        </g>
        <g id="a8a7ff4c-5434-4cb0-9810-af870d9f0f50" data-name="Lights">
            <circle cx="49.75" cy="126.97" r="17.84" fill="#fff" stroke="#611f45" stroke-miterlimit="10" stroke-width="1.24" />
            <circle cx="256.52" cy="127.46" r="17.84" fill="#fff" stroke="#611f45" stroke-miterlimit="10" stroke-width="1.24" />
            <circle class="lights" cx="49.74" cy="127.46" r="14.61" fill="#e0cad8" stroke="#611f45" stroke-miterlimit="10" stroke-width="1.24" />
            <circle class="lights" cx="256.52" cy="127" r="14.61" fill="#e0cad8" stroke="#611f45" stroke-miterlimit="10" stroke-width="1.24" />
            <path d="M44.94,118.07a165.36,165.36,0,0,0,1.82,21.43.59.59,0,0,0,.43.43,10.9,10.9,0,0,0,12.06-6.69c2.37-5.5.68-11.52-2.35-16.38l-.85.85a9.43,9.43,0,0,1,3.39,14.42l1.13.48a17.15,17.15,0,0,0,.74-11.15l-1.2.33c1.33,3.22,2.61,6.62,1.27,10.06l1.19.33c1-2.75,1.75-5.49.69-8.32-.23-.59-1.32-.58-1.22.17a12.07,12.07,0,0,1-3.7,10.53.62.62,0,0,0,.75,1,10.67,10.67,0,0,0,3.44-3L61.39,132a12.53,12.53,0,0,1-14.56,7.74c-.77-.17-1.11,1-.33,1.2,1.15.27,3.37.87,4.4-.06,1.22-1.1.25-4.08.14-5.44l-1.6-18.36H48.2l1.58,15.57c.12,1.23-.17,4,.78,5s2.81.49,3.82.42a.64.64,0,0,0,.62-.62,93.9,93.9,0,0,0-.73-18.66c-.09-.64-1-.53-1.2,0-1,3.37,3.7,2.51,5.36,3l.17-1.22-18.1,0a.62.62,0,0,0,0,1.24l11.59.57,5.8.29c.78,0,2-.14,2.59.51a8.78,8.78,0,0,1,.69,2.52,14.28,14.28,0,0,1,.47,3.3l0,.87c.06,1.1-.4,1.5-1.37,1.2-1.61.5-4.21,0-5.91.06l-11.81.13a.62.62,0,0,0,0,1.24l3.9.13a.62.62,0,0,0,.59-.79l-1-3.3c-.2-.67-.35-2-.92-2.47-1-.91-3.4-.58-4.61-.65v1.24l15.94.57c.8,0,.8-1.21,0-1.24L40.6,125.4c-.8,0-.79,1.19,0,1.24,1.76.1,3.28-.12,4.21,1.8a25.94,25.94,0,0,1,1.09,3.71l.6-.78-3.9-.13v1.24l9.84-.11c2.86,0,6.3.46,9.1-.11,3.29-.68.53-8.3-.16-10.26a.63.63,0,0,0-.59-.45l-20.29-1v1.24l18.1,0a.62.62,0,0,0,.16-1.21c-.78-.25-4.86-.27-4.49-1.51h-1.2a91.34,91.34,0,0,1,.69,18.33l.62-.62c-1.35.09-2.28.39-3.07-1.23a8.27,8.27,0,0,1-.24-2.44l-.54-5.35-1.09-10.7c-.08-.78-1.3-.8-1.24,0l1.09,12.57.51,5.79a13,13,0,0,1,.25,2.9c.36.93,0,1.5-1.08,1.71a7.74,7.74,0,0,1-2.14-.31L46.5,141a13.8,13.8,0,0,0,16.09-8.61c.27-.71-.75-1-1.14-.48a8.81,8.81,0,0,1-3,2.6l.75,1A13.19,13.19,0,0,0,63.28,124l-1.22.16c1,2.63.2,5.13-.68,7.66-.27.76.91,1.06,1.19.33,1.44-3.66.16-7.27-1.26-10.72-.3-.72-1.41-.47-1.2.33a16.09,16.09,0,0,1-.73,10.49c-.29.7.75,1,1.13.48a10.64,10.64,0,0,0-3.84-16.12c-.52-.26-1.19.29-.84.85,4,6.46,5.47,17.81-3.62,21a7.37,7.37,0,0,1-2.69.5c-1.36-.12-1.47-.48-1.85-1.69a35.31,35.31,0,0,1-.78-6.58q-.6-6.28-.71-12.6a.62.62,0,0,0-1.24,0Z" fill="#611f45" />
            <path d="M259.26,118.07q-.12,6.08-.67,12.11c-.21,2.17-.16,5-.83,7.07-.36,1.12-.44,1.57-1.85,1.69a7.33,7.33,0,0,1-2.69-.5c-9.07-3.17-7.66-14.47-3.61-21,.35-.56-.32-1.11-.85-.85a10.64,10.64,0,0,0-3.84,16.12c.38.5,1.43.23,1.14-.48a16,16,0,0,1-.73-10.49.62.62,0,0,0-1.2-.33c-1.43,3.45-2.7,7.06-1.27,10.72.29.73,1.46.43,1.2-.33-.89-2.53-1.67-5-.69-7.66l-1.22-.16a13.22,13.22,0,0,0,4.07,11.41l.75-1a9,9,0,0,1-3-2.6c-.38-.51-1.41-.24-1.13.48A13.78,13.78,0,0,0,258.93,141l-.33-1.2c-1.38.33-2.85.72-3.25-.91a10.24,10.24,0,0,1,.25-2.9l.54-6.28,1.09-12.57c.07-.8-1.16-.78-1.24,0l-1.08,10.7-.49,4.87a12.81,12.81,0,0,1-.3,2.92c-.61,1.37-1.84,1.31-3.07,1.23l.62.62a92.84,92.84,0,0,1,.69-18.33h-1.19c.3,1-3.67,1.25-4.5,1.51a.62.62,0,0,0,.17,1.21l18.1,0v-1.24l-20.29,1a.64.64,0,0,0-.6.45c-.69,2-3.45,9.58-.16,10.26,2.8.57,6.25.08,9.1.11l9.85.11v-1.24l-3.9.13.6.78a20.87,20.87,0,0,1,1.09-3.71c.94-1.79,2.43-1.7,4.21-1.8.79,0,.8-1.27,0-1.24L248.9,126c-.8,0-.8,1.27,0,1.24l15.94-.57V125.4c-1.24.07-3.62-.26-4.62.65a5,5,0,0,0-.79,2.06l-1.09,3.71a.63.63,0,0,0,.6.79l3.9-.13a.62.62,0,0,0,0-1.24L251,131.11c-1.87,0-4.09.32-5.91-.06-.77.3-1.16.1-1.18-.61a2,2,0,0,1-.15-1.46,17.63,17.63,0,0,1,.48-3.3c.14-.65.25-2.07.69-2.52.66-.67,1.74-.47,2.59-.51l5.8-.29,11.59-.57a.62.62,0,0,0,0-1.24l-18.1,0,.16,1.22c1.66-.52,6.36.34,5.36-3-.15-.53-1.1-.64-1.19,0a93.9,93.9,0,0,0-.74,18.66.64.64,0,0,0,.62.62c1,.07,3,.45,3.83-.42s.65-3.74.78-5l1.57-15.57H256l-1.59,18.36c-.12,1.35-1.06,4.26.08,5.39s3.31.38,4.45.11c.78-.19.45-1.37-.33-1.2A12.53,12.53,0,0,1,244,132l-1.13.48a10.67,10.67,0,0,0,3.44,3,.63.63,0,0,0,.75-1A12.08,12.08,0,0,1,243.39,124c.1-.74-1-.77-1.21-.17-1.06,2.83-.28,5.57.68,8.32l1.2-.33c-1.35-3.44-.07-6.84,1.27-10.06l-1.2-.33a17.08,17.08,0,0,0,.73,11.15l1.13-.48a9.43,9.43,0,0,1,3.4-14.42l-.85-.85c-3,4.87-4.71,10.87-2.35,16.38a10.88,10.88,0,0,0,12.05,6.69.57.57,0,0,0,.43-.43,167.15,167.15,0,0,0,1.83-21.43.62.62,0,0,0-1.24,0Z" fill="#611f45" />
        </g>
    </g>
</svg>
