<svg id="ea5af706-2229-4d9f-84f4-1817b9066c15" data-name="Burna" xmlns="http://www.w3.org/2000/svg" viewBox="0 0 158.6 300.68">
    <title>burna</title>
    <style>
        g.all:hover {
            cursor: pointer;
        }
        
        path.hair:hover {
            fill: #f7931e;
            stroke: #1a1a1a;
        }
        
        path.hair:active {
            fill: #f7931e;
            stroke: #1a1a1a;
        }
        
        path.teeth:hover {
            fill: white;
        }
        
        path#frames:hover {
            fill: green;
        }

<!--
            g.all path#nane:hover {
                fill: yellow;
            }
-->

<!--
            path#nane-shadow:hover {
                fill: #f7931e;
            }
-->
        
<!--
            g.pattern:hover polygon {
                fill: white;
        }
-->
        
<!--
        path.top:hover {
            fill:black;
        }
-->

    </style>
    <g class="all">
        <g id="f5359977-51f7-4bf5-a21a-6bccde487b2c" data-name="Legs">
            <g id="b9134b74-3d44-4a09-aa07-095811a5c344" data-name="Shoes">
                <path d="M131.68,285.52s4-.54,2.65,8.76-30,7-34.38-5.12c-4.28-11.9-4.59-11-4.59-11a2.72,2.72,0,0,1-3.4.57c-2.08-1.07-8.5-7.43-7.18-10.52s4.72-7.05,5.85-5.47c0,0,11.71-14.36,14.74-12.72l2.1.17s.72,8.48,11.43,12.75l-.06,11.44S130.77,273.79,131.68,285.52Z" fill="#611f45" stroke="#611f45" stroke-miterlimit="10" stroke-width="1.35" />
                <path d="M131.74,288.32c-1.35,2.83-4.93,4.36-7.78,4.95a31.81,31.81,0,0,1-10.35,0c-2.35-.29-4.81-.79-6.65-2.38-3.8-3.26-5.23-9.37-7.2-13.76-2.22-5-5.65-8.77-9.39-12.68-.6-.63-1.55.33-1,1a56.78,56.78,0,0,1,6.89,8.05,46.24,46.24,0,0,1,3.56,7.32c1.86,4.36,3.57,10.16,8.17,12.43a19.42,19.42,0,0,0,6.77,1.54,29.12,29.12,0,0,0,10.69-.45c2.78-.79,6.09-2.53,7.41-5.29.37-.78-.79-1.47-1.17-.68Z" fill="#804f6c" />
                <path d="M106.79,287.83s13.48,7,22.09-1.47c0,0-.35-9.84-11.89-9.84,0,0-5.75-.1-8.56,3.2" fill="none" stroke="#804f6c" stroke-miterlimit="10" stroke-width="1.34" />
                <path d="M116.52,270.42s-6.21,1.41-9.73,5.39" fill="none" stroke="#804f6c" stroke-miterlimit="10" stroke-width="1.34" />
                <path d="M106.49,269.71a17.3,17.3,0,0,1,10.18,5.22" fill="none" stroke="#804f6c" stroke-miterlimit="10" stroke-width="1.35" />
                <path d="M116.67,264.92s-2.82-.45-10.18,3.38" fill="none" stroke="#804f6c" stroke-miterlimit="10" stroke-width="1.35" />
                <path d="M108,263.36s6.06,2.41,8.36,5.94" fill="none" stroke="#804f6c" stroke-miterlimit="10" stroke-width="1.35" />
                <path d="M26.72,285.35s-4-.53-2.66,8.77,30,7,34.38-5.12c4.28-11.9,4.6-11,4.6-11a2.72,2.72,0,0,0,3.4.57c2.08-1.07,8.5-7.43,7.17-10.52s-4.72-7-5.85-5.47c0,0-11.71-14.36-14.73-12.72l-2.11.16s-.71,8.49-11.42,12.76l.06,11.44S27.63,273.63,26.72,285.35Z" fill="#611f45" stroke="#611f45" stroke-miterlimit="10" stroke-width="1.35" />
                <path d="M25.48,288.84c1.33,2.76,4.63,4.5,7.42,5.28,3.47,1,7.13.8,10.69.46A19.38,19.38,0,0,0,50.35,293c4.6-2.27,6.32-8.06,8.17-12.42a47.59,47.59,0,0,1,3.56-7.32A56.78,56.78,0,0,1,69,265.24c.6-.63-.35-1.59-1-1-3.66,3.83-7.08,7.58-9.28,12.43-2,4.46-3.45,10.7-7.3,14a11.82,11.82,0,0,1-6.2,2.32,33,33,0,0,1-10.49.13c-3-.56-6.7-2.08-8.1-5-.37-.79-1.54-.1-1.17.68Z" fill="#804f6c" />
                <path d="M51.61,287.67s-13.48,7-22.1-1.47c0,0,.35-9.84,11.9-9.84,0,0,5.74-.1,8.55,3.2" fill="none" stroke="#804f6c" stroke-miterlimit="10" stroke-width="1.34" />
                <path d="M41.72,270.14s6.24,1.41,9.77,5.41" fill="none" stroke="#804f6c" stroke-miterlimit="10" stroke-width="1.35" />
                <path d="M51.9,269.55a17.23,17.23,0,0,0-10.18,5.22" fill="none" stroke="#804f6c" stroke-miterlimit="10" stroke-width="1.35" />
                <path d="M41.72,264.76s2.83-.45,10.18,3.38" fill="none" stroke="#804f6c" stroke-miterlimit="10" stroke-width="1.35" />
                <path d="M50.43,263.19s-6.06,2.42-8.36,5.95" fill="none" stroke="#804f6c" stroke-miterlimit="10" stroke-width="1.35" />
                <path d="M48.79,257.78s3.58-4.24,3.94-5.77c0,0,4.47.65,12.82,12" fill="none" stroke="#804f6c" stroke-miterlimit="10" stroke-width="1.35" />
            </g>
            <g class="legs" id="e1616d39-2d0d-4a0f-8337-1d3cf0bad68c" data-name="Leg">
                <path id="nane" d="M37.65,199.17s-49.46,2.48-34,28.51S35.59,264,35.59,264s13.63-1.29,16.5-14.79L27.46,218.1l14.4,17.19S80.07,240,81.4,231.57c0,0,1.27,5.47,14.39,4.83A158.62,158.62,0,0,0,117.52,234L130,218.1s-21.65,27-21.48,34.11c0,0,3.22,9.77,13.55,12.35,0,0,35.85-35.72,35.43-44.52s-7.14-14.73-16.5-17.89-16.06-1.39-16.06-1.39S93.7,217,82.33,215s-24.18-6.88-43-15.84" fill="lime" stroke="#611f45" stroke-miterlimit="10" stroke-width="1.36" />
                <path id="nane-shadow" d="M38,229.65s31.18,5.15,36.87,1.63a62.2,62.2,0,0,0,7.5-6.05s-3.14,5.55,36.76,4.63l.88.07-2.74,3.51s-32.61,6.5-35.47-2.83c-5,1.06,8.5,7.33-40.19,4.09Z" fill="#39b54a" />
            </g>
        </g>
        <g id="e004f4e7-294e-443b-a24a-5ce4b2c2cacf" data-name="Body">
            <g id="eef71772-e52d-4a76-b76f-833ac0ba9dbc" data-name="Torso">
                <circle cx="79.67" cy="176.23" r="38.59" fill="#824946" stroke="#611f45" stroke-miterlimit="10" stroke-width="1.82" />
                <path d="M83.9,179s-1.11,5.31,17.34,2.37S113.31,169,113.31,169" fill="none" stroke="#611f45" stroke-miterlimit="10" stroke-width="2" />
                <path d="M76.28,179.44s1.11,5.31-17.34,2.37-12.08-12.37-12.08-12.37" fill="none" stroke="#611f45" stroke-miterlimit="10" stroke-width="2" />
                <line x1="81.35" y1="188.21" x2="81.35" y2="210.92" fill="none" stroke="#611f45" stroke-miterlimit="10" stroke-width="2" />
                <path d="M96.24,191.45s.63,3.5-6.28,3.67-19.68,0-19.68,0-5-.42-6.91-4.17" fill="none" stroke="#611f45" stroke-miterlimit="10" stroke-width="2" />
                <path d="M96.62,198.62s.62,3.5-6.29,3.67-19.68,0-19.68,0-5-.42-6.9-4.17" fill="none" stroke="#611f45" stroke-miterlimit="10" stroke-width="2" />
            </g>
            <g id="b355e9cf-ba2b-4bae-8e7b-0a4b34279ff2" data-name="Right-hand">
                <path d="M146,156.11S158.08,178,158.08,185.4c0,6.76-31.4,34.45-36.94,39.27a2.17,2.17,0,0,0-.71,1.81,51.84,51.84,0,0,1-2.56,20.68,2,2,0,0,0-.12.68V265s-1.5,6.3-5.3,3.57c0,0-.5-12.89-.56-21.53,0,0,1.73,32.52-3.93,29.66s-3.26-8.3-2.19-26.92c0,0,.56,26.25-4.83,25.41s-4-10-.89-26.36c0,0-3.93,17.27-3.82,24.28,0,0-3.81,4.32-5.55-3.64s3.93-22.94,3.93-22.94-2.07,11-4.91,9.53,1.57-14,1.57-14,15.81-26.53,28.47-39,14.83-20.59,18.79-22.54c0,0-7-1.44-10.29-12.65S146,156.11,146,156.11Z" fill="#9d5650" stroke="#611f45" stroke-miterlimit="10" stroke-width="1.05" />
            </g>
            <g class="shirt" id="a90aecb3-5047-44e8-98d4-f7781080b2f1" data-name="Shirt">
                <path class="top" d="M113.69,159.58s7.52,15.61,14.13,14.61,20.55-14.92,20.88-17.72S117,117.86,117,117.86L90.33,162.14s-.11,8.77,2.74,12.73,8.78,11.3,8.76,15.14.13,8.71-4.53,12.21S90.38,217,91.4,218.27s2.77-.56,5-1.92,16.25-8.48,22.58-9.49,14-6.67,13.57-11.87-6.26-20.18-6.26-20.18S119.7,172.33,113.69,159.58Z" fill="#fff" stroke="#611f45" stroke-miterlimit="10" stroke-width="1.55" />
                <path class="top" d="M48.08,159.92s-7.52,15.61-14.14,14.6-20.55-14.91-20.88-17.71,31.66-38.62,31.66-38.62l26.71,44.29s.12,8.77-2.74,12.72-8.78,11.31-8.75,15.15-.14,8.7,4.52,12.21,6.92,14.81,5.91,16.05-2.77-.57-5-1.92-16.25-8.48-22.58-9.5-14-6.67-13.56-11.87,6.26-20.18,6.26-20.18S42.07,172.67,48.08,159.92Z" fill="#fff" stroke="#611f45" stroke-miterlimit="10" stroke-width="1.55" />
                <g class="pattern">
                <polygon points="48.27 191.37 50.67 188.29 53.57 194.17 48.27 191.37" fill="#4e7733" />
                <polygon points="53.65 191.37 56.04 188.29 58.95 194.17 53.65 191.37" fill="#4e7733" />
                <polygon points="40.28 187.31 43.27 183.48 46.88 190.79 40.28 187.31" fill="#4e7733" />
                <polygon points="37.55 193.69 40.53 189.85 44.15 197.16 37.55 193.69" fill="#4e7733" />
                <polygon points="29.63 190.47 32.08 186.27 36.63 193.04 29.63 190.47" fill="#4e7733" />
                <polygon points="31.75 199.13 34.19 194.94 38.74 201.71 31.75 199.13" fill="#4e7733" />
                <polygon points="39.88 203.03 42.33 198.83 46.88 205.6 39.88 203.03" fill="#4e7733" />
                <polygon points="47.77 206.74 50.22 202.54 54.76 209.31 47.77 206.74" fill="#4e7733" />
                <polygon points="55.11 209.67 57.56 205.48 62.1 212.25 55.11 209.67" fill="#4e7733" />
                <polygon points="67.34 211.34 67.41 207.51 62.43 212.17 67.34 211.34" fill="#4e7733" />
                <polygon points="32.88 183.39 35.86 179.56 39.47 186.87 32.88 183.39" fill="#4e7733" />
                <polygon points="45.8 175.73 48.78 171.9 52.39 179.21 45.8 175.73" fill="#4e7733" />
                <polygon points="39.6 179.74 42.59 175.91 46.19 183.22 39.6 179.74" fill="#4e7733" />
                <polygon points="45.44 197.61 48.42 193.78 52.03 201.08 45.44 197.61" fill="#4e7733" />
                <polygon points="54.44 201.88 57.42 198.05 61.03 205.36 54.44 201.88" fill="#4e7733" />
                <polygon points="48.27 184.07 50.67 180.99 53.57 186.87 48.27 184.07" fill="#4e7733" />
                <polygon points="48.74 170.03 51.14 166.94 54.04 172.83 48.74 170.03" fill="#4e7733" />
                <polygon points="53.77 168.62 56.75 164.78 60.36 172.09 53.77 168.62" fill="#4e7733" />
                <polygon points="56.71 162.91 59.11 159.83 62.02 165.71 56.71 162.91" fill="#4e7733" />
                <polygon points="52.79 181.33 55.77 177.5 59.38 184.81 52.79 181.33" fill="#4e7733" />
                <polygon points="55.73 175.63 58.13 172.55 61.04 178.43 55.73 175.63" fill="#4e7733" />
                <polygon points="60.68 169.6 63.08 166.52 65.99 172.4 60.68 169.6" fill="#4e7733" />
                <polygon points="48.27 161.96 50.67 158.88 53.57 164.76 48.27 161.96" fill="#4e7733" />
                <polygon points="41.49 165.75 43.89 162.66 46.8 168.55 41.49 165.75" fill="#4e7733" />
                <polygon points="35.55 150.51 41.08 149.81 40.78 154.32 35.55 150.51" fill="#4e7733" />
                <polygon points="33.51 141.56 35.86 141.75 34.43 149.31 33.51 141.56" fill="#4e7733" />
                <polygon points="40.49 145.21 46.02 144.51 45.72 149.03 40.49 145.21" fill="#4e7733" />
                <polygon points="47.22 149.95 52.15 148.53 51.39 150.77 47.22 149.95" fill="#4e7733" />
                <polygon points="42.46 154.82 49.4 152.83 53.27 156.51 42.46 154.82" fill="#4e7733" />
                <polygon points="36.52 136.66 41.54 136.66 39.39 144.01 36.52 136.66" fill="#4e7733" />
                <polygon points="41.6 132.88 46.62 132.88 45.83 138.63 41.6 132.88" fill="#4e7733" />
                <polygon points="30.87 155.1 35.31 154.25 35.01 158.77 30.87 155.1" fill="#4e7733" />
                <polygon points="27.63 169.48 32.93 167.63 33.51 171.77 27.63 169.48" fill="#4e7733" />
                <polygon points="30.48 164.98 38.13 162.44 39.76 165.96 30.48 164.98" fill="#4e7733" />
                <polygon points="36 159.3 43.65 156.76 45.28 160.28 36 159.3" fill="#4e7733" />
                <polygon points="37.35 171.35 40.19 167.7 43.62 174.66 37.35 171.35" fill="#4e7733" />
                <polygon points="111.66 190.44 109.26 187.35 106.36 193.24 111.66 190.44" fill="#4e7733" />
                <polygon points="106.28 190.44 103.89 187.35 100.98 193.24 106.28 190.44" fill="#4e7733" />
                <polygon points="119.64 186.38 116.66 182.55 113.05 189.86 119.64 186.38" fill="#4e7733" />
                <polygon points="122.38 192.75 119.39 188.92 115.78 196.23 122.38 192.75" fill="#4e7733" />
                <polygon points="130.3 189.53 127.85 185.34 123.3 192.11 130.3 189.53" fill="#4e7733" />
                <polygon points="128.18 198.2 125.74 194.01 121.19 200.78 128.18 198.2" fill="#4e7733" />
                <polygon points="120.05 202.09 117.6 197.9 113.05 204.67 120.05 202.09" fill="#4e7733" />
                <polygon points="112.16 205.8 109.72 201.61 105.17 208.38 112.16 205.8" fill="#4e7733" />
                <polygon points="104.82 208.74 102.37 204.55 97.83 211.31 104.82 208.74" fill="#4e7733" />
                <polygon points="92.58 210.41 92.52 206.58 97.5 211.24 92.58 210.41" fill="#4e7733" />
                <polygon points="127.05 182.46 124.07 178.63 120.46 185.94 127.05 182.46" fill="#4e7733" />
                <polygon points="114.13 174.8 111.15 170.97 107.54 178.27 114.13 174.8" fill="#4e7733" />
                <polygon points="120.33 178.81 117.34 174.98 113.73 182.28 120.33 178.81" fill="#4e7733" />
                <polygon points="114.49 196.68 111.51 192.84 107.9 200.15 114.49 196.68" fill="#4e7733" />
                <polygon points="105.49 200.95 102.51 197.12 98.9 204.43 105.49 200.95" fill="#4e7733" />
                <polygon points="111.66 183.14 109.26 180.06 106.36 185.94 111.66 183.14" fill="#4e7733" />
                <polygon points="111.19 169.1 108.79 166.01 105.89 171.89 111.19 169.1" fill="#4e7733" />
                <polygon points="106.16 167.68 103.18 163.85 99.57 171.16 106.16 167.68" fill="#4e7733" />
                <polygon points="103.22 161.98 100.82 158.9 97.91 164.78 103.22 161.98" fill="#4e7733" />
                <polygon points="107.14 180.4 104.15 176.57 100.55 183.88 107.14 180.4" fill="#4e7733" />
                <polygon points="104.2 174.7 101.8 171.61 98.89 177.5 104.2 174.7" fill="#4e7733" />
                <polygon points="99.25 168.67 96.85 165.59 93.94 171.47 99.25 168.67" fill="#4e7733" />
                <polygon points="111.66 161.03 109.26 157.95 106.36 163.83 111.66 161.03" fill="#4e7733" />
                <polygon points="118.44 164.82 116.04 161.73 113.13 167.62 118.44 164.82" fill="#4e7733" />
                <polygon points="124.38 149.57 118.85 148.87 119.15 153.39 124.38 149.57" fill="#4e7733" />
                <polygon points="126.42 140.62 124.07 140.82 125.5 148.38 126.42 140.62" fill="#4e7733" />
                <polygon points="119.44 144.28 113.91 143.58 114.21 148.1 119.44 144.28" fill="#4e7733" />
                <polygon points="147.19 153.97 142.27 152.56 143.03 154.8 147.19 153.97" fill="#4e7733" />
                <polygon points="117.47 153.89 110.53 151.9 106.66 155.58 117.47 153.89" fill="#4e7733" />
                <polygon points="123.41 135.73 118.39 135.73 120.54 143.08 123.41 135.73" fill="#4e7733" />
                <polygon points="137.47 150.66 135.13 150.87 136.55 158.42 137.47 150.66" fill="#4e7733" />
                <polygon points="141.1 154.49 138.75 154.69 140.18 162.24 141.1 154.49" fill="#4e7733" />
                <polygon points="134.46 145.77 129.44 145.77 131.6 153.13 134.46 145.77" fill="#4e7733" />
                <polygon points="127.32 129.97 124.97 130.17 126.4 137.72 127.32 129.97" fill="#4e7733" />
                <polygon points="124.31 125.08 119.29 125.08 121.44 132.43 124.31 125.08" fill="#4e7733" />
                <polygon points="137.08 140.62 134.74 140.82 136.17 148.37 137.08 140.62" fill="#4e7733" />
                <polygon points="142.27 146.23 139.92 146.43 141.35 153.99 142.27 146.23" fill="#4e7733" />
                <polygon points="134.08 135.73 129.06 135.73 131.21 143.08 134.08 135.73" fill="#4e7733" />
                <polygon points="129.06 154.17 124.62 153.32 124.92 157.84 129.06 154.17" fill="#4e7733" />
                <polygon points="139.92 163.64 134.39 162.94 134.69 167.46 139.92 163.64" fill="#4e7733" />
                <polygon points="134.98 158.35 129.44 157.65 129.75 162.17 134.98 158.35" fill="#4e7733" />
                <polygon points="132.3 168.55 127 166.69 126.42 170.83 132.3 168.55" fill="#4e7733" />
                <polygon points="129.44 164.05 121.8 161.51 120.17 165.03 129.44 164.05" fill="#4e7733" />
                <polygon points="123.93 158.37 116.28 155.83 114.65 159.35 123.93 158.37" fill="#4e7733" />
                <polygon points="122.58 170.42 119.74 166.77 116.31 173.73 122.58 170.42" fill="#4e7733" />
                </g>
            </g>
            <g id="e5b8aa27-d358-40bd-982f-3b3e6007647b" data-name="Left-hand">
                <path d="M38.12,96.15a7.74,7.74,0,0,0-7.28,4.42c-2.46,4.87-8,5.2-8,5.2s-6.2.06-6.54,8.84-1.54,11.91.67,15.31,3.64,3,2.71,6.05S4.36,172.79,4.36,179.41s4.55,11.71,9.48,12,11.4-6.17,12-11,8.55-44.38,9.71-46.1,8.54-8.75,8.77-12.75-.46-9.07.39-10.61-.28-6.87-.28-6.87S41.69,97.6,38.12,96.15Z" fill="#9d5650" stroke="#611f45" stroke-miterlimit="10" stroke-width="1.1" />
                <path d="M31.46,129.93v-8.4s3.08.33,3.23-3.24-1.17-11.8-2-12.21a59.5,59.5,0,0,0-6.32-1.26" fill="none" stroke="#611f45" stroke-miterlimit="10" stroke-width="1.1" />
                <path d="M21.51,111.78s4.32.8,6.49-1.47c0,0-1.46,11.38,3.46,11.22" fill="none" stroke="#611f45" stroke-miterlimit="10" stroke-width="1.1" />
                <path d="M34.53,119.34s1.1,2.22,3.13,2.22,3.53-2.76,2.46-9.26S37.29,100.55,33.28,101" fill="none" stroke="#611f45" stroke-miterlimit="10" stroke-width="1.1" />
                <path d="M40.12,112.3s4.53,2,4.92-3.73" fill="none" stroke="#611f45" stroke-miterlimit="10" stroke-width="1.1" />
            </g>
        </g>
        <g id="b60cfb2c-60f3-4bb3-a2c6-683d6560f659" data-name="Head">
            <path d="M41.31,76.79s.12,37.89,4.21,43.35,7.19,19.12,7.19,19.12,2.77,13.06,4.66,15.34S69,167.69,79.8,167.37h7.49c10.84.32,20.55-10.5,22.43-12.77s4.66-15.34,4.66-15.34,3.09-13.67,7.19-19.12,4.2-43.35,4.2-43.35-11-36.06-28.69-34.63a244,244,0,0,1-35.15,0S48.1,47,41.31,76.79Z" fill="#9d5650" stroke="#611f45" stroke-miterlimit="10" stroke-width="1.53" />
            <g id="e1de5de2-a79a-4053-bedd-ae00a0f8f93f" data-name="Mouth">
                <path d="M64.62,138s-1.26-.1-.64.06a24.53,24.53,0,0,1,3.45,2.42L83.76,145l16.11-4a41.22,41.22,0,0,0,3.72-2.27,2.07,2.07,0,0,1,.14-.53s.2-1.12-2-1.19-10.06-3.9-10.06-3.9l-7.87.57-7.49-.57Z" fill="#611f45" />
                <path class="teeth" d="M72.39,135.92A2.33,2.33,0,0,0,74.53,138c2,.13,2.58-.91,2.48-2.71A7.58,7.58,0,0,0,72.39,135.92Z" fill="#fff22a" stroke="#611f45" stroke-miterlimit="10" stroke-width="0.76" />
                <path class="teeth" d="M77.52,135.5s-.59,3.06,1.35,3.38c2.92.49,4.79,1.87,5.11-2C84,136.86,79.9,135.16,77.52,135.5Z" fill="#fff22a" stroke="#611f45" stroke-miterlimit="10" stroke-width="0.76" />
                <path class="teeth" d="M96.68,136.05a2.32,2.32,0,0,1-2.14,2.11c-2,.14-2.58-.9-2.48-2.7A7.58,7.58,0,0,1,96.68,136.05Z" fill="#fff22a" stroke="#611f45" stroke-miterlimit="10" stroke-width="0.76" />
                <path class="teeth" d="M91.55,135.63s.59,3.06-1.36,3.38c-2.91.48-4.78,1.87-5.1-2C85.09,137,89.17,135.29,91.55,135.63Z" fill="#fff22a" stroke="#611f45" stroke-miterlimit="10" stroke-width="0.76" />
                <path d="M102.39,137.2l-6.5-5.49a8.85,8.85,0,0,0-5.71-2.09h-.89a8.84,8.84,0,0,0-3.09.56l-2.13.79-1.25-.56a8.85,8.85,0,0,0-3.65-.79H77.64a8.8,8.8,0,0,0-5.58,2L64.29,138s1.88.67,7.12-1.66,11.53.26,11.53.26a5.24,5.24,0,0,0,4,0,16.12,16.12,0,0,1,10-.3A16.1,16.1,0,0,0,102.39,137.2Z" fill="#b06d75" stroke="#611f45" stroke-miterlimit="10" stroke-width="0.76" />
                <path d="M67.07,140.05h4.82a9.5,9.5,0,0,1,3.68.72c2.24.92,6.26,2.39,8.89,2.33,2.46,0,5.72-1.31,7.73-2.19a9.86,9.86,0,0,1,4-.86h4.72s-7.24,10.85-16.59,10.89S67.07,140.05,67.07,140.05Z" fill="#cc7685" stroke="#611f45" stroke-miterlimit="10" stroke-width="0.76" />
            </g>
            <g id="be496e0b-2d78-4972-a192-13d641a1b926" data-name="Beard">
                <path d="M73.27,118.77" fill="none" stroke="#611f45" stroke-miterlimit="10" stroke-width="0.76" />
                <circle cx="70.01" cy="125.34" r="0.31" fill="#611f45" />
                <circle cx="72.44" cy="124.73" r="0.31" fill="#611f45" />
                <circle cx="71.69" cy="126.41" r="0.31" fill="#611f45" />
                <circle cx="74.87" cy="124.42" r="0.31" fill="#611f45" />
                <circle cx="74.26" cy="125.95" r="0.31" fill="#611f45" />
                <circle cx="77.36" cy="126.51" r="0.31" fill="#611f45" />
                <circle cx="79.82" cy="124.68" r="0.31" fill="#611f45" />
                <circle cx="79.82" cy="126.51" r="0.31" fill="#611f45" />
                <circle cx="82.31" cy="127.12" r="0.31" fill="#611f45" />
                <circle cx="84.08" cy="126.51" r="0.31" fill="#611f45" />
                <circle cx="85.39" cy="125.3" r="0.31" fill="#611f45" />
                <circle cx="87.18" cy="126.46" r="0.31" fill="#611f45" />
                <circle cx="89.67" cy="124.05" r="0.31" fill="#611f45" />
                <circle cx="90.24" cy="125.91" r="0.31" fill="#611f45" />
                <circle cx="91.84" cy="124.35" r="0.31" fill="#611f45" />
                <circle cx="92.69" cy="125.91" r="0.31" fill="#611f45" />
                <circle cx="94.57" cy="125.3" r="0.31" fill="#611f45" />
                <circle cx="93.96" cy="127.14" r="0.31" fill="#611f45" />
                <circle cx="95.81" cy="126.52" r="0.31" fill="#611f45" />
                <circle cx="94.57" cy="128.34" r="0.31" fill="#611f45" />
                <circle cx="97.05" cy="128.95" r="0.31" fill="#611f45" />
                <circle cx="97.64" cy="130.82" r="0.31" fill="#611f45" />
                <circle cx="100.11" cy="131.43" r="0.31" fill="#611f45" />
                <circle cx="101.96" cy="132.66" r="0.31" fill="#611f45" />
                <circle cx="102.58" cy="134.52" r="0.31" fill="#611f45" />
                <circle cx="103.19" cy="135.74" r="0.31" fill="#611f45" />
                <circle cx="100.72" cy="141.22" r="0.31" fill="#611f45" />
                <circle cx="100.72" cy="143.12" r="0.31" fill="#611f45" />
                <circle cx="108.71" cy="141.96" r="0.31" fill="#611f45" />
                <circle cx="107.43" cy="143.57" r="0.31" fill="#611f45" />
                <circle cx="110.11" cy="147.32" r="0.31" fill="#611f45" />
                <circle cx="109.4" cy="140.12" r="0.31" fill="#611f45" />
                <circle cx="99.49" cy="143.73" r="0.31" fill="#611f45" />
                <circle cx="100.11" cy="145.58" r="0.31" fill="#611f45" />
                <circle cx="97.59" cy="147.42" r="0.31" fill="#611f45" />
                <circle cx="98.88" cy="145.54" r="0.31" fill="#611f45" />
                <circle cx="97.67" cy="149.25" r="0.31" fill="#611f45" />
                <circle cx="98.88" cy="149.25" r="0.31" fill="#611f45" />
                <circle cx="99.58" cy="151.74" r="0.31" fill="#611f45" />
                <circle cx="95.2" cy="153.56" r="0.31" fill="#611f45" />
                <circle cx="96.42" cy="150.51" r="0.31" fill="#611f45" />
                <circle cx="94.6" cy="154.8" r="0.31" fill="#611f45" />
                <circle cx="95.2" cy="156.01" r="0.31" fill="#611f45" />
                <circle cx="93.37" cy="157.28" r="0.31" fill="#611f45" />
                <circle cx="92.13" cy="158.49" r="0.31" fill="#611f45" />
                <circle cx="89.68" cy="160.95" r="0.31" fill="#611f45" />
                <circle cx="94.6" cy="157.87" r="0.31" fill="#611f45" />
                <circle cx="93.68" cy="158.79" r="0.31" fill="#611f45" />
                <circle cx="92.13" cy="159.72" r="0.31" fill="#611f45" />
                <circle cx="96.39" cy="156.61" r="0.31" fill="#611f45" />
                <circle cx="100.51" cy="153.24" r="0.4" fill="#611f45" />
                <circle cx="101.12" cy="152.14" r="0.4" fill="#611f45" />
                <circle cx="106.31" cy="150.62" r="0.4" fill="#611f45" />
                <circle cx="99.37" cy="161.26" r="0.4" fill="#611f45" />
                <circle cx="98.3" cy="160.29" r="0.4" fill="#611f45" />
                <circle cx="110.73" cy="141.96" r="0.4" fill="#611f45" />
                <circle cx="109.4" cy="145.97" r="0.4" fill="#611f45" />
                <circle cx="111.99" cy="142.81" r="0.4" fill="#611f45" />
                <circle cx="109.9" cy="143.73" r="0.4" fill="#611f45" />
                <circle cx="101.97" cy="151.18" r="0.4" fill="#611f45" />
                <circle cx="98.61" cy="154.46" r="0.44" fill="#611f45" />
                <circle cx="96.06" cy="157.78" r="0.44" fill="#611f45" />
                <circle cx="96.06" cy="159.6" r="0.44" fill="#611f45" />
                <circle cx="94.34" cy="160.01" r="0.44" fill="#611f45" />
                <circle cx="91.94" cy="161.2" r="0.44" fill="#611f45" />
                <circle cx="99.24" cy="155.87" r="0.63" fill="#611f45" />
                <circle cx="101.65" cy="154.19" r="0.63" fill="#611f45" />
                <circle cx="104.18" cy="151.67" r="0.63" fill="#611f45" />
                <circle cx="104.88" cy="150.13" r="0.63" fill="#611f45" />
                <circle cx="105.51" cy="147.6" r="0.63" fill="#611f45" />
                <circle cx="103.74" cy="149.37" r="0.63" fill="#611f45" />
                <circle cx="106.54" cy="149.08" r="0.63" fill="#611f45" />
                <circle cx="107.73" cy="146.79" r="0.63" fill="#611f45" />
                <circle cx="113.56" cy="134.52" r="0.63" fill="#611f45" />
                <circle cx="111.52" cy="137.62" r="0.63" fill="#611f45" />
                <circle cx="113.56" cy="137.37" r="0.63" fill="#611f45" />
                <circle cx="111.7" cy="139.75" r="0.63" fill="#611f45" />
                <circle cx="113" cy="140.63" r="0.63" fill="#611f45" />
                <circle cx="106.73" cy="145.58" r="0.63" fill="#611f45" />
                <circle cx="98.3" cy="158.49" r="0.63" fill="#611f45" />
                <circle cx="96.85" cy="161.2" r="0.63" fill="#611f45" />
                <circle cx="96.52" cy="163.29" r="0.63" fill="#611f45" />
                <circle cx="97.04" cy="154.8" r="0.31" fill="#611f45" />
                <circle cx="56.78" cy="142.88" r="0.31" fill="#611f45" />
                <circle cx="58.06" cy="144.49" r="0.31" fill="#611f45" />
                <circle cx="55.38" cy="148.24" r="0.31" fill="#611f45" />
                <circle cx="56.1" cy="141.04" r="0.31" fill="#611f45" />
                <circle cx="56.35" cy="139.29" r="0.31" fill="#611f45" />
                <circle cx="53.95" cy="137.24" r="0.36" fill="#611f45" />
                <circle cx="55.93" cy="137.37" r="0.31" fill="#611f45" />
                <circle cx="65.91" cy="152.66" r="0.31" fill="#611f45" />
                <circle cx="70.3" cy="156.93" r="0.31" fill="#611f45" />
                <circle cx="72.12" cy="158.2" r="0.31" fill="#611f45" />
                <circle cx="73.36" cy="159.4" r="0.31" fill="#611f45" />
                <circle cx="75.81" cy="161.87" r="0.31" fill="#611f45" />
                <circle cx="82.94" cy="163.48" r="0.31" fill="#611f45" />
                <circle cx="79.82" cy="163.94" r="0.31" fill="#611f45" />
                <circle cx="81.83" cy="163.48" r="0.31" fill="#611f45" />
                <circle cx="79.9" cy="162.86" r="0.31" fill="#611f45" />
                <circle cx="76.96" cy="162.86" r="0.31" fill="#611f45" />
                <circle cx="85.96" cy="163.43" r="0.31" fill="#611f45" />
                <circle cx="87.24" cy="162.12" r="0.31" fill="#611f45" />
                <circle cx="77.98" cy="162.18" r="0.31" fill="#611f45" />
                <circle cx="70.89" cy="158.79" r="0.31" fill="#611f45" />
                <circle cx="71.81" cy="159.71" r="0.31" fill="#611f45" />
                <circle cx="73.36" cy="160.63" r="0.31" fill="#611f45" />
                <circle cx="69.1" cy="157.53" r="0.31" fill="#611f45" />
                <circle cx="64.98" cy="154.15" r="0.4" fill="#611f45" />
                <circle cx="64.37" cy="153.06" r="0.4" fill="#611f45" />
                <circle cx="63.52" cy="152.1" r="0.4" fill="#611f45" />
                <circle cx="66.88" cy="155.38" r="0.44" fill="#611f45" />
                <circle cx="69.43" cy="158.7" r="0.44" fill="#611f45" />
                <circle cx="69.43" cy="160.52" r="0.44" fill="#611f45" />
                <circle cx="71.15" cy="160.93" r="0.44" fill="#611f45" />
                <circle cx="73.55" cy="162.12" r="0.44" fill="#611f45" />
                <circle cx="66.25" cy="156.78" r="0.63" fill="#611f45" />
                <circle cx="65.27" cy="155.65" r="0.63" fill="#611f45" />
                <circle cx="60.31" cy="153.55" r="0.63" fill="#611f45" />
                <circle cx="63.84" cy="155.11" r="0.63" fill="#611f45" />
                <circle cx="61.89" cy="152.93" r="0.63" fill="#611f45" />
                <circle cx="60.61" cy="151.05" r="0.63" fill="#611f45" />
                <circle cx="59.98" cy="148.52" r="0.63" fill="#611f45" />
                <circle cx="59.46" cy="143.42" r="0.63" fill="#611f45" />
                <circle cx="61.76" cy="150.28" r="0.63" fill="#611f45" />
                <circle cx="58.95" cy="149.99" r="0.63" fill="#611f45" />
                <circle cx="55.93" cy="147.61" r="0.63" fill="#611f45" />
                <circle cx="58.95" cy="152.14" r="0.63" fill="#611f45" />
                <circle cx="58.06" cy="153.39" r="0.63" fill="#611f45" />
                <circle cx="62.1" cy="156.78" r="0.63" fill="#611f45" />
                <circle cx="62.1" cy="155.11" r="0.63" fill="#611f45" />
                <circle cx="59.09" cy="154.9" r="0.63" fill="#611f45" />
                <circle cx="57.13" cy="151.87" r="0.63" fill="#611f45" />
                <circle cx="56.78" cy="149.28" r="0.63" fill="#611f45" />
                <circle cx="56.15" cy="145.4" r="0.63" fill="#611f45" />
                <circle cx="54.41" cy="142.46" r="0.63" fill="#611f45" />
                <circle cx="53.95" cy="139.81" r="0.63" fill="#611f45" />
                <circle cx="60.42" cy="156.28" r="0.63" fill="#611f45" />
                <circle cx="64.17" cy="157.05" r="0.63" fill="#611f45" />
                <circle cx="62.58" cy="158.59" r="0.63" fill="#611f45" />
                <circle cx="64.82" cy="160.34" r="0.63" fill="#611f45" />
                <circle cx="67.56" cy="157.82" r="0.63" fill="#611f45" />
                <circle cx="65.08" cy="158.79" r="0.63" fill="#611f45" />
                <circle cx="66.65" cy="161.26" r="0.63" fill="#611f45" />
                <circle cx="57.76" cy="147.7" r="0.63" fill="#611f45" />
                <circle cx="54.76" cy="146.45" r="0.63" fill="#611f45" />
                <circle cx="58.76" cy="146.5" r="0.63" fill="#611f45" />
                <circle cx="67.19" cy="159.4" r="0.63" fill="#611f45" />
                <circle cx="68.64" cy="162.12" r="0.63" fill="#611f45" />
                <circle cx="70.69" cy="162.86" r="0.63" fill="#611f45" />
                <circle cx="72.51" cy="163.36" r="0.63" fill="#611f45" />
                <circle cx="72.92" cy="164.85" r="0.63" fill="#611f45" />
                <circle cx="75.43" cy="165.64" r="0.63" fill="#611f45" />
                <circle cx="74.87" cy="163.7" r="0.63" fill="#611f45" />
                <circle cx="77.33" cy="164.71" r="0.63" fill="#611f45" />
                <circle cx="78.03" cy="166.14" r="0.63" fill="#611f45" />
                <circle cx="80.93" cy="164.71" r="0.63" fill="#611f45" />
                <circle cx="79.56" cy="165.64" r="0.63" fill="#611f45" />
                <circle cx="82.08" cy="166.14" r="0.63" fill="#611f45" />
                <circle cx="91.11" cy="166" r="0.63" fill="#611f45" />
                <circle cx="92.38" cy="163.03" r="0.63" fill="#611f45" />
                <circle cx="91.95" cy="164.63" r="0.63" fill="#611f45" />
                <circle cx="94.18" cy="163.35" r="0.63" fill="#611f45" />
                <circle cx="100.71" cy="159.67" r="0.63" fill="#611f45" />
                <circle cx="101.97" cy="156.69" r="0.63" fill="#611f45" />
                <circle cx="101.54" cy="158.3" r="0.63" fill="#611f45" />
                <circle cx="103.77" cy="157.02" r="0.63" fill="#611f45" />
                <circle cx="105.75" cy="157.02" r="0.63" fill="#611f45" />
                <circle cx="106.49" cy="152.19" r="0.63" fill="#611f45" />
                <circle cx="107.39" cy="154.88" r="0.63" fill="#611f45" />
                <circle cx="108.81" cy="153.39" r="0.63" fill="#611f45" />
                <circle cx="107.91" cy="152.19" r="0.63" fill="#611f45" />
                <circle cx="109.17" cy="149.22" r="0.63" fill="#611f45" />
                <circle cx="111.5" cy="145.89" r="0.63" fill="#611f45" />
                <circle cx="108.74" cy="150.82" r="0.63" fill="#611f45" />
                <circle cx="110.97" cy="149.54" r="0.63" fill="#611f45" />
                <circle cx="103.19" cy="159.08" r="0.63" fill="#611f45" />
                <circle cx="103.63" cy="154.99" r="0.63" fill="#611f45" />
                <circle cx="105.29" cy="154.88" r="0.63" fill="#611f45" />
                <circle cx="103.36" cy="153.18" r="0.63" fill="#611f45" />
                <circle cx="72.2" cy="161.45" r="0.63" fill="#611f45" />
                <circle cx="68.45" cy="155.72" r="0.31" fill="#611f45" />
                <circle cx="98.3" cy="152.98" r="0.31" fill="#611f45" />
                <circle cx="98.88" cy="146.79" r="0.31" fill="#611f45" />
                <circle cx="68.77" cy="127.15" r="0.26" fill="#611f45" />
                <circle cx="69.37" cy="128.35" r="0.26" fill="#611f45" />
                <circle cx="67.55" cy="128.99" r="0.26" fill="#611f45" />
                <circle cx="64.43" cy="132.03" r="0.26" fill="#611f45" />
                <circle cx="62.61" cy="133.3" r="0.26" fill="#611f45" />
                <circle cx="65.69" cy="132.66" r="0.26" fill="#611f45" />
                <circle cx="63.81" cy="133.9" r="0.26" fill="#611f45" />
                <circle cx="62.61" cy="140.02" r="0.26" fill="#611f45" />
                <circle cx="63.83" cy="141.28" r="0.26" fill="#611f45" />
                <circle cx="63.83" cy="143.1" r="0.26" fill="#611f45" />
                <circle cx="65.08" cy="143.73" r="0.26" fill="#611f45" />
                <circle cx="64.46" cy="145.55" r="0.26" fill="#611f45" />
                <circle cx="65.67" cy="145.55" r="0.26" fill="#611f45" />
                <circle cx="66.91" cy="147.42" r="0.26" fill="#611f45" />
                <circle cx="65.67" cy="147.42" r="0.26" fill="#611f45" />
                <circle cx="65.67" cy="149.28" r="0.26" fill="#611f45" />
                <circle cx="67.56" cy="149.28" r="0.26" fill="#611f45" />
                <circle cx="68.16" cy="151.11" r="0.26" fill="#611f45" />
                <circle cx="69.36" cy="153.55" r="0.26" fill="#611f45" />
                <circle cx="70.6" cy="156.02" r="0.26" fill="#611f45" />
                <circle cx="71.82" cy="157.26" r="0.26" fill="#611f45" />
                <circle cx="73.07" cy="158.45" r="0.26" fill="#611f45" />
                <circle cx="61.34" cy="135.77" r="0.26" fill="#611f45" />
                <path d="M23.29,118.29" fill="none" stroke="#611f45" stroke-miterlimit="10" stroke-width="1.53" />
            </g>
            <g id="a0badedd-05ef-405b-8a09-6d5826fdb059" data-name="Nose">
                <path d="M75.1,119.29s1.44-.49,5,2,6.81-1,6.81-1a4.13,4.13,0,0,1,3-1" fill="none" stroke="#611f45" stroke-miterlimit="10" stroke-width="0.64" />
                <path d="M86.89,120.28s3.68,3.65,6.75,0-1-6.36-2.64-7.41-4.36-6.27-4.46-9" fill="none" stroke="#611f45" stroke-miterlimit="10" stroke-width="0.64" />
                <path d="M78.85,120.28s-3.68,3.65-6.75,0,1-6.36,2.64-7.41,4.36-6.27,4.47-9" fill="none" stroke="#611f45" stroke-miterlimit="10" stroke-width="0.64" />
            </g>
            <g id="b6366748-ddbf-45cc-b954-0884771e78b2" data-name="Hair">
                <path d="M121.24,54.34a34,34,0,0,0-3.73-5.46C118.72,52.11,120,53.76,121.24,54.34Z" />
                <path class="hair" d="M148.63,48c-5.61-7.25-14-16-28.62-20.3,0,0-16.73-18.57-30.27-3.58l-3.29-.29s3.19-12.28,14.89-12,19,8.41,22.63,7.83,5.51-6,3.1-9.28-15.57-19-36.85-4c-7,4.93-6.48,17.31-6.48,17.31h-2.8S81.42.39,58.6,0,35.1,17,38.87,18s17.41-7.45,25.82-6.1S78,19.64,78.42,23.6c0,0-12.67-13.24-29,3.68,0,0-26.59,6.29-33.07,30-2.61,10.25,10.06,8.32,16.34-4.88,7.35-10.88,9.19-9.14,9.19-9.14s-2.23,8.12,3.67,10.34c0,0-7.65,13.69-5,34.5,0,0,3.88-7.27,14.88-9.08l2.39-11.62S59,64.51,65.76,64.8c0,0-5.71,35.86.45,39.65s7.71-30,7.71-30l.29-11.32h19.3a164.18,164.18,0,0,1,5.77,31.18c1.22,16.21,10.88,8,10.21,3.56s-5.1-31-6-32.64c0,0,6.49.45,7.46,1.78s2.41,13.32,2.41,13.32l13,10.7s3.66-20.83-5.12-36.73c-1.23-.58-2.52-2.23-3.73-5.46a31.07,31.07,0,0,0-4.14-4.13s-2.26-7.7-14.74-15c0,0,12.87-.87,18.09,16.73.26.88.52,1.65.79,2.36a34,34,0,0,1,3.73,5.46c4,1.88,7.4-7.24,5.88-9.56,0,0,14.94,19.15,20.25,18.38S154.24,55.23,148.63,48ZM53.5,44.8c3.83-19.68,19.28-15.94,19.28-15.94C66.88,29.55,53.5,44.8,53.5,44.8Z" />
                <circle cx="67.39" cy="35.47" r="0.35" fill="#fff22a" />
                <circle cx="70.53" cy="33.5" r="0.35" fill="#fff22a" />
                <circle cx="76.75" cy="34.2" r="0.35" fill="#fff22a" />
                <circle cx="81.22" cy="33.5" r="0.35" fill="#fff22a" />
                <circle cx="87.56" cy="36.02" r="0.35" fill="#fff22a" />
                <circle cx="85.66" cy="39.8" r="0.35" fill="#fff22a" />
                <circle cx="88.18" cy="40.45" r="0.35" fill="#fff22a" />
                <path d="M116.21,51.9a3,3,0,0,0,.29,1.48c.21.45.89.06.68-.4A2.23,2.23,0,0,1,117,51.9c0-.51-.75-.51-.78,0Z" fill="#fff22a" />
                <path d="M45.3,63.09a1.22,1.22,0,0,1,.15-1.31,7.59,7.59,0,0,0,.81-1.14c.35-.79,0-1.81.55-2.51.35-.5,1-.69,1.42-1.14A4.49,4.49,0,0,0,49,55a4.94,4.94,0,0,1,1.93-2.78" fill="none" stroke="#fff22a" stroke-miterlimit="10" stroke-width="1.57" />
                <path d="M63.68,40.38a16.05,16.05,0,0,0-5.31,7.17,6.73,6.73,0,0,1-1,2,4.57,4.57,0,0,0-.92,1.15c-.29.77.21,1.71-.18,2.43-.24.44-.75.66-1.12,1-.77.75-.78,2-.87,3a2.85,2.85,0,0,1-.26,1,4.08,4.08,0,0,1-.52.66,5.38,5.38,0,0,0-1.18,2.36,9.7,9.7,0,0,1-.64,2.84c-.19.35-.46.65-.65,1a6.24,6.24,0,0,0-.48,2.58,3.59,3.59,0,0,1-.18,1,8.54,8.54,0,0,1-.74,1.23,1.48,1.48,0,0,0-.19,1.37" fill="none" stroke="#fff22a" stroke-miterlimit="10" stroke-width="1.57" />
                <path d="M77.06,37.5c-1.34,1.19.14,3.62-.82,5.13-.4.65-1.18,1-1.63,1.6-1.15,1.6.44,4-.41,5.77-.59,1.23-2.21,1.8-2.55,3.12-.25.93.24,1.94,0,2.86a6.1,6.1,0,0,1-.78,1.38c-1.08,1.84-.64,4.24-1.49,6.2-.59,1.33-1.78,2.54-1.57,4a11.47,11.47,0,0,1,.42,1.78c0,1-1,1.74-1.44,2.65-.92,1.8.26,4,.1,6a15.33,15.33,0,0,1-1.18,3.68A10.92,10.92,0,0,0,66.23,90a2.74,2.74,0,0,1,.39,1.11c0,.68-.49,1.24-.74,1.87-.51,1.31.18,2.74.68,4.06s.7,3.05-.42,3.9" fill="none" stroke="#fff22a" stroke-miterlimit="10" stroke-width="1.57" />
                <path d="M100.18,36.89l1.53,2.43a6,6,0,0,0,1.5,1.8c.63.42,1.43.62,1.9,1.22.82,1,.15,2.77,1,3.82a6.5,6.5,0,0,0,1,.84c1.84,1.59,1.28,4.83,3.07,6.47a6.7,6.7,0,0,1,.92.84c.72,1,.12,2.38.37,3.58s1.31,2.07,1.46,3.26-.48,2.38.26,3.2a4.26,4.26,0,0,0,.76.56c1.47,1.06,1.57,3.17,1.52,5a1.81,1.81,0,0,0,.33,1.37,8,8,0,0,0,.83.55c.71.57.55,1.65.52,2.55a6.25,6.25,0,0,0,.82,3.3" fill="none" stroke="#fff22a" stroke-miterlimit="10" stroke-width="1.57" />
                <path d="M93.13,24.15c1-1,2.27-2.09,3.59-1.63a6.78,6.78,0,0,0,1.28.53c1.32.17,2.35-1.82,3.59-1.34.66.25.9,1.09,1.49,1.49,1.26.83,3.09-.78,4.39,0,.55.33.81,1,1.35,1.35.82.52,1.94.1,2.82.5s1.22,1.58,1.9,2.33A7.59,7.59,0,0,0,116,28.8a3.21,3.21,0,0,1,1.92,2,1.08,1.08,0,0,0,.18.53,1.2,1.2,0,0,0,.41.24,2.83,2.83,0,0,1,1.25,2.27,4.42,4.42,0,0,0,.84,2.51c.36.38.87.6,1.16,1,.66,1-.11,2.33.27,3.43a7.2,7.2,0,0,0,1.15,1.63c.38.55.55,1.39,0,1.82-.25.21-.66.36-.61.68a.7.7,0,0,0,.33.39,3.17,3.17,0,0,1,.91,3.91" fill="none" stroke="#fff22a" stroke-miterlimit="10" stroke-width="1.57" />
                <path d="M76.19,24.15c-1-1-2.27-2.09-3.58-1.63a7.15,7.15,0,0,1-1.29.53c-1.31.17-2.35-1.82-3.59-1.34-.66.25-.9,1.09-1.49,1.49-1.26.83-3.09-.78-4.39,0-.55.33-.81,1-1.35,1.35-.82.52-1.94.1-2.81.5s-1.23,1.58-1.91,2.33a7.55,7.55,0,0,1-2.44,1.43,3.2,3.2,0,0,0-1.93,2,1.08,1.08,0,0,1-.18.53,1.2,1.2,0,0,1-.41.24,2.83,2.83,0,0,0-1.25,2.27,4.42,4.42,0,0,1-.84,2.51c-.36.38-.87.6-1.16,1-.66,1,.11,2.33-.27,3.43a7.2,7.2,0,0,1-1.15,1.63c-.38.55-.55,1.39,0,1.82.25.21.66.36.61.68a.7.7,0,0,1-.33.39,3.17,3.17,0,0,0-.91,3.91" fill="none" stroke="#fff22a" stroke-miterlimit="10" stroke-width="1.57" />
                <path d="M41.9,33.49a6,6,0,0,0-2.38,1,19.91,19.91,0,0,0-5.64,4.66c-.55.74-1.11,1.63-2,1.75a4.12,4.12,0,0,0-1.17.1c-.76.33-.67,1.44-1.13,2.14-.7,1.07-2.43.84-3.34,1.73s-.69,2.3-1.51,3.13a11.58,11.58,0,0,1-1.2.83,5,5,0,0,0-1.27,1.79l-3,5.87" fill="none" stroke="#fff22a" stroke-miterlimit="10" stroke-width="1.57" />
                <path d="M124.47,33.28a5.86,5.86,0,0,1,2.37,1A20.06,20.06,0,0,1,132.49,39c.54.74,1.11,1.63,2,1.75a4.12,4.12,0,0,1,1.17.1c.76.33.67,1.44,1.12,2.14.7,1.07,2.44.84,3.35,1.73s.68,2.3,1.51,3.13a12.61,12.61,0,0,0,1.19.83,5.14,5.14,0,0,1,1.28,1.79l3,5.87" fill="none" stroke="#fff22a" stroke-miterlimit="10" stroke-width="1.57" />
                <path d="M89.6,11.23c-.08-.9.78-1.61,1.63-1.91a9.78,9.78,0,0,0,2.53-.91c.87-.61,1.33-1.74,2.31-2.13s2.27.12,3.25-.39,1.5-2.17,2.68-2.14c.88,0,1.45,1,2.3,1.18,1.14.26,2-.91,3-1.52a1,1,0,0,1,1.22,0c.55.34,1,.83,1.5,1.2a2.08,2.08,0,0,0,1.79.46c.6-.2,1-.8,1.66-.92a2.21,2.21,0,0,1,1.31.32l3,1.39c.67.31,1.44.78,1.4,1.52" fill="none" stroke="#fff22a" stroke-miterlimit="10" stroke-width="1.57" />
                <path d="M39.94,12.43a2,2,0,0,1,1.43-2.11c.77-.2,1.64.07,2.33-.3,1.25-.69,1-2.91,2.27-3.49.87-.39,2,.23,2.81-.33a3.78,3.78,0,0,0,.78-1.06,2.82,2.82,0,0,1,3.13-1.07,3.85,3.85,0,0,0,1.08.33,2.25,2.25,0,0,0,1.38-.65c.74-.58,1.75-1.2,2.55-.69.58.37.8,1.26,1.48,1.39s1-.33,1.49-.6a2.76,2.76,0,0,1,2.75,0,6.58,6.58,0,0,0,1.51,1c1,.29,2.15-.38,2.93.25a2.23,2.23,0,0,1,.55.85l.77,1.72a.74.74,0,0,0,.19.27.6.6,0,0,0,.4.07c.59,0,1.16-.24,1.76-.26A1.59,1.59,0,0,1,73,8.5" fill="none" stroke="#fff22a" stroke-miterlimit="10" stroke-width="1.57" />
                <path d="M92.14,43.81a29.69,29.69,0,0,0,3.2,8,8.48,8.48,0,0,1,.81,1.56c.93,2.73-.69,6.26.52,8.66a15.29,15.29,0,0,0,1.13,1.54c2,3,.65,9.72,2.86,12.2a3.06,3.06,0,0,1,.93,1.23c.42,1.31-.6,2.67-.17,4,.22.69.7.92,1,1.44a6.31,6.31,0,0,1,.46,3.92,9.46,9.46,0,0,0,0,4,12.32,12.32,0,0,0,1.31,2.47,8.7,8.7,0,0,1,.61,5.94" fill="none" stroke="#fff22a" stroke-miterlimit="10" stroke-width="1.05" />
            </g>
            <g id="f7652fb8-49b4-4a37-abc9-4070e91fa5c8" data-name="Shades">
                <circle cx="105.91" cy="97.89" r="15.03" opacity="1" />
                <circle cx="58.71" cy="97.99" r="15.03" opacity="1" />
                <path id="frames" d="M106.47,77.5A20.41,20.41,0,0,0,87,91.75h-8.3a20.39,20.39,0,1,0,1,6.14c0-.2,0-.4,0-.6h6.47c0,.2,0,.4,0,.6A20.4,20.4,0,1,0,106.47,77.5Zm-47.2,35.32A14.93,14.93,0,1,1,74.2,97.89,14.93,14.93,0,0,1,59.27,112.82Zm47.2,0A14.93,14.93,0,1,1,121.4,97.89,14.92,14.92,0,0,1,106.47,112.82Z" fill="#e6e6e6" stroke="#611f45" stroke-miterlimit="10" stroke-width="0.73" />
                <g opacity="0.72">
                    <circle cx="62.17" cy="108.05" r="2.26" fill="#fff" />
                    <circle cx="108.03" cy="108.05" r="2.26" fill="#fff" />
                    <path d="M114.16,88.8s-.57-.06.39,1.73,3.39,8.64-1.86,13c0,0-1.35,3.12,1.63,1.85S121.14,92.7,114.16,88.8Z" fill="#fff" />
                    <path d="M67.59,89.2s-.58-.07.38,1.73,3.39,8.63-1.85,13c0,0-1.35,3.12,1.63,1.85S74.56,93.1,67.59,89.2Z" fill="#fff" />
                </g>
                <path d="M49.73,120.88s6.62,1.17,7.7,6.72,1.38,9.18,1.38,9.18" fill="none" stroke="#8e5454" stroke-miterlimit="10" stroke-width="1.12" />
                <path d="M116.8,120.79s-6.63,1.17-7.71,6.72-1.37,9.19-1.37,9.19" fill="none" stroke="#8e5454" stroke-miterlimit="10" stroke-width="1.12" />
            </g>
            <g id="b4a33379-e93a-468e-bfb9-31fd3c8501bb" data-name="Highlights">
                <path d="M75.08,120.93s-3.1-1-3-3.39,2.89-3.58,3.84-4.21c1.15-.76,2.3-4.19,2.3-4.19" fill="none" stroke="#f7931e" stroke-miterlimit="10" stroke-width="0.65" />
                <path d="M90.66,120.93s3.1-1,3-3.39-2.89-3.58-3.84-4.21c-1.15-.76-2.3-4.19-2.3-4.19" fill="none" stroke="#f7931e" stroke-miterlimit="10" stroke-width="0.65" />
                <path d="M65.34,135.69l7.34-5.58A8.74,8.74,0,0,1,78,128.36H79.4a8.77,8.77,0,0,1,3.44.69l1.19.5,2-.7a8.82,8.82,0,0,1,2.92-.49h.85a8.72,8.72,0,0,1,5.39,1.84l6.14,4.84" fill="none" stroke="#f7931e" stroke-miterlimit="10" stroke-width="0.56" />
                <path d="M76,155.74s7.81-3.4,14.93.32" fill="none" stroke="#f7931e" stroke-miterlimit="10" stroke-width="0.72" />
            </g>
        </g>
    </g>
</svg>