<svg xmlns="http://www.w3.org/2000/svg" viewBox="0 0 299.83 157.79">
    <title>smoke</title>
    <style>
        
        g.smoke{
            cursor: pointer;
        }
        
        path.one:hover {
            fill: yellow;
        }
        
        
        
    </style>
    <g class="smoke" id="ef494413-32cd-4947-ab72-371ae9db431f" data-name="tree">
        <path d="M5.61,137.13s7.8,18.14,25.94,1.55c0,0,17.41,22.8,39.91-.52,0,0,29.54,30.84,48.46,1.82,0,0,23.59,24.36,36.8.52,0,0,21.4,24.93,42.32,6,0,0,20.4,21.8,40.1,0,0,0,33.95,22.27,56.5-12.46,7.51-11.41-3.38-20.48-7.91-18.4s-18.79-.3-18.79-.3-16.37-39.22-51.85-12.6c0,0-2.78-11.29-18.05-9.26,0,0-8.36-17-23.66-10.76l-3.51-3.8s13.93-18.68-6.23-25.5c-5.12-.81-9.63,4.44-9.63,4.44s.44-22.53-17.94-23.71-20.15,16.6-20.15,16.6-8-9.93-16.46,1.19c0,0-9.78-6.82-13.34,5.92,0,0-6.81-21.34-20.6-10.37,0,0,7.68-42.57-38.09-45.85,0,0-15.58-.48-23.82,13.6l-4,67.26Z" fill="#4d4d4d" stroke="#a67c52" stroke-miterlimit="10" stroke-width="3.25" />
        <path class="one" d="M245.91,137.5s13.21,12.5,33,4.63,0-14.75,0-14.75-12.64-.14-17.41-8.29-8.85-17-22.06-17-14,11.94-17.84,12.08-5.87-7.45-18.31-2.67c-2.71,1.33-.6,5-1.44,5.8s-3.47,1.1-3.58-1.58.51-21.42-14.51-20.25c-6.26.67-8,8.18-10.43,8.51s-2.09-13.43-6.93-17.69-16.52-2.42-18-6.84,6.51-4.67,8-6.09,3.84-5.93.67-8-12.93,2.42-14.1-1.17.75-9.6-3.67-11.26S127.11,51,126,60.85c0,5.72-.66,7.53-3.75,5.18s-14-7.13-17.06.48c-.37,1.29,1,2.68,2.69,4.38s4,8,1.49,7.2-8-10.53-19.06-10.58S76.38,79,74.37,79s-2.77-2.58-2.82-3.59,4.21-7.12,4.3-8.7-5-9.13-10.95-9.09-5.45,2.83-7.14,2.78-3-1.59-2.48-2.91a7.87,7.87,0,0,0,.63-4.06c-.16-1.57-.31-34.46-23.59-36.5s-4.6,27-6.47,31.77-7.75.59-10.69.59S.24,52.81,1,62.92,7.8,72.24,7.8,76.06a11.51,11.51,0,0,1-2.19,6.58s8.22-16.3,23.24-13.3S41.7,83.05,43.52,83.87s8.1-1.82,9.59-1.32,10.59,9.1,11.08,12.57,6.29,2,6.29,2,8.27-.5,9.92,10.25c0,0-1.15,3.14,11.42-2.31s22.66,13.23,25.14,13.23,7.44-3.81,9.92-3.64,5.76,5.79,8.09,5.62,13.09-6.45,16.72-6.28,16.21,1.49,26.3,16.21c3.48,3.64,13.07,1.49,13.07,1.49s27,28.61,45.32,6.28c0,0-8.58-3.74-7.41-6.35s8,2.3,10,2.3l8.93,0s4.2-2.47,5.38-2.3S253.9,134.91,245.91,137.5Z" fill="#e6e6e6" />
        <path class="one" d="M6.31,130.32s7.85-1.53,10.79-3.32,4.22-.26,4.35,0,6.52,7.54,14.07,7.54,12-4.82,14.07-4.2,12.4,5.61,15.6,5,9.34-7.29,12.53-7.16,4.16,3.55,4.31,4.7,7.93,9.85,20.8,9.81c4.91,0,11.4-7.23,17.42-7.12s14.23,9.55,22.06,9.22,10.69-9.3,17.48-9.3,12.58,10.9,18.82,9.31S170.34,132,170.34,132s-9.81-7.3-19.62-7.15-9.37,2-16.86,2.84c-2.58.29-5.54-4.24-9.7-4.28s-3.32,1.4-5.94,1.4-10.31-10-21.92-10-9.86,3.5-14,3.56-7.38-7.43-13.67-7.12-6.66,2.83-8.67,2.83-2.11-7-2.11-7,.46-10.79-10.48-10.79c-5,0-7.57,2.09-9.48,2.2a2.57,2.57,0,0,1-2.87-2c0-.67,5.72-3.71,5.75-4.92S35.59,78.79,27.61,78.9,11.43,94.43,6.84,94.65l-2.48.11Z" fill="#e6e6e6" />
    </g>
</svg>
