<svg xmlns="http://www.w3.org/2000/svg" viewBox="0 0 300 282.32">
    <title>tree</title>
    
    <style>
        g.tree {
            cursor: pointer;
        }
        
        circle:hover {
        fill: yellow !important;
        }
        
        path.trunk:hover {
        fill: #611f45;
        }
        
        
        
        
    </style>
    <g class="tree" id="b694b15e-1bb7-4631-9ba7-4cf4bddc80b4" data-name="tree">
        <g id="bb61da98-8922-428a-a077-a5dac5e755f0" data-name="Trunk">
            <path class="trunk" d="M231.77,94.94l2.11-16.64-3.15,0a118.31,118.31,0,0,0-5.36,14.74c-2.87,9.48-3.64,8.24-10.24,14.94s-8,15-18.57,14.55-25.85,6-30.16,8.52-3.35-1.34-3.35-1.34l13.11-20.29s19.06-6.61,28-10.34S225,75.86,225,75.86l-3.44-2.79-14.4,18s-2.26,5.65-30.44,13.28c0,0-2.4,1.27-3.6-4.1s-2.4-12.43-2.4-12.43l15.82-9.89-2.83-3.1-13.34,9.67.35-21.32-2.64-3.38s-4.68,14.26-1.32,29.11S169,108.33,169,108.33l-16.29,16s-9-10.66-13.36-13.18a10.86,10.86,0,0,1-5.08-7.18l-4.44-20.73c14-3.35,38.22-23.48,38.22-23.48l-2.28-4.07s-16,12.7-19.41,14.26-9.94-15-9.94-15l-4.1-.54,7,15.56c-.44,10.82-14.44,9.63-15.11,9.41S106,59.89,106,59.89l-4,2.43c5.29,8.19,17.89,20.76,20.46,24.32,3.11,4.29,7.34,20.67,7.48,22.6s15.86,18.67,17.12,21-3.85,1.18-3.85,1.18-.37-.52-17.93-11.41S94.84,86.64,94.84,86.64a110,110,0,0,1,2.88-20.4h0c-2.09,8.37-5.91,5.27-5.91,5.27L91.06,84c-1.7,1-8.59.59-8.59.59l-7.12-6.37L73.43,81.3l5,4.08a75.69,75.69,0,0,1-14.22,1.26,23.44,23.44,0,0,0,3.14-1C54,90.08,55,86.64,55,86.64l-.87,1.65.37-.29s.91,3.1,6.6,2.81S91.4,88,91.4,88l13.84,20.4s8.66,12.45,30.93,24.13c8.82,6,11.64,22.17,11.64,31.5s-4.44,38.81-3.89,46.75,5.36,14.79,5.46,17.74,2,48.46-15.7,53.8h38.85S156,276.74,159.17,257.8s6.32-16,4.86-25.25-8.26-9.71-9-17-1.22-59.24,2.42-63.86,18.28-21.43,23.42-22.33,20.41,0,24.52-2.43,16.05-22,22.47-24.4S243,91.64,253.9,90c3-.45,4.82-.72,5.83-.88l-4.13-4C245.65,87.16,231.77,94.94,231.77,94.94Z" fill="#000000" />
        </g>
        <g id="ac487a4c-f4bc-4023-a6fb-80b361c77f8a" data-name="Branch">
            <path d="M229.33,39.36s2.55,9.48-8.36,6.23c0,0-1.13,12-14.44,4.81,0,0,1.41,11.33-7.65,6.23,0,0-1.56,12-11.61,3.68,0,0,2.47,12-7.05,12.13s-9-6.39-9-6.39-4.28,13.37-15.76,3c0,0-1.75,7.12-7.85,3.12,0,0-1.6,7.49-9.66,7.41s-11-6.9-11.56-8.21c0,0-2.1,3-5.45,2.4s-5.45-3.49-5.59-4.94c0,0-2.4,4.14-6.54,3.71-8.5-1.09-12-5.82-9.66-13.37,0,0-10.1,4-9.16-4.51,0,0-10.61,8.21-13.81-7.26,0,0-6.61,4.43-8-4.8,0,0-11.91,5.52-12.35-7.48,0,0-8.43,1.38-9.15-5s7.7-8,15.62-4.65c0,0,4.28-4.65,10.17-4.21,4.92.36,7.44,2,8.15,2.57l.54,1.05s-.66-2.17,7.76.63l.09,0,3.77,2.71,1.22,2c1.17,1.31,1.68,4.21,1.68,4.21a10.62,10.62,0,0,1,5.83-1.16l2.87,1.16s2.41-2,3.73,3.33h0c.69,3.09,1.31,5.27,1.31,5.27a10.4,10.4,0,0,1,1.29-2.62l.09-.14,0,0,2.53,1.53c8.33-2,12.58,5.8,12.58,5.8,2.62-2.85,4-2.38,4-2.38l2.59-.35c6.28.61,6.43,3.48,6.43,3.48,2.95-5.78,8.09-5.18,10.62-4.46l1.48.53,1.43-2.57,1.67-2.13a8,8,0,0,1,6.69-1.24,7.45,7.45,0,0,1,1.51-6.11l1.78-2,4-1.85a11.36,11.36,0,0,1,3.67-.43,16.49,16.49,0,0,1,12.43,7.23l2.05-1.88,2.17-1.76a15,15,0,0,1,3.63-1.57l2,0c7.61.18,9,4.26,9,4.26-.18-5.18,4.68-8.57,4.68-8.57l2.6-2.54,0,0s1.68.22,0,0c.32-.4,3.79-4.55,6.63-2.8s4,2.69,4,5.67c0,0,12.75-3.4,14.73,5.52S229.33,39.36,229.33,39.36Z" fill="#00877a" />
            <path d="M24.21,84.21s-2.65-9.46,8.29-6.32c0,0,1-12,14.39-5,0,0-1.53-11.31,7.58-6.31,0,0,1.44-12,11.58-3.8,0,0-2.6-12,6.92-12.2S82,56.91,82,56.91,86.19,43.5,97.78,53.7c0,0,1.67-7.14,7.81-3.21,0,0,1.52-7.5,9.59-7.51s11.11,6.79,11.64,8.09c0,0,2.07-3.08,5.42-2.46s5.48,3.43,5.65,4.89c0,0,2.35-4.17,6.5-3.78,8.51,1,12,5.69,9.8,13.27,0,0,10.06-4.1,9.2,4.41,0,0,10.52-8.32,13.88,7.12,0,0,6.57-4.5,8,4.71,0,0,11.86-5.64,12.43,7.36,0,0,8.41-1.47,9.21,4.92s-7.62,8.07-15.57,4.81c0,0-4.24,4.69-10.13,4.32-4.92-.31-7.47-2-8.18-2.49l-.55-1s.68,2.16-7.77-.55l-.09,0-3.8-2.67-1.23-2c-1.19-1.3-1.73-4.19-1.73-4.19a10.73,10.73,0,0,1-5.82,1.22l-2.88-1.13s-2.39,2-3.77-3.29h0c-.72-3.08-1.37-5.25-1.37-5.25a10.51,10.51,0,0,1-1.26,2.63.53.53,0,0,0-.08.14l0,0-2.55-1.51c-8.3,2.1-12.64-5.67-12.64-5.67-2.59,2.88-4,2.43-4,2.43l-2.59.37c-6.28-.54-6.46-3.41-6.46-3.41-2.89,5.82-8,5.27-10.57,4.57l-1.48-.51L101,80.92l-1.65,2.15a7.92,7.92,0,0,1-6.67,1.31,7.48,7.48,0,0,1-1.46,6.13l-1.76,2-3.93,1.88a11.59,11.59,0,0,1-3.67.47,16.5,16.5,0,0,1-12.51-7.1l-2,1.9-2.15,1.79c-.66.67-3.61,1.6-3.61,1.6h-2c-7.61-.1-9.07-4.17-9.07-4.17.24,5.18-4.59,8.63-4.59,8.63l-2.58,2.57,0,0s-1.67-.2,0,0c-.32.4-3.74,4.58-6.59,2.86s-4-2.65-4-5.62c0,0-12.71,3.53-14.78-5.37S24.21,84.21,24.21,84.21Z" fill="#002b26" />
            <path d="M279.19,89.67s-1.05,9.77-10,2.79c0,0-5.41,10.81-15.21-.74,0,0-2.78,11.07-9.38,3,0,0-5.81,10.66-12.16-.77,0,0-2,12.07-11,8.76s-6.08-9.22-6.08-9.22-8.83,10.91-15.8-2.86c0,0-4.21,6-8.45.07,0,0-4.2,6.4-11.69,3.42s-7.8-10.43-7.8-11.84c0,0-3.07,2.08-6,.27s-3.82-5.23-3.43-6.63c0,0-3.73,3-7.43,1.08-7.53-4.09-9.08-9.75-4.18-16,0,0-10.86.08-6.9-7.51,0,0-12.86,3.82-10.24-11.77,0,0-7.77,1.74-5.72-7.36,0,0-13.1.84-8.81-11.44,0,0-8.35-1.77-6.72-8s10.08-4.66,16.25,1.32c0,0,5.68-2.79,11-.25,4.45,2.12,6.2,4.59,6.66,5.35l.13,1.17s.17-2.26,7,3.39a.23.23,0,0,0,.07.07l2.54,3.88.42,2.27c.62,1.65,0,4.54,0,4.54a10.67,10.67,0,0,1,5.85,1l2.26,2.13s2.95-1,2.27,4.45h0c-.47,3.13-.68,5.39-.68,5.39a9.89,9.89,0,0,1,2.15-2l.13-.1,0,0L170.2,50c8.49,1.14,9.63,10,9.63,10,3.48-1.71,4.62-.77,4.62-.77l2.54.62c5.63,2.83,4.73,5.57,4.73,5.57,4.84-4.33,9.43-1.91,11.52-.32l1.18,1,2.27-1.87L209,62.82a7.93,7.93,0,0,1,6.68,1.26,7.48,7.48,0,0,1,3.62-5.15l2.38-1.18,4.35-.29a11.38,11.38,0,0,1,3.57.93,16.46,16.46,0,0,1,9,11.23l2.59-1,2.66-.85c.86-.38,4-.16,4-.16l1.84.75c7,2.93,6.88,7.24,6.88,7.24,1.71-4.89,7.46-6.3,7.46-6.3l3.36-1.42,0,0s1.48.81,0,0c.44-.26,5.17-2.87,7.18-.21s2.72,3.94,1.65,6.71c0,0,13.11,1.45,11.73,10.48S279.19,89.67,279.19,89.67Z" fill="#024c43" />
            <path d="M289.42,63.81s4-15-13.23-9.87c0,0-1.8-19.07-22.88-7.63,0,0,2.24-18-12.12-9.87,0,0-2.46-19.07-18.39-5.83,0,0,3.91-19-11.17-19.21s-14.27,10.13-14.27,10.13-6.79-21.18-25-4.84c0,0-2.76-11.28-12.43-5,0,0-2.53-11.85-15.31-11.74s-17.49,10.94-18.3,13c0,0-3.34-4.84-8.63-3.8s-8.64,5.52-8.87,7.83c0,0-3.79-6.56-10.35-5.87-13.47,1.72-19,9.2-15.31,21.18,0,0-16-6.34-14.51,7.13,0,0-16.8-13-21.87,11.51,0,0-10.47-7-12.66,7.6,0,0-18.88-8.75-19.57,11.86,0,0-13.35-2.19-14.5,7.94s12.2,12.66,24.75,7.36c0,0,6.79,7.37,16.11,6.68,7.79-.58,11.79-3.22,12.91-4.08l.87-1.66s-1.05,3.45,12.29-1l.14-.06,6-4.28L75,78.25c1.85-2.08,2.67-6.67,2.67-6.67a16.81,16.81,0,0,0,9.23,1.84l4.55-1.84s3.82,3.1,5.91-5.27v0c1.1-4.9,2.09-8.35,2.09-8.35a15.64,15.64,0,0,0,2,4.15,1.51,1.51,0,0,1,.13.22l0,.07,4-2.43c13.18,3.18,19.93-9.19,19.93-9.19,4.15,4.52,6.37,3.78,6.37,3.78l4.11.54c9.94-1,10.18-5.51,10.18-5.51,4.67,9.17,12.83,8.22,16.82,7.07l2.34-.84,2.28,4.07,2.64,3.37c5.79,3.75,10.6,2,10.6,2a11.86,11.86,0,0,0,2.4,9.69l2.82,3.1,6.27,2.93a18.42,18.42,0,0,0,5.81.67c7.06-.35,15.46-4.67,19.7-11.44l3.25,3,3.43,2.79c1.06,1,5.75,2.49,5.75,2.49l3.15,0c12.05-.29,14.3-6.75,14.3-6.75-.29,8.2,7.41,13.58,7.41,13.58l4.13,4-.05-.06s2.66-.35.05.06c.51.62,6,7.2,10.5,4.42,4.71-2.91,6.28-4.26,6.28-9,0,0,20.19,5.38,23.33-8.75S289.42,63.81,289.42,63.81Z" fill="#00a99d" />
        </g>
        <g class="fruits" id="a3a61721-75ce-4970-bb3c-271fd09eebef" data-name="Fruits">
            <circle class="fruits" cx="221.99" cy="44.93" r="2.54" fill="#c1272d" />
            <circle class="fruits" cx="243.05" cy="48.55" r="2.54" fill="#c1272d" />
            <circle class="fruits" cx="243.05" cy="63.86" r="2.54" fill="#c1272d" />
            <circle class="fruits" cx="265.04" cy="77.37" r="2.54" fill="#c1272d" />
            <circle class="fruits" cx="281.8" cy="71.79" r="2.54" fill="#c1272d" />
            <circle class="fruits" cx="266.77" cy="56.59" r="2.54" fill="#c1272d" />
            <circle class="fruits" cx="171.42" cy="24.67" r="2.54" fill="#c1272d" />
            <circle class="fruits" cx="144.81" cy="13.39" r="2.54" fill="#c1272d" />
            <circle class="fruits" cx="158.52" cy="40.86" r="2.54" fill="#c1272d" />
            <circle class="fruits" cx="123.44" cy="42.97" r="2.54" fill="#c1272d" />
            <circle class="fruits" cx="101.53" cy="47.1" r="2.54" fill="#c1272d" />
            <circle class="fruits" cx="76.01" cy="47.55" r="2.54" fill="#c1272d" />
            <circle class="fruits" cx="52.42" cy="56.13" r="2.54" fill="#c1272d" />
            <circle class="fruits" cx="86.94" cy="60.67" r="2.54" fill="#c1272d" />
            <circle class="fruits" cx="47.34" cy="80.87" r="2.54" fill="#c1272d" />
            <circle class="fruits" cx="63.85" cy="67.7" r="2.54" fill="#c1272d" />
            <circle class="fruits" cx="38.52" cy="68.98" r="2.54" fill="#c1272d" />
            <circle class="fruits" cx="16.5" cy="79.66" r="2.54" fill="#c1272d" />
            <circle class="fruits" cx="143.03" cy="23.48" r="2.54" fill="#c1272d" />
            <circle class="fruits" cx="114.32" cy="23.48" r="2.54" fill="#c1272d" />
            <circle class="fruits" cx="92.68" cy="34.49" r="2.54" fill="#c1272d" />
            <circle class="fruits" cx="192.43" cy="33.18" r="2.54" fill="#c1272d" />
            <circle class="fruits" cx="181.82" cy="49.61" r="2.54" fill="#c1272d" />
            <circle class="fruits" cx="204" cy="47.99" r="2.54" fill="#c1272d" />
            <circle class="fruits" cx="210.75" cy="25.53" r="2.54" fill="#c1272d" />
            <circle class="fruits" cx="197.16" cy="70.24" r="2.54" fill="#c1272d" />
            <circle class="fruits" cx="197.16" cy="89.06" r="2.54" fill="#8c1f28" />
            <circle class="fruits" cx="175.85" cy="71.79" r="2.54" fill="#8c1f28" />
            <circle class="fruits" cx="220.58" cy="90.41" r="2.54" fill="#8c1f28" />
            <circle class="fruits" cx="240.51" cy="83.12" r="2.54" fill="#8c1f28" />
            <circle class="fruits" cx="282.27" cy="90.41" r="2.54" fill="#8c1f28" />
            <circle class="fruits" cx="223.13" cy="68.87" r="2.54" fill="#c1272d" />
        </g>
    </g>
</svg>
