<svg id="fd7158ff-882a-40fb-9767-3bfd336393f9" data-name="Layer 1" xmlns="http://www.w3.org/2000/svg" viewBox="0 0 300 300"><defs><style>.b3934909-5b38-44f5-b42f-1ebc8bcceb5c{fill:#4d4d4d;stroke:#a67c52;stroke-miterlimit:10;stroke-width:3.25px;}.b9155a4a-d6fe-4147-848a-0cbb5f8a9a97{fill:#e6e6e6;}</style></defs><title>BB</title><path class="b3934909-5b38-44f5-b42f-1ebc8bcceb5c" d="M5.65,202.58s7.8,18.15,25.94,1.56c0,0,17.41,22.79,39.91-.52,0,0,29.54,30.84,48.46,1.82,0,0,23.59,24.36,36.8.51,0,0,21.4,24.94,42.32,6,0,0,20.4,21.8,40.1,0,0,0,33.95,22.26,56.49-12.47,7.52-11.4-3.38-20.47-7.91-18.4s-18.78-.29-18.78-.29-16.37-39.23-51.86-12.6c0,0-2.77-11.29-18-9.27,0,0-8.37-17-23.66-10.75l-3.52-3.8s13.94-18.69-6.22-25.51c-5.12-.8-9.63,4.45-9.63,4.45s.44-22.53-17.94-23.71S118,116.19,118,116.19s-8-9.93-16.45,1.18c0,0-9.78-6.82-13.34,5.93,0,0-6.82-21.34-20.6-10.37,0,0,7.68-42.57-38.09-45.85,0,0-15.58-.48-23.82,13.6l-4,67.26Z"/><path class="b9155a4a-d6fe-4147-848a-0cbb5f8a9a97" d="M246,203s13.21,12.51,33,4.64,0-14.75,0-14.75-12.64-.14-17.42-8.29-8.85-17-22.05-17-14.05,11.94-17.84,12.08-5.87-7.45-18.32-2.67c-2.7,1.32-.59,5-1.44,5.79s-3.47,1.11-3.57-1.57.51-21.42-14.51-20.25c-6.26.67-8,8.17-10.43,8.51s-2.09-13.44-6.93-17.69-16.52-2.42-18-6.84,6.51-4.68,8-6.09,3.84-5.93.67-8-12.94,2.42-14.1-1.17.75-9.6-3.68-11.27-12.18-1.92-13.26,7.93c0,5.72-.66,7.52-3.75,5.18s-14-7.14-17.06.47c-.37,1.3.95,2.69,2.68,4.39s4,8,1.5,7.2S101.43,133,90.38,133s-14,11.48-16,11.48-2.78-2.58-2.82-3.59,4.2-7.12,4.3-8.7-5-9.14-11-9.09-5.45,2.82-7.15,2.78-3-1.59-2.47-2.92a7.74,7.74,0,0,0,.62-4.06c-.15-1.56-.3-34.45-23.59-36.49s-4.59,27-6.46,31.77-7.75.58-10.69.58S.28,118.27,1.07,128.37s6.77,9.33,6.77,13.15a11.51,11.51,0,0,1-2.19,6.58s8.22-16.31,23.24-13.3,12.85,13.7,14.67,14.53,8.1-1.82,9.59-1.32,10.59,9.1,11.08,12.57,6.29,2,6.29,2,8.27-.49,9.92,10.26c0,0-1.16,3.14,11.41-2.32s22.67,13.24,25.15,13.24,7.44-3.81,9.92-3.64,5.76,5.79,8.09,5.62,13.08-6.45,16.72-6.28,16.21,1.48,26.3,16.21c3.48,3.63,13.07,1.48,13.07,1.48s27,28.62,45.32,6.29c0,0-8.59-3.74-7.41-6.35s8,2.3,10,2.3l8.92,0s4.21-2.47,5.39-2.3S253.94,200.37,246,203Z"/><path class="b9155a4a-d6fe-4147-848a-0cbb5f8a9a97" d="M6.35,195.78s7.85-1.54,10.79-3.33,4.22-.25,4.35,0S28,200,35.56,200s12-4.82,14.06-4.2,12.41,5.61,15.61,5,9.33-7.29,12.53-7.17,4.16,3.56,4.31,4.7,7.93,9.85,20.8,9.82c4.91,0,11.4-7.23,17.41-7.12s14.24,9.55,22.06,9.22,10.7-9.31,17.49-9.31,12.58,10.91,18.81,9.32-8.26-12.74-8.26-12.74-9.81-7.3-19.63-7.16-9.37,2-16.85,2.85c-2.59.29-5.54-4.25-9.71-4.28s-3.32,1.4-5.94,1.4-10.31-10.05-21.91-10.05-9.86,3.51-14,3.56-7.38-7.43-13.67-7.12S62,179.53,60,179.53s-2.12-7-2.12-7,.47-10.78-10.47-10.78c-5,0-7.57,2.09-9.49,2.2a2.57,2.57,0,0,1-2.86-2c0-.66,5.72-3.7,5.75-4.91s-5.14-12.77-13.12-12.66S11.47,159.89,6.88,160.11l-2.48.1Z"/></svg>