<svg id="ba3af6fe-f777-4a4a-8b52-902aba43e117" data-name="Layer 1" xmlns="http://www.w3.org/2000/svg" viewBox="0 0 300 300"><defs><style>.b1b34ecf-533a-487d-bd23-1576eecdabdc,.f081e2e0-7840-4fc9-850d-31070cd2b4d0{fill:#fff;}.a5aec3c5-824c-459b-83ad-18e53063080a,.ac22133e-553b-42bd-8fcd-f619d421481f,.b1b34ecf-533a-487d-bd23-1576eecdabdc,.b2868e3e-6dea-4df6-a662-91141f4e67f3,.e27104ec-04e8-4404-80a5-070c8a87a92a,.f081e2e0-7840-4fc9-850d-31070cd2b4d0,.fa93a3bf-b62d-48d6-9f55-5662ddadd0c3{stroke:#611f45;}.a13602c3-e197-4544-8503-4216debea3e5,.a5aec3c5-824c-459b-83ad-18e53063080a,.ac22133e-553b-42bd-8fcd-f619d421481f,.b1b34ecf-533a-487d-bd23-1576eecdabdc,.b2868e3e-6dea-4df6-a662-91141f4e67f3,.b9eaec7e-32c5-4694-8732-17492a221a94,.e27104ec-04e8-4404-80a5-070c8a87a92a,.f081e2e0-7840-4fc9-850d-31070cd2b4d0,.fa93a3bf-b62d-48d6-9f55-5662ddadd0c3{stroke-miterlimit:10;}.b1b34ecf-533a-487d-bd23-1576eecdabdc{stroke-width:0.97px;}.adde24ff-4011-4dc2-adee-045c3ea8769f,.b9eaec7e-32c5-4694-8732-17492a221a94{fill:#611f45;}.a5b865a9-e614-45a2-afc8-bf8c9d89b951{fill:#af8da1;}.a5aec3c5-824c-459b-83ad-18e53063080a,.b2868e3e-6dea-4df6-a662-91141f4e67f3,.b9eaec7e-32c5-4694-8732-17492a221a94,.f081e2e0-7840-4fc9-850d-31070cd2b4d0{stroke-width:1.23px;}.a13602c3-e197-4544-8503-4216debea3e5,.a5aec3c5-824c-459b-83ad-18e53063080a,.fa93a3bf-b62d-48d6-9f55-5662ddadd0c3{fill:none;}.a13602c3-e197-4544-8503-4216debea3e5{stroke:#fff;}.a13602c3-e197-4544-8503-4216debea3e5,.ac22133e-553b-42bd-8fcd-f619d421481f{stroke-width:1.85px;}.ac22133e-553b-42bd-8fcd-f619d421481f{fill:#e5dbe1;}.b9eaec7e-32c5-4694-8732-17492a221a94{stroke:#af8da1;}.b2868e3e-6dea-4df6-a662-91141f4e67f3{fill:#e0cad8;}.e27104ec-04e8-4404-80a5-070c8a87a92a{fill:#529975;stroke-width:2.47px;}.fa93a3bf-b62d-48d6-9f55-5662ddadd0c3{stroke-width:1.21px;}</style></defs><title>BB</title><path class="b1b34ecf-533a-487d-bd23-1576eecdabdc" d="M148.42,174.11s116,.2,126.61,0,5.33,5.86,3.44,15.83-3.87,9.39-3.87,9.39H21.78s-2,.57-3.86-9.39-7.14-16,3.43-15.83,126.62,0,126.62,0Z"/><path class="adde24ff-4011-4dc2-adee-045c3ea8769f" d="M290.79,197.27s11.48,44.39-5.9,75.74H241.43s-15.52-17.69-7.45-68.29l2.49-7.45Z"/><path class="a5b865a9-e614-45a2-afc8-bf8c9d89b951" d="M290.19,197.44a122,122,0,0,1,3.1,19.36c1.23,13.53.81,27.46-2.81,40.62A71.39,71.39,0,0,1,286.69,268c-.4.91-.83,1.8-1.28,2.68-.08.16-.72,1.8-.54,1.68-.12.08-.43,0-.57,0a13.59,13.59,0,0,1-3.25,0H248.13c-2,0-4.67.46-6.65,0,.6.14.33.22.15-.12-.26-.5-.67-1-1-1.44-3.35-5.34-5.2-11.63-6.45-17.76-2.69-13.28-2.31-27.13-.7-40.52a45.89,45.89,0,0,1,1.59-9.2L236.2,200a9.09,9.09,0,0,0,.81-2.44c0,.18-.81.11-.29.31a3.24,3.24,0,0,0,.88,0h53.19a.62.62,0,0,0,0-1.23H236.47a.64.64,0,0,0-.6.45L234,202.63a42.11,42.11,0,0,0-1.53,8.13,159.58,159.58,0,0,0-1.41,24.81c.27,9.87,1.56,20,5.22,29.23a40.38,40.38,0,0,0,3.24,6.6c.37.58.92,1.8,1.57,2.14a3.79,3.79,0,0,0,1.61.09h42.16a.61.61,0,0,0,.53-.31c11.48-21,11.46-47.07,7.25-70.09-.37-2-.77-4.1-1.29-6.12A.62.62,0,0,0,290.19,197.44Z"/><path class="f081e2e0-7840-4fc9-850d-31070cd2b4d0" d="M285.26,147.74s15.09-3.52,12.85,26.8c1.28,30.56,3.57,54.31-7.21,52s-20.24-27-20.24-27a46.3,46.3,0,0,0,9.45-26.56C280.82,156.44,278.43,148.68,285.26,147.74Z"/><path class="f081e2e0-7840-4fc9-850d-31070cd2b4d0" d="M14.62,147.74s-15.09-3.52-12.84,26.8C.5,205.1-1.8,228.85,9,226.5s20.23-27,20.23-27a46.38,46.38,0,0,1-9.45-26.56C19.07,156.44,21.46,148.68,14.62,147.74Z"/><path class="adde24ff-4011-4dc2-adee-045c3ea8769f" d="M10.05,197.27S-1.43,241.66,16,273H59.41s15.52-17.69,7.45-68.29l-2.49-7.45Z"/><path class="a5b865a9-e614-45a2-afc8-bf8c9d89b951" d="M9.46,197.11A121.15,121.15,0,0,0,6.6,214a124.67,124.67,0,0,0,1.07,37.29,76.33,76.33,0,0,0,7.75,22,.61.61,0,0,0,.53.31H56.28a14.39,14.39,0,0,0,2.86,0c2.19-.48,3.73-5,4.52-6.77,3.69-8.28,5.25-17.44,5.86-26.43a147,147,0,0,0-.75-26.11c-.39-3.59-.56-7.49-1.71-10.92L65,197.11a.63.63,0,0,0-.6-.45H10.05a.62.62,0,0,0,0,1.23H63.24a3,3,0,0,0,.84,0c.59-.25-.29.14-.25-.31a7.29,7.29,0,0,0,.74,2.21l1.18,3.57A48.11,48.11,0,0,1,67.39,213q.73,6.19,1,12.44a127.87,127.87,0,0,1-.55,19.76c-.89,7.89-2.62,16-6.26,23.11-.7,1.39-1.68,2.61-2.4,4-.2.38-.33.2.13.12a12.1,12.1,0,0,1-2.17,0H19.79a13.59,13.59,0,0,1-3.25,0c-.13,0-.45.07-.56,0,.22.15-.55-1.69-.55-1.68-.44-.88-.87-1.77-1.28-2.68C8.19,254.84,6.57,240,7,225.6a140.38,140.38,0,0,1,3.3-26.78c.11-.46.21-.92.33-1.38A.62.62,0,0,0,9.46,197.11Z"/><path class="a13602c3-e197-4544-8503-4216debea3e5" d="M14.7,207.15s-4,32.76,6.39,60.53"/><path class="a13602c3-e197-4544-8503-4216debea3e5" d="M21.09,213.74s-1,21.58,4.2,37.16"/><path class="a13602c3-e197-4544-8503-4216debea3e5" d="M284.27,206.9s4,32.77-6.4,60.53"/><path class="a13602c3-e197-4544-8503-4216debea3e5" d="M277.87,213.5s1,21.57-4.19,37.15"/><path class="f081e2e0-7840-4fc9-850d-31070cd2b4d0" d="M150.06,194.77s128.93.3,140.67,0,5.92,8.59,3.82,23.2-4.3,13.76-4.3,13.76H9.38s-2.2.84-4.3-13.76-7.92-23.49,3.82-23.2,140.67,0,140.67,0Z"/><path class="ac22133e-553b-42bd-8fcd-f619d421481f" d="M48.2,203.1H25.67s-2.32,0-2.32,3.59v14.89s.07,2.84,2.52,2.84h38a2.59,2.59,0,0,0,2.58-2.58v-16.6s.4-2.14-3.7-2.14Z"/><path class="ac22133e-553b-42bd-8fcd-f619d421481f" d="M259.64,202.6H237.1s-2.31,0-2.31,3.6v14.88s.06,2.84,2.51,2.84h38a2.58,2.58,0,0,0,2.58-2.58v-16.6s.4-2.14-3.71-2.14Z"/><path class="a5aec3c5-824c-459b-83ad-18e53063080a" d="M158.86,203.1H97.6s-6.3,0-6.3,3.59v14.89s.18,2.84,6.84,2.84H201.35s7-.07,7-2.58v-16.6s1.08-2.14-10.07-2.14Z"/><rect class="b9eaec7e-32c5-4694-8732-17492a221a94" x="26.07" y="178.82" width="248.49" height="7.91" rx="1.01"/><path class="ac22133e-553b-42bd-8fcd-f619d421481f" d="M171.74,125.18H29.26s-14.64.07-14.64,9.24v38.24S15,180,30.51,180H270.57s16.31-.17,16.31-6.63V130.68s2.51-5.5-23.42-5.5Z"/><rect class="b9eaec7e-32c5-4694-8732-17492a221a94" x="83.52" y="133.48" width="133.53" height="38.22"/><path class="b2868e3e-6dea-4df6-a662-91141f4e67f3" d="M70,125.92s13.53-6.21,13.53,1.56V231.74H70Z"/><line class="a13602c3-e197-4544-8503-4216debea3e5" x1="78.86" y1="229.51" x2="78.86" y2="128.14"/><path class="b2868e3e-6dea-4df6-a662-91141f4e67f3" d="M230.57,125.92S217,119.71,217,127.48V231.74h13.53Z"/><line class="a13602c3-e197-4544-8503-4216debea3e5" x1="221.59" y1="229.51" x2="221.59" y2="128.14"/><circle class="f081e2e0-7840-4fc9-850d-31070cd2b4d0" cx="46.96" cy="152.09" r="17.74"/><circle class="f081e2e0-7840-4fc9-850d-31070cd2b4d0" cx="252.53" cy="152.58" r="17.74"/><rect class="b2868e3e-6dea-4df6-a662-91141f4e67f3" x="85.54" y="139.79" width="130.48" height="4.99" rx="1.01"/><rect class="b2868e3e-6dea-4df6-a662-91141f4e67f3" x="85.54" y="151.54" width="130.48" height="4.99" rx="1.01"/><rect class="b2868e3e-6dea-4df6-a662-91141f4e67f3" x="84.78" y="163.29" width="130.48" height="4.99" rx="1.01"/><circle class="b2868e3e-6dea-4df6-a662-91141f4e67f3" cx="46.95" cy="152.58" r="14.53"/><circle class="b2868e3e-6dea-4df6-a662-91141f4e67f3" cx="252.53" cy="152.12" r="14.53"/><path class="adde24ff-4011-4dc2-adee-045c3ea8769f" d="M42.18,143.24A165.27,165.27,0,0,0,44,164.55a.6.6,0,0,0,.43.43,10.84,10.84,0,0,0,12-6.66c2.36-5.47.68-11.45-2.34-16.28l-.84.84a9.38,9.38,0,0,1,3.37,14.34l1.13.47a17,17,0,0,0,.73-11.08l-1.19.33c1.32,3.2,2.6,6.58,1.26,10l1.19.33c.95-2.73,1.73-5.46.68-8.27-.22-.59-1.31-.58-1.21.16a12,12,0,0,1-3.68,10.48.62.62,0,0,0,.74,1,10.47,10.47,0,0,0,3.42-3l-1.13-.47a12.46,12.46,0,0,1-14.47,7.7c-.77-.17-1.1,1-.33,1.19,1.14.27,3.35.86,4.37-.06,1.21-1.09.25-4.05.14-5.41l-1.58-18.25H45.42L47,157.75c.12,1.23-.17,4,.77,4.94s2.8.49,3.8.43a.64.64,0,0,0,.62-.62A92.8,92.8,0,0,0,51.45,144c-.09-.64-1-.53-1.19,0-1,3.35,3.68,2.49,5.33,3l.16-1.21-18,0a.62.62,0,0,0,0,1.23l11.53.57,5.76.28c.78,0,2-.14,2.57.51a8.72,8.72,0,0,1,.69,2.51,14,14,0,0,1,.47,3.27l0,.87c.06,1.1-.4,1.5-1.37,1.2-1.59.49-4.18,0-5.87.06l-11.74.12a.62.62,0,0,0,0,1.24l3.87.13a.63.63,0,0,0,.6-.78c-.43-1.47-.71-4.68-1.87-5.75-1-.9-3.38-.57-4.59-.64v1.23l15.85.57c.79,0,.79-1.21,0-1.24l-15.85-.56c-.8,0-.79,1.18,0,1.23,1.75.1,3.26-.12,4.19,1.79a24.43,24.43,0,0,1,1.08,3.69l.59-.78-3.87-.13v1.24l9.78-.11c2.85,0,6.27.46,9-.11,3.27-.68.53-8.25-.16-10.2a.62.62,0,0,0-.59-.45l-20.17-1v1.23l18,0a.62.62,0,0,0,.17-1.21c-.78-.24-4.84-.26-4.47-1.49H50.26A91.7,91.7,0,0,1,51,162.5l.61-.62c-1.34.09-2.26.39-3.05-1.22a8.47,8.47,0,0,1-.24-2.42l-.54-5.32-1.07-10.64c-.08-.78-1.31-.79-1.24,0l1.09,12.49.49,5.76a11.73,11.73,0,0,1,.25,2.89c.37.92,0,1.48-1.06,1.7a8,8,0,0,1-2.13-.31L43.73,166a13.72,13.72,0,0,0,16-8.56c.28-.71-.74-1-1.12-.48a8.81,8.81,0,0,1-3,2.58l.75,1a13.11,13.11,0,0,0,4-11.35l-1.21.17c1,2.61.2,5.1-.68,7.61-.27.76.9,1.05,1.19.33,1.42-3.64.16-7.23-1.26-10.66-.3-.71-1.4-.47-1.19.33a15.91,15.91,0,0,1-.73,10.43c-.29.7.75,1,1.13.47a10.57,10.57,0,0,0-3.82-16c-.52-.26-1.19.28-.84.84,4,6.42,5.44,17.71-3.59,20.83a7.36,7.36,0,0,1-2.68.5c-1.35-.12-1.46-.47-1.84-1.68-.61-2-.57-4.49-.77-6.54q-.6-6.26-.71-12.53a.62.62,0,0,0-1.23,0Z"/><path class="adde24ff-4011-4dc2-adee-045c3ea8769f" d="M255.25,143.24c-.08,4-.29,8-.67,12-.2,2.15-.15,5-.82,7-.36,1.11-.44,1.56-1.84,1.68a7,7,0,0,1-2.67-.5c-9-3.15-7.62-14.38-3.59-20.83.34-.56-.32-1.1-.85-.84a10.57,10.57,0,0,0-3.81,16c.38.5,1.42.23,1.13-.47a15.91,15.91,0,0,1-.73-10.43c.21-.79-.9-1-1.19-.33-1.42,3.43-2.69,7-1.26,10.66.28.72,1.45.43,1.19-.33-.88-2.51-1.66-5-.68-7.61l-1.21-.17a13.11,13.11,0,0,0,4,11.35l.75-1a8.81,8.81,0,0,1-3-2.58c-.37-.5-1.4-.23-1.12.48a13.72,13.72,0,0,0,16,8.56l-.33-1.19c-1.37.32-2.84.71-3.24-.91a10.47,10.47,0,0,1,.25-2.88l.54-6.25,1.08-12.49c.07-.79-1.15-.78-1.23,0l-1.07,10.64-.49,4.83a12.72,12.72,0,0,1-.3,2.91c-.6,1.36-1.83,1.31-3,1.22l.62.62a91.7,91.7,0,0,1,.69-18.22h-1.19c.3,1-3.65,1.23-4.47,1.49a.62.62,0,0,0,.16,1.21l18,0v-1.23l-20.17,1a.64.64,0,0,0-.6.45c-.68,2-3.42,9.52-.16,10.2,2.78.57,6.21.08,9.05.11l9.79.11v-1.24l-3.88.13.6.78a20.64,20.64,0,0,1,1.08-3.69c.93-1.78,2.42-1.69,4.19-1.79.78,0,.79-1.26,0-1.23l-15.85.56c-.79,0-.8,1.27,0,1.24l15.85-.57v-1.23c-1.23.07-3.6-.26-4.59.64-1.16,1.07-1.44,4.29-1.87,5.75a.63.63,0,0,0,.59.78l3.88-.13a.62.62,0,0,0,0-1.24l-11.74-.12c-1.86,0-4.06.31-5.88-.06-.76.3-1.15.1-1.17-.61a2,2,0,0,1-.14-1.46,16.53,16.53,0,0,1,.47-3.27c.52-2.45.73-2.89,3.26-3l5.76-.28,11.53-.57a.62.62,0,0,0,0-1.23l-18,0,.17,1.21c1.65-.52,6.32.34,5.33-3-.16-.53-1.1-.64-1.19,0a92.8,92.8,0,0,0-.73,18.55.63.63,0,0,0,.61.62c1,.06,3,.44,3.81-.43s.65-3.71.77-4.94l1.56-15.47H252l-1.58,18.25c-.12,1.34-1,4.23.08,5.36,1,1,3.29.37,4.43.11.77-.19.44-1.36-.33-1.19a12.47,12.47,0,0,1-14.48-7.7l-1.12.47a10.54,10.54,0,0,0,3.41,3,.62.62,0,0,0,.75-1,12,12,0,0,1-3.68-10.48c.09-.73-1-.76-1.21-.16-1.05,2.81-.27,5.54.68,8.27l1.19-.33c-1.34-3.42-.07-6.8,1.26-10l-1.19-.33a17,17,0,0,0,.73,11.08l1.12-.47a9.39,9.39,0,0,1,3.38-14.34l-.85-.84c-3,4.84-4.68,10.8-2.33,16.28a10.82,10.82,0,0,0,12,6.66.6.6,0,0,0,.43-.43,165.27,165.27,0,0,0,1.81-21.31.62.62,0,0,0-1.23,0Z"/><path class="a5aec3c5-824c-459b-83ad-18e53063080a" d="M22.36,133.48H70a0,0,0,0,1,0,0v38.22a0,0,0,0,1,0,0H22.56a1.33,1.33,0,0,1-1.33-1.33V134.61A1.13,1.13,0,0,1,22.36,133.48Z"/><path class="a5aec3c5-824c-459b-83ad-18e53063080a" d="M231.91,133.47h47.42a0,0,0,0,1,0,0v38.22a0,0,0,0,1,0,0H231.7a1.13,1.13,0,0,1-1.13-1.13V134.8A1.33,1.33,0,0,1,231.91,133.47Z" transform="translate(509.9 305.16) rotate(-180)"/><path class="f081e2e0-7840-4fc9-850d-31070cd2b4d0" d="M21.23,126.61l15.29-11,30.67,9.55S26.87,124.17,21.23,126.61Z"/><path class="f081e2e0-7840-4fc9-850d-31070cd2b4d0" d="M280.75,126.61l-15.29-11-30.67,9.55S275.11,124.17,280.75,126.61Z"/><polygon class="f081e2e0-7840-4fc9-850d-31070cd2b4d0" points="36.52 115.63 37 106.68 73.3 121.68 73.3 125.18 67.19 125.18 36.52 115.63"/><polygon class="f081e2e0-7840-4fc9-850d-31070cd2b4d0" points="263.56 115.63 263.08 106.68 226.78 121.68 226.78 125.18 232.89 125.18 263.56 115.63"/><rect class="f081e2e0-7840-4fc9-850d-31070cd2b4d0" x="73.3" y="121.7" width="153.48" height="3.49"/><polygon class="f081e2e0-7840-4fc9-850d-31070cd2b4d0" points="53.96 101.6 245.17 101.6 263.08 106.68 226.78 121.7 73.3 121.7 37 106.68 53.96 101.6"/><path class="f081e2e0-7840-4fc9-850d-31070cd2b4d0" d="M263.39,106.68s1.14.2.9-4.32-12.63-74.64-12.63-74.64-1.27-5.14-6.49-5.14H58.9s-9.33-1.23-10.21,5.29c-.79,5.79-10.31,63.58-12.41,76.33a1.6,1.6,0,0,0,2,1.79L54,101.6H245.17Z"/><path class="f081e2e0-7840-4fc9-850d-31070cd2b4d0" d="M25.08,81.31S9,79.45,8.92,87.21s0,13.86,0,13.86-.22,3.06,4.37,2.84,23,.29,23,.29l3.46-21S39.93,80,25.08,81.31Z"/><path class="f081e2e0-7840-4fc9-850d-31070cd2b4d0" d="M275.65,80.38s16-1.27,16.07,6.49,0,13.86,0,13.86.22,3.06-4.36,2.84-23,.29-23,.29l-3.46-21S260.9,80.64,275.65,80.38Z"/><path class="e27104ec-04e8-4404-80a5-070c8a87a92a" d="M148.65,89.72H59.3s-6.08-.15-5.35-3.45,8.1-46.81,8.1-46.81.43-4.8,6.51-5,80.09,0,80.09,0h.93s74-.15,80.09,0,6.51,5,6.51,5,7.38,43.51,8.1,46.81-5.35,3.45-5.35,3.45H148.65Z"/><polyline class="ac22133e-553b-42bd-8fcd-f619d421481f" points="25.67 203.1 46.96 222.83 66.41 207.01 59.77 203.1 33.45 222.83 23.35 212.96 36.3 203.1 59.62 222.83 66.42 216.04 50.9 203.1 46.95 203.1 23.62 222.83"/><polyline class="fa93a3bf-b62d-48d6-9f55-5662ddadd0c3" points="237.1 203.1 258.4 222.83 277.85 207.01 271.21 203.1 244.88 222.83 234.79 212.96 247.74 203.1 271.06 222.83 277.86 216.04 262.33 203.1 258.39 203.1 235.06 222.83"/><path class="f081e2e0-7840-4fc9-850d-31070cd2b4d0" d="M153.85,133.86c-.56-.05-1.12-.09-1.69-.09a20.24,20.24,0,0,0-16.4,32.13,19.89,19.89,0,0,0,2.7,3,20.13,20.13,0,0,0,11.36,5.23,22.61,22.61,0,0,0,2.34.14c.57,0,1.13,0,1.69-.08a20.24,20.24,0,0,0,0-40.35Zm-16.6,20.46a14.57,14.57,0,0,1,12.57-14.42v11.19l-.65.68L139.46,162A14.45,14.45,0,0,1,137.25,154.32Zm12.57,14.43a14.48,14.48,0,0,1-7.76-3.63l7.76-8.16Zm4,0V156.46l8.24,8.23A14.54,14.54,0,0,1,153.85,168.75Zm10.7-7.3-9.74-9.75-1-.95V139.9a14.55,14.55,0,0,1,10.7,21.55Z"/></svg>