<svg id="abe26193-ab73-4f1b-bbd3-ac04791cad3a" data-name="Layer 1" xmlns="http://www.w3.org/2000/svg" viewBox="0 0 300 300"><defs><style>.b641bebb-bf11-459b-80b5-d77d3afc60b0{fill:#00877a;}.bac4088b-3864-47ea-96ba-0b24e18da1be{fill:#002b26;}.aac708ca-50f4-4e5f-a356-e436c774de89{fill:#024c43;}.e1c95fd8-c1c0-4b77-b556-a61ec3905f74{fill:none;}.a0984d24-1837-4908-a741-16a6060ddece{fill:#611f45;}.b29240c7-ad63-458f-8857-7024c6e53685{fill:#00a99d;}.b034aa6e-78db-46c6-87b2-974d0933b12d{fill:#c1272d;}.f81c6fca-a776-4a14-a15f-31b6896689e8{fill:#8c1f28;}</style></defs><title>BB</title><path class="b641bebb-bf11-459b-80b5-d77d3afc60b0" d="M240,60.37s2.55,9.49-8.36,6.23c0,0-1.13,12-14.44,4.82,0,0,1.42,11.32-7.65,6.23,0,0-1.55,12-11.61,3.68,0,0,2.47,12-7,12.13s-9-6.4-9-6.4-4.28,13.37-15.76,3c0,0-1.75,7.12-7.85,3.13,0,0-1.6,7.48-9.66,7.41s-11.05-6.9-11.56-8.21c0,0-2.1,3-5.45,2.4s-5.44-3.49-5.59-4.94c0,0-2.4,4.14-6.54,3.7-8.5-1.09-12-5.81-9.66-13.37,0,0-10.1,4-9.16-4.5,0,0-10.61,8.21-13.8-7.27,0,0-6.62,4.43-8-4.79,0,0-11.91,5.52-12.35-7.49,0,0-8.43,1.38-9.15-5s7.7-8,15.62-4.65c0,0,4.29-4.65,10.17-4.22,4.92.37,7.44,2,8.15,2.58l.55,1s-.67-2.17,7.75.63l.09,0,3.77,2.7,1.22,2c1.17,1.31,1.68,4.21,1.68,4.21a10.74,10.74,0,0,1,5.83-1.17L115,55.47s2.42-2,3.74,3.32h0c.69,3.1,1.32,5.27,1.32,5.27a10.3,10.3,0,0,1,1.28-2.62l.09-.13,0,0L124,62.81c8.33-2,12.59,5.8,12.59,5.8,2.62-2.85,4-2.39,4-2.39l2.59-.34c6.28.6,6.43,3.48,6.43,3.48,3-5.79,8.1-5.19,10.62-4.47l1.48.54,1.43-2.57,1.67-2.13a8,8,0,0,1,6.69-1.24A7.47,7.47,0,0,1,173,53.37l1.79-2,3.95-1.85a11.65,11.65,0,0,1,3.67-.42,16.5,16.5,0,0,1,12.44,7.22l2.05-1.87,2.17-1.76c.66-.67,3.62-1.58,3.62-1.58l2,0c7.61.18,9,4.26,9,4.26-.18-5.18,4.68-8.57,4.68-8.57L221,44.33l0,0s1.68.22,0,0c.32-.39,3.79-4.55,6.62-2.79s4,2.69,4,5.66c0,0,12.75-3.4,14.73,5.53S240,60.37,240,60.37Z"/><path class="bac4088b-3864-47ea-96ba-0b24e18da1be" d="M28.78,104.2s-2.65-9.46,8.29-6.31c0,0,1-12,14.39-5,0,0-1.53-11.31,7.58-6.31,0,0,1.44-12,11.58-3.8,0,0-2.6-12,6.92-12.2s9.07,6.3,9.07,6.3,4.15-13.41,15.74-3.22c0,0,1.67-7.14,7.81-3.2,0,0,1.52-7.5,9.59-7.51s11.11,6.78,11.64,8.08c0,0,2.07-3.07,5.42-2.45s5.49,3.43,5.65,4.88c0,0,2.35-4.16,6.5-3.77,8.51,1,12,5.69,9.8,13.27,0,0,10.06-4.1,9.2,4.41,0,0,10.52-8.32,13.88,7.12,0,0,6.57-4.5,8,4.71,0,0,11.86-5.65,12.43,7.35,0,0,8.42-1.46,9.21,4.92s-7.62,8.07-15.57,4.82c0,0-4.24,4.69-10.13,4.32-4.92-.32-7.46-2-8.18-2.5l-.55-1s.68,2.17-7.77-.54l-.09,0-3.8-2.66-1.23-2c-1.19-1.3-1.73-4.2-1.73-4.2a10.64,10.64,0,0,1-5.82,1.23l-2.88-1.13s-2.39,2-3.77-3.29h0c-.72-3.09-1.37-5.26-1.37-5.26a10.2,10.2,0,0,1-1.26,2.63.75.75,0,0,0-.08.14l0,0-2.55-1.51c-8.3,2.09-12.64-5.67-12.64-5.67-2.59,2.88-4,2.43-4,2.43l-2.58.37c-6.29-.54-6.47-3.41-6.47-3.41-2.89,5.81-8,5.27-10.57,4.57L107,98.33l-1.41,2.58-1.65,2.15a7.92,7.92,0,0,1-6.67,1.31,7.48,7.48,0,0,1-1.45,6.13l-1.77,2-3.93,1.89a11.55,11.55,0,0,1-3.67.47,16.51,16.51,0,0,1-12.51-7.1l-2,1.9-2.15,1.78c-.66.67-3.61,1.61-3.61,1.61h-2c-7.62-.1-9.08-4.17-9.08-4.17.24,5.18-4.59,8.62-4.59,8.62L47.89,120l0,0s-1.67-.2,0,0c-.32.4-3.74,4.59-6.59,2.87s-4-2.65-4-5.63c0,0-12.7,3.53-14.78-5.36S28.78,104.2,28.78,104.2Z"/><path class="aac708ca-50f4-4e5f-a356-e436c774de89" d="M289.84,110.69s-1,9.76-10,2.78c0,0-5.41,10.81-15.21-.73,0,0-2.77,11.07-9.38,3,0,0-5.81,10.66-12.16-.77,0,0-2,12.06-11,8.76s-6.09-9.22-6.09-9.22-8.83,10.91-15.8-2.86c0,0-4.2,6-8.45.07,0,0-4.2,6.4-11.69,3.41s-7.8-10.43-7.8-11.83c0,0-3.07,2.08-6,.26s-3.81-5.22-3.42-6.63c0,0-3.74,3-7.44,1.09-7.53-4.09-9.08-9.76-4.17-16,0,0-10.86.07-6.91-7.51,0,0-12.86,3.81-10.24-11.77,0,0-7.77,1.74-5.72-7.36,0,0-13.1.83-8.8-11.45,0,0-8.36-1.76-6.72-8s10.07-4.67,16.24,1.31c0,0,5.68-2.78,11-.25,4.45,2.12,6.2,4.59,6.66,5.35l.13,1.18s.17-2.27,7,3.39l.07.06L166.56,51l.42,2.27c.62,1.64.05,4.53.05,4.53a10.73,10.73,0,0,1,5.85,1l2.26,2.12s3-.95,2.27,4.45h0c-.47,3.14-.68,5.39-.68,5.39a10.13,10.13,0,0,1,2.15-2l.13-.1,0,0,1.8,2.35c8.49,1.13,9.63,10,9.63,10,3.48-1.72,4.62-.77,4.62-.77l2.54.61c5.63,2.84,4.73,5.57,4.73,5.57,4.85-4.33,9.43-1.9,11.52-.32l1.18,1,2.27-1.87,2.33-1.38a7.93,7.93,0,0,1,6.68,1.26A7.45,7.45,0,0,1,230,80l2.37-1.19,4.35-.29a11.79,11.79,0,0,1,3.58.93,16.5,16.5,0,0,1,9,11.24l2.59-1,2.66-.86c.86-.38,3.94-.15,3.94-.15l1.85.75c7,2.92,6.87,7.24,6.87,7.24,1.71-4.9,7.47-6.3,7.47-6.3L278,88.88l-.05,0s1.48.81.05,0c.44-.25,5.18-2.87,7.18-.21s2.73,4,1.65,6.72c0,0,13.11,1.44,11.73,10.48S289.84,110.69,289.84,110.69Z"/><path class="e1c95fd8-c1c0-4b77-b556-a61ec3905f74" d="M134,121.54a10.88,10.88,0,0,0,5.09,7.19c4.37,2.51,13.36,13.18,13.36,13.18l16.29-16.06s1.08-4.55-2.28-19.4,1.32-29.12,1.32-29.12-24.2,20.13-38.21,23.49Z"/><path class="e1c95fd8-c1c0-4b77-b556-a61ec3905f74" d="M78.08,102.9l-5-4.07c-1.38,2.09-3.9,3.45-6,4.28l0,0-.11,0a23.29,23.29,0,0,1-3.15,1A75.89,75.89,0,0,0,78.08,102.9Z"/><path class="e1c95fd8-c1c0-4b77-b556-a61ec3905f74" d="M67.14,103.11l-.14,0,.11,0Z"/><path class="e1c95fd8-c1c0-4b77-b556-a61ec3905f74" d="M101.71,79.85l0-.07a.28.28,0,0,1,0,.07Z"/><path class="a0984d24-1837-4908-a741-16a6060ddece" d="M259.36,106.62l.05.07C262,106.28,259.36,106.62,259.36,106.62Z"/><path class="a0984d24-1837-4908-a741-16a6060ddece" d="M163.13,74.11a17,17,0,0,0,2.34-.84Z"/><path class="a0984d24-1837-4908-a741-16a6060ddece" d="M101.53,79.56l.13.22A1.51,1.51,0,0,0,101.53,79.56Z"/><path class="a0984d24-1837-4908-a741-16a6060ddece" d="M86.94,90.89a8.18,8.18,0,0,0,4.55-1.84Z"/><path class="a0984d24-1837-4908-a741-16a6060ddece" d="M186.21,95.47a19.72,19.72,0,0,0,6.27,2.93Z"/><path class="b29240c7-ad63-458f-8857-7024c6e53685" d="M289.42,81.28s4-15-13.23-9.87c0,0-1.8-19.07-22.88-7.63,0,0,2.24-18-12.12-9.87,0,0-2.46-19.07-18.39-5.83,0,0,3.91-19-11.17-19.22S197.36,39,197.36,39s-6.79-21.18-25-4.83c0,0-2.76-11.28-12.43-4.95,0,0-2.53-11.86-15.31-11.74s-17.49,10.93-18.3,13c0,0-3.34-4.84-8.63-3.8s-8.64,5.52-8.87,7.82c0,0-3.79-6.56-10.35-5.87-13.47,1.73-19,9.21-15.31,21.18,0,0-16-6.33-14.51,7.14,0,0-16.8-13-21.87,11.51,0,0-10.47-7-12.66,7.6,0,0-18.88-8.75-19.57,11.85,0,0-13.35-2.18-14.5,8s12.2,12.66,24.75,7.36c0,0,6.79,7.37,16.11,6.68,7.79-.58,11.79-3.22,12.91-4.08l.87-1.66s-1.05,3.44,12.29-1l.14,0,6-4.28L75,95.71c1.85-2.07,2.67-6.66,2.67-6.66a16.9,16.9,0,0,0,9.23,1.84l4.55-1.84s3.82,3.1,5.91-5.27v0c1.1-4.9,2.09-8.35,2.09-8.35a15.94,15.94,0,0,0,2,4.15,1.51,1.51,0,0,1,.13.22l0,.07,4-2.44c13.18,3.19,19.93-9.19,19.93-9.19C129.8,72.74,132,72,132,72l4.11.55c9.94-1,10.18-5.51,10.18-5.51,4.67,9.17,12.83,8.21,16.82,7.07l2.34-.84,2.28,4.06,2.64,3.38c5.79,3.74,10.6,2,10.6,2a11.85,11.85,0,0,0,2.4,9.69l2.82,3.11,6.27,2.93a18.42,18.42,0,0,0,5.81.67c7.06-.35,15.46-4.67,19.7-11.44l3.25,3,3.43,2.79c1.06,1,5.75,2.49,5.75,2.49l3.15,0c12.05-.29,14.3-6.76,14.3-6.76-.29,8.21,7.41,13.59,7.41,13.59l4.13,4-.05-.07s2.66-.34.05.07c.51.62,6,7.2,10.5,4.42,4.71-2.92,6.28-4.26,6.28-9,0,0,20.19,5.38,23.33-8.75S289.42,81.28,289.42,81.28Z"/><path class="a0984d24-1837-4908-a741-16a6060ddece" d="M231.46,112.46l2.11-16.63-3.15,0a117.5,117.5,0,0,0-5.36,14.74c-2.87,9.48-3.64,8.23-10.25,14.93s-8,15-18.57,14.56-25.85,6-30.16,8.52-3.35-1.34-3.35-1.34L175.85,127s19.05-6.61,28-10.34,20.87-23.26,20.87-23.26l-3.43-2.79-14.41,18s-2.26,5.65-30.43,13.28c0,0-2.41,1.27-3.61-4.1s-2.4-12.42-2.4-12.42l15.82-9.89-2.82-3.11L170,102l.35-21.33-2.64-3.38s-4.67,14.27-1.32,29.12,2.28,19.4,2.28,19.4l-16.29,16.06s-9-10.67-13.36-13.18a10.88,10.88,0,0,1-5.09-7.19l-4.43-20.72c14-3.36,38.21-23.49,38.21-23.49l-2.28-4.06S149.42,86,146.07,87.52s-9.94-15-9.94-15L132,72l7,15.56c-.45,10.82-14.45,9.64-15.12,9.41s-18.22-19.56-18.22-19.56l-4,2.44c5.28,8.18,17.88,20.76,20.46,24.31,3.11,4.3,7.33,20.68,7.48,22.6s15.86,18.67,17.12,21-3.86,1.19-3.86,1.19-.37-.52-17.93-11.41-30.45-33.35-30.45-33.35a110.1,110.1,0,0,1,2.87-20.4v0c-2.09,8.37-5.91,5.27-5.91,5.27l-.74,12.44c-1.71,1-8.6.6-8.6.6L75,95.71l-1.93,3.12,5,4.07a75.89,75.89,0,0,1-14.23,1.26,23.29,23.29,0,0,0,3.15-1c-13.34,4.44-12.29,1-12.29,1l-.87,1.66.37-.3s.91,3.11,6.6,2.81,30.27-2.81,30.27-2.81l13.84,20.4s8.66,12.45,30.94,24.13c8.81,6,11.63,22.17,11.63,31.5s-4.43,38.81-3.88,46.76,5.36,14.78,5.45,17.74,2,48.46-15.7,53.8h38.85s-16.51-5.59-13.35-24.52,6.31-16,4.85-25.26-8.25-9.71-9-17-1.21-59.25,2.43-63.86,18.28-21.43,23.41-22.33,20.42,0,24.52-2.44,16-21.95,22.47-24.39,15.08-10.89,26-12.5l5.83-.87-4.13-4C245.33,104.69,231.46,112.46,231.46,112.46Z"/><path class="a0984d24-1837-4908-a741-16a6060ddece" d="M73.11,98.83l-6,4.28C69.21,102.28,71.73,100.92,73.11,98.83Z"/><circle class="b034aa6e-78db-46c6-87b2-974d0933b12d" cx="221.99" cy="62.45" r="2.54"/><circle class="b034aa6e-78db-46c6-87b2-974d0933b12d" cx="243.05" cy="66.08" r="2.54"/><circle class="b034aa6e-78db-46c6-87b2-974d0933b12d" cx="243.05" cy="81.38" r="2.54"/><circle class="b034aa6e-78db-46c6-87b2-974d0933b12d" cx="265.04" cy="94.9" r="2.54"/><circle class="b034aa6e-78db-46c6-87b2-974d0933b12d" cx="281.8" cy="89.31" r="2.54"/><circle class="b034aa6e-78db-46c6-87b2-974d0933b12d" cx="266.77" cy="74.11" r="2.54"/><circle class="b034aa6e-78db-46c6-87b2-974d0933b12d" cx="171.42" cy="42.2" r="2.54"/><circle class="b034aa6e-78db-46c6-87b2-974d0933b12d" cx="144.81" cy="30.92" r="2.54"/><circle class="b034aa6e-78db-46c6-87b2-974d0933b12d" cx="158.52" cy="58.39" r="2.54"/><circle class="b034aa6e-78db-46c6-87b2-974d0933b12d" cx="123.44" cy="60.49" r="2.54"/><circle class="b034aa6e-78db-46c6-87b2-974d0933b12d" cx="101.53" cy="64.63" r="2.54"/><circle class="b034aa6e-78db-46c6-87b2-974d0933b12d" cx="76.01" cy="65.08" r="2.54"/><circle class="b034aa6e-78db-46c6-87b2-974d0933b12d" cx="52.42" cy="73.66" r="2.54"/><circle class="b034aa6e-78db-46c6-87b2-974d0933b12d" cx="86.94" cy="78.19" r="2.54"/><circle class="b034aa6e-78db-46c6-87b2-974d0933b12d" cx="47.34" cy="98.4" r="2.54"/><circle class="b034aa6e-78db-46c6-87b2-974d0933b12d" cx="63.85" cy="85.22" r="2.54"/><circle class="b034aa6e-78db-46c6-87b2-974d0933b12d" cx="38.52" cy="86.5" r="2.54"/><circle class="b034aa6e-78db-46c6-87b2-974d0933b12d" cx="16.5" cy="97.19" r="2.54"/><circle class="b034aa6e-78db-46c6-87b2-974d0933b12d" cx="143.03" cy="41.01" r="2.54"/><circle class="b034aa6e-78db-46c6-87b2-974d0933b12d" cx="114.32" cy="41.01" r="2.54"/><circle class="b034aa6e-78db-46c6-87b2-974d0933b12d" cx="92.68" cy="52.02" r="2.54"/><circle class="b034aa6e-78db-46c6-87b2-974d0933b12d" cx="192.43" cy="50.7" r="2.54"/><circle class="b034aa6e-78db-46c6-87b2-974d0933b12d" cx="181.82" cy="67.13" r="2.54"/><circle class="b034aa6e-78db-46c6-87b2-974d0933b12d" cx="204" cy="65.51" r="2.54"/><circle class="b034aa6e-78db-46c6-87b2-974d0933b12d" cx="210.75" cy="43.05" r="2.54"/><circle class="b034aa6e-78db-46c6-87b2-974d0933b12d" cx="197.16" cy="87.77" r="2.54"/><circle class="f81c6fca-a776-4a14-a15f-31b6896689e8" cx="197.16" cy="106.59" r="2.54"/><circle class="f81c6fca-a776-4a14-a15f-31b6896689e8" cx="175.85" cy="89.31" r="2.54"/><circle class="f81c6fca-a776-4a14-a15f-31b6896689e8" cx="220.58" cy="107.93" r="2.54"/><circle class="f81c6fca-a776-4a14-a15f-31b6896689e8" cx="240.51" cy="100.65" r="2.54"/><circle class="f81c6fca-a776-4a14-a15f-31b6896689e8" cx="282.27" cy="107.93" r="2.54"/><circle class="b034aa6e-78db-46c6-87b2-974d0933b12d" cx="223.13" cy="86.39" r="2.54"/></svg>