<svg id="ac75ca48-27de-4f95-9856-72b7c3ea6731" data-name="Layer 1" xmlns="http://www.w3.org/2000/svg" viewBox="0 0 300 300"><defs><style>.e42343c3-753a-4bdf-bb26-7a24d643fc84,.ebd6843e-f067-4793-933d-58b038931564{fill:#611f45;}.a16c691d-7fd4-4518-b19b-048de6299424,.a7251136-3bfd-4170-9f60-f0cc0188de64,.a8e83a00-2cbf-4939-9942-2103102d4a85,.a8f4e597-4be3-4e65-8dc5-6be414845e87,.ac3407dd-889d-438b-9546-b49f8325efea,.ae31f3e8-a8f1-43bd-868d-e1781db96eb5,.b3231c9a-c396-4363-a702-c25df15ebfeb,.b8f45319-eca9-47eb-8e58-11c9ab74e11a,.bb1ff2ef-0c0a-4bd8-8746-7baba58b3b14,.bc13c130-4e68-4fb2-9db1-e36948cd181e,.e22d4e99-58b7-4ab8-b3ff-239706130355,.e42343c3-753a-4bdf-bb26-7a24d643fc84,.e8a042b0-4a71-49a6-bd05-29dc94768356,.ec30a36a-e390-4632-a6e1-d0165450a3fa{stroke:#611f45;}.a04d5cc3-3338-4b68-b48d-2594c174cfa5,.a16c691d-7fd4-4518-b19b-048de6299424,.a7251136-3bfd-4170-9f60-f0cc0188de64,.a8e83a00-2cbf-4939-9942-2103102d4a85,.a8f4e597-4be3-4e65-8dc5-6be414845e87,.ac3407dd-889d-438b-9546-b49f8325efea,.ae31f3e8-a8f1-43bd-868d-e1781db96eb5,.b1dde208-2624-46e0-84ec-8b8794898d88,.b266f98c-2559-4d07-9542-e03244747642,.b3231c9a-c396-4363-a702-c25df15ebfeb,.b8f45319-eca9-47eb-8e58-11c9ab74e11a,.bb1ff2ef-0c0a-4bd8-8746-7baba58b3b14,.bc13c130-4e68-4fb2-9db1-e36948cd181e,.e22d4e99-58b7-4ab8-b3ff-239706130355,.e42343c3-753a-4bdf-bb26-7a24d643fc84,.e8a042b0-4a71-49a6-bd05-29dc94768356,.ebe57ac2-e8d2-42b0-970a-d7095ba29e11,.ec30a36a-e390-4632-a6e1-d0165450a3fa{stroke-miterlimit:10;}.a04d5cc3-3338-4b68-b48d-2594c174cfa5,.a8f4e597-4be3-4e65-8dc5-6be414845e87,.b1dde208-2624-46e0-84ec-8b8794898d88,.b266f98c-2559-4d07-9542-e03244747642,.b3231c9a-c396-4363-a702-c25df15ebfeb,.b8f45319-eca9-47eb-8e58-11c9ab74e11a,.bc13c130-4e68-4fb2-9db1-e36948cd181e,.e42343c3-753a-4bdf-bb26-7a24d643fc84,.e8a042b0-4a71-49a6-bd05-29dc94768356{stroke-width:1.5px;}.a30bf8af-fc50-4a27-939d-7d0bfd8b4bf4{fill:#804f6c;}.a04d5cc3-3338-4b68-b48d-2594c174cfa5,.ac3407dd-889d-438b-9546-b49f8325efea,.b1dde208-2624-46e0-84ec-8b8794898d88,.b266f98c-2559-4d07-9542-e03244747642,.b3231c9a-c396-4363-a702-c25df15ebfeb,.bb1ff2ef-0c0a-4bd8-8746-7baba58b3b14,.ebe57ac2-e8d2-42b0-970a-d7095ba29e11{fill:none;}.a04d5cc3-3338-4b68-b48d-2594c174cfa5{stroke:#804f6c;}.bc13c130-4e68-4fb2-9db1-e36948cd181e{fill:#824946;}.e8a042b0-4a71-49a6-bd05-29dc94768356{fill:lime;}.a547d969-deee-425c-a260-6771bb185afa{fill:#39b54a;}.ac3fa81c-a1e7-40ef-8c3a-06283e403ea5,.e22d4e99-58b7-4ab8-b3ff-239706130355{fill:#fff22a;}.a7251136-3bfd-4170-9f60-f0cc0188de64,.b8f45319-eca9-47eb-8e58-11c9ab74e11a{fill:#9d5650;}.a8f4e597-4be3-4e65-8dc5-6be414845e87,.e35a78df-a274-4d14-af5b-07c764e4a47c{fill:#fff;}.a16c691d-7fd4-4518-b19b-048de6299424,.a7251136-3bfd-4170-9f60-f0cc0188de64,.ae31f3e8-a8f1-43bd-868d-e1781db96eb5,.e22d4e99-58b7-4ab8-b3ff-239706130355,.ebe57ac2-e8d2-42b0-970a-d7095ba29e11,.ec30a36a-e390-4632-a6e1-d0165450a3fa{stroke-width:0.75px;}.b1dde208-2624-46e0-84ec-8b8794898d88{stroke:#fff22a;}.ab676ae5-882d-4983-83e4-a407f27478df{opacity:0.46;}.a8e83a00-2cbf-4939-9942-2103102d4a85,.ac3407dd-889d-438b-9546-b49f8325efea{stroke-width:0.74px;}.ebe57ac2-e8d2-42b0-970a-d7095ba29e11{stroke:#f7931e;}.ec30a36a-e390-4632-a6e1-d0165450a3fa{fill:#b06d75;}.ae31f3e8-a8f1-43bd-868d-e1781db96eb5{fill:#cc7685;}.bb1ff2ef-0c0a-4bd8-8746-7baba58b3b14{stroke-width:0.84px;}.a16c691d-7fd4-4518-b19b-048de6299424{fill:#fcfcfc;}.bb3e04a4-c201-4a79-9469-beb85ad6ab3b{fill:#f7931e;}.a8e83a00-2cbf-4939-9942-2103102d4a85{fill:#e6e6e6;}.e92138c1-352c-4cac-bee6-7d120191044e{fill:#477333;}.b266f98c-2559-4d07-9542-e03244747642{stroke:#8e5454;}</style></defs><title>BB</title><path class="e42343c3-753a-4bdf-bb26-7a24d643fc84" d="M200.84,283.92s4.43-.59,2.95,9.73-33.31,7.81-38.16-5.68c-4.75-13.21-5.1-12.23-5.1-12.23a3,3,0,0,1-3.77.63c-2.31-1.19-9.44-8.25-8-11.67s5.24-7.83,6.5-6.08c0,0,13-15.94,16.35-14.12l2.34.18s.79,9.42,12.68,14.16l-.06,12.7S199.84,270.91,200.84,283.92Z"/><path class="a30bf8af-fc50-4a27-939d-7d0bfd8b4bf4" d="M200.92,287c-1.58,3.31-5.82,5-9.15,5.6a37.15,37.15,0,0,1-11.09-.12c-2.53-.33-5.19-.87-7.19-2.56-4.19-3.52-5.82-10.29-8-15.1-2.49-5.62-6.31-9.91-10.53-14.32-.67-.7-1.73.37-1.06,1.06,3.78,4,7.44,7.86,9.77,12.85,2.18,4.68,3.69,9.91,6.64,14.19,2.19,3.17,5.3,4.61,9,5.2,5.42.85,11.49,1.28,16.66-.89,2.36-1,5-2.74,6.17-5.15.42-.87-.87-1.63-1.29-.76Z"/><path class="a04d5cc3-3338-4b68-b48d-2594c174cfa5" d="M173.35,286.43s15,7.78,24.62-1.63c0,0-.39-11-13.26-11,0,0-6.4-.12-9.53,3.56"/><path class="a04d5cc3-3338-4b68-b48d-2594c174cfa5" d="M184.19,267s-6.92,1.57-10.84,6"/><path class="a04d5cc3-3338-4b68-b48d-2594c174cfa5" d="M172.89,266.38a19.16,19.16,0,0,1,11.3,5.8"/><path class="a04d5cc3-3338-4b68-b48d-2594c174cfa5" d="M184.19,261.06s-3.13-.49-11.3,3.75"/><path class="a04d5cc3-3338-4b68-b48d-2594c174cfa5" d="M174.52,259.32s6.73,2.68,9.28,6.6"/><path class="a04d5cc3-3338-4b68-b48d-2594c174cfa5" d="M176.34,253.32s-4-4.71-4.36-6.41c0,0-5,.72-14.24,13.33"/><path class="e42343c3-753a-4bdf-bb26-7a24d643fc84" d="M84.34,283.74s-4.42-.59-3,9.73,33.31,7.81,38.17-5.68c4.75-13.21,5.1-12.23,5.1-12.23a3,3,0,0,0,3.77.63c2.31-1.19,9.44-8.25,8-11.67s-5.24-7.83-6.5-6.08c0,0-13-15.94-16.35-14.12l-2.34.18s-.8,9.42-12.68,14.16l.06,12.7S85.35,270.73,84.34,283.74Z"/><circle class="bc13c130-4e68-4fb2-9db1-e36948cd181e" cx="144" cy="183.05" r="31.86"/><path class="e8a042b0-4a71-49a6-bd05-29dc94768356" d="M94.65,191.2S38,193.84,55.72,221.58s36.57,38.68,36.57,38.68,15.63-1.37,18.92-15.76L83,211.37l16.5,18.32s43.79,5.07,45.32-4c0,0,1.45,5.83,16.49,5.15a196.79,196.79,0,0,0,24.92-2.54l14.28-17s-24.81,28.78-24.63,36.35a22.33,22.33,0,0,0,15.53,13.16s41.1-38.06,40.62-47.43-8.18-15.7-18.91-19.07-18.41-1.48-18.41-1.48-35.79,17.27-48.83,15.2-27.71-7.33-49.27-16.87"/><path class="a547d969-deee-425c-a260-6771bb185afa" d="M95.1,223.68s35.74,5.49,42.26,1.74A69.74,69.74,0,0,0,146,219s-3.59,5.91,42.15,4.92l1,.09L186,227.72s-37.38,6.92-40.66-3c-5.73,1.13,9.73,7.81-46.08,4.36Z"/><path class="ac3fa81c-a1e7-40ef-8c3a-06283e403ea5" d="M210.11,196.48c8.15,2.76,17.13,8.84,19.21,17.63.22.93,1.67.54,1.45-.4-2.21-9.32-11.63-15.75-20.26-18.67-.92-.31-1.31,1.14-.4,1.44Z"/><path class="b8f45319-eca9-47eb-8e58-11c9ab74e11a" d="M204.68,162.82s11,19.81,11,26.52c0,6.12-28.43,31.19-33.44,35.56a1.9,1.9,0,0,0-.64,1.63,46.89,46.89,0,0,1-2.32,18.73,1.88,1.88,0,0,0-.11.62v15.54s-1.36,5.71-4.8,3.23c0,0-.45-11.67-.5-19.5,0,0,1.56,29.46-3.57,26.87s-2.94-7.52-2-24.38c0,0,.51,23.77-4.37,23s-3.65-9-.81-23.87c0,0-3.55,15.64-3.45,22,0,0-3.46,3.91-5-3.31s3.55-20.77,3.55-20.77-1.86,10-4.44,8.64,1.42-12.72,1.42-12.72,14.32-24,25.78-35.35,13.43-18.63,17-20.4c0,0-6.33-1.31-9.32-11.46S204.68,162.82,204.68,162.82Z"/><path class="b3231c9a-c396-4363-a702-c25df15ebfeb" d="M147.17,182.23s-.83,4,13,1.78,9.06-9.29,9.06-9.29"/><path class="b3231c9a-c396-4363-a702-c25df15ebfeb" d="M141.45,182.55s.83,4-13,1.79-9.06-9.29-9.06-9.29"/><path class="a8f4e597-4be3-4e65-8dc5-6be414845e87" d="M176.46,158.69s7.27,15.08,13.66,14.11S210,158.39,210.3,155.68s-30.59-37.31-30.59-37.31L153.9,161.16s-.12,8.47,2.64,12.3S165,184.38,165,188.09s.13,8.42-4.37,11.8-6.69,14.31-5.7,15.51,2.67-.54,4.83-1.85,15.7-8.2,21.82-9.18,13.55-6.44,13.11-11.47-6.05-19.5-6.05-19.5S182.27,171,176.46,158.69Z"/><path class="a8f4e597-4be3-4e65-8dc5-6be414845e87" d="M113.06,159S105.8,174.1,99.4,173.13,79.55,158.71,79.22,156s30.6-37.32,30.6-37.32l25.81,42.79s.11,8.48-2.64,12.3-8.49,10.93-8.46,14.64-.13,8.41,4.37,11.8,6.69,14.31,5.7,15.51-2.67-.55-4.83-1.86-15.71-8.19-21.82-9.17-13.55-6.45-13.11-11.47,6-19.5,6-19.5S107.25,171.33,113.06,159Z"/><path class="a7251136-3bfd-4170-9f60-f0cc0188de64" d="M185.7,110.61s6.05,17.49-4.79,14.94c0,0,1.4-9.3,1.41-12.09A32.71,32.71,0,0,0,185.7,110.61Z"/><path class="b8f45319-eca9-47eb-8e58-11c9ab74e11a" d="M106.34,78.77s.11,37,4.11,42.34,7,18.68,7,18.68,2.71,12.76,4.55,15,11.32,12.79,21.91,12.48h7.31c10.59.31,20.07-10.26,21.91-12.48s4.55-15,4.55-15,3-13.35,7-18.68,4.1-42.34,4.1-42.34-10.77-35.22-28-33.82a239.51,239.51,0,0,1-34.34,0S113,49.69,106.34,78.77Z"/><path d="M182.68,51.87a33.36,33.36,0,0,0-3.56-5.21C180.27,49.74,181.5,51.32,182.68,51.87Z"/><path d="M208.82,45.79c-5.35-6.92-13.38-15.32-27.32-19.38,0,0-16-17.72-28.89-3.42l-3.14-.27s3-11.73,14.21-11.45,18.1,8,21.6,7.48,5.26-5.73,3-8.86S173.38-8.21,153.07,6.1c-6.65,4.71-6.19,16.52-6.19,16.52H144.2S144.67.37,122.88,0s-22.43,16.24-18.83,17.17,16.62-7.11,24.65-5.82,12.74,7.39,13.11,11.17c0,0-12.1-12.64-27.7,3.51,0,0-25.38,6-31.57,28.62-2.49,9.78,9.6,7.94,15.6-4.67,7-10.38,8.77-8.72,8.77-8.72s-2.12,7.75,3.51,9.88c0,0-7.31,13.06-4.76,32.93,0,0,3.71-6.94,14.2-8.67l2.29-11.09s1.08-2.75,7.56-2.46c0,0-5.44,34.23.43,37.85S137.5,71.1,137.5,71.1l.28-10.8H156.2a156.22,156.22,0,0,1,5.51,29.77c1.17,15.46,10.39,7.62,9.75,3.39s-4.87-29.56-5.72-31.15c0,0,6.2.42,7.12,1.69s2.31,12.72,2.31,12.72l12.39,10.21s3.5-19.88-4.88-35.06c-1.18-.55-2.41-2.13-3.56-5.21a31.36,31.36,0,0,0-4-3.95S173,35.36,161.1,28.44c0,0,12.28-.83,17.26,16,.25.83.5,1.57.76,2.25a33.36,33.36,0,0,1,3.56,5.21c3.8,1.8,7-6.91,5.61-9.12,0,0,14.26,18.28,19.33,17.54S214.18,52.72,208.82,45.79Zm-90.81-3c3.66-18.79,18.41-15.22,18.41-15.22C130.79,28.21,118,42.77,118,42.77Z"/><circle class="ac3fa81c-a1e7-40ef-8c3a-06283e403ea5" cx="131.27" cy="33.85" r="0.33"/><circle class="ac3fa81c-a1e7-40ef-8c3a-06283e403ea5" cx="134.27" cy="31.98" r="0.33"/><circle class="ac3fa81c-a1e7-40ef-8c3a-06283e403ea5" cx="140.2" cy="32.64" r="0.33"/><circle class="ac3fa81c-a1e7-40ef-8c3a-06283e403ea5" cx="144.47" cy="31.98" r="0.33"/><circle class="ac3fa81c-a1e7-40ef-8c3a-06283e403ea5" cx="150.53" cy="34.39" r="0.33"/><circle class="ac3fa81c-a1e7-40ef-8c3a-06283e403ea5" cx="148.71" cy="37.99" r="0.33"/><circle class="ac3fa81c-a1e7-40ef-8c3a-06283e403ea5" cx="151.12" cy="38.61" r="0.33"/><path class="b1dde208-2624-46e0-84ec-8b8794898d88" d="M110.19,60.23a1.13,1.13,0,0,1,.14-1.25,7.41,7.41,0,0,0,.77-1.09c.34-.76.05-1.73.53-2.4.34-.48,1-.66,1.35-1.09a4.26,4.26,0,0,0,.69-1.94,4.74,4.74,0,0,1,1.84-2.65"/><path class="b1dde208-2624-46e0-84ec-8b8794898d88" d="M127.74,38.54a15.33,15.33,0,0,0-5.08,6.84,6.53,6.53,0,0,1-.92,2,4.14,4.14,0,0,0-.88,1.09c-.28.74.2,1.63-.17,2.32-.24.43-.72.63-1.07,1-.74.71-.74,1.87-.84,2.89a2.57,2.57,0,0,1-.24,1,3.38,3.38,0,0,1-.5.63,5.14,5.14,0,0,0-1.12,2.25,9.72,9.72,0,0,1-.61,2.71c-.18.34-.44.62-.62,1a5.61,5.61,0,0,0-.46,2.45,3.27,3.27,0,0,1-.18,1,7,7,0,0,1-.71,1.17,1.44,1.44,0,0,0-.17,1.31"/><path class="b1dde208-2624-46e0-84ec-8b8794898d88" d="M140.51,35.8c-1.28,1.13.13,3.45-.79,4.89-.39.62-1.13.94-1.56,1.53-1.1,1.53.43,3.81-.39,5.51-.56,1.17-2.11,1.72-2.44,3-.23.88.24,1.85,0,2.73a5.87,5.87,0,0,1-.74,1.31c-1,1.76-.61,4-1.43,5.92-.56,1.27-1.69,2.42-1.5,3.79a9.51,9.51,0,0,1,.4,1.7c0,1-.93,1.66-1.37,2.53-.87,1.72.25,3.79.09,5.72a14.91,14.91,0,0,1-1.11,3.51,10.37,10.37,0,0,0,.52,7.94,2.64,2.64,0,0,1,.37,1.06c0,.65-.47,1.18-.7,1.78-.49,1.25.16,2.62.64,3.88s.67,2.91-.4,3.73"/><path class="b1dde208-2624-46e0-84ec-8b8794898d88" d="M163.26,62.49a10.42,10.42,0,0,0,2,4.36,3.17,3.17,0,0,1,.57.85c.55,1.47-1.42,3.18-.58,4.49a7.23,7.23,0,0,0,.88.87c1.54,1.69-.59,5,1.2,6.47.26.21.61.37.72.69.24.71-.89,1.34-.66,2,.13.37.56.52.82.81.49.54.26,1.4-.06,2.05a3,3,0,0,0-.53,2.06,5.3,5.3,0,0,0,.93,1.36,2.61,2.61,0,0,1-.15,3.09"/><path class="b1dde208-2624-46e0-84ec-8b8794898d88" d="M162.58,35.22,164,37.54a5.38,5.38,0,0,0,1.43,1.71c.59.41,1.36.59,1.81,1.16.79,1,.14,2.65.93,3.66a7.06,7.06,0,0,0,.93.79c1.75,1.52,1.23,4.61,2.93,6.18a6.69,6.69,0,0,1,.88.8c.69.94.11,2.28.35,3.42s1.25,2,1.39,3.11-.45,2.27.25,3.05a3.54,3.54,0,0,0,.73.54c1.41,1,1.49,3,1.45,4.75a1.78,1.78,0,0,0,.32,1.32,7.18,7.18,0,0,0,.79.52c.67.54.52,1.57.49,2.43a6,6,0,0,0,.79,3.15"/><path class="b1dde208-2624-46e0-84ec-8b8794898d88" d="M155.84,23.05c.93-.95,2.17-2,3.43-1.55a6.14,6.14,0,0,0,1.22.5c1.26.16,2.24-1.73,3.43-1.28.63.25.86,1.05,1.42,1.42,1.2.8,2.95-.74,4.19,0,.52.31.77,1,1.29,1.29.78.49,1.85.09,2.69.47s1.17,1.51,1.82,2.22a7.27,7.27,0,0,0,2.33,1.38,3,3,0,0,1,1.83,1.88,1.11,1.11,0,0,0,.18.51,1.09,1.09,0,0,0,.39.23,2.65,2.65,0,0,1,1.19,2.16,4.22,4.22,0,0,0,.81,2.4c.34.36.83.57,1.11,1,.62.92-.11,2.22.25,3.28a6.54,6.54,0,0,0,1.1,1.55c.36.52.52,1.33,0,1.74-.24.2-.63.35-.58.65s.18.27.31.37a3,3,0,0,1,.87,3.74"/><path class="b1dde208-2624-46e0-84ec-8b8794898d88" d="M139.67,23.05c-.92-.95-2.17-2-3.42-1.55A6.39,6.39,0,0,1,135,22c-1.26.16-2.25-1.73-3.43-1.28-.63.25-.86,1.05-1.43,1.42-1.19.8-2.95-.74-4.18,0-.53.31-.78,1-1.29,1.29-.78.49-1.86.09-2.69.47s-1.17,1.51-1.82,2.22a7.38,7.38,0,0,1-2.33,1.38A3,3,0,0,0,116,29.38a1,1,0,0,1-.17.51,1.18,1.18,0,0,1-.39.23,2.69,2.69,0,0,0-1.2,2.16,4.14,4.14,0,0,1-.8,2.4c-.34.36-.83.57-1.11,1-.63.92.11,2.22-.25,3.28a6.84,6.84,0,0,1-1.1,1.55c-.36.52-.52,1.33,0,1.74.23.2.63.35.58.65s-.18.27-.31.37a3,3,0,0,0-.87,3.74"/><path class="ac3fa81c-a1e7-40ef-8c3a-06283e403ea5" d="M177.87,49.54a2.88,2.88,0,0,0,.28,1.41c.2.44.85.06.65-.38a2.14,2.14,0,0,1-.18-1c0-.48-.72-.48-.75,0Z"/><path class="ac3fa81c-a1e7-40ef-8c3a-06283e403ea5" d="M179.2,54.11l.87,1.45c.25.41.9,0,.65-.38l-.88-1.45c-.25-.41-.9,0-.64.38Z"/><path class="ac3fa81c-a1e7-40ef-8c3a-06283e403ea5" d="M180.79,58.29A18.67,18.67,0,0,1,182,60.91c.16.45.88.25.72-.2a20,20,0,0,0-1.24-2.8c-.23-.42-.88,0-.65.38Z"/><path class="b1dde208-2624-46e0-84ec-8b8794898d88" d="M106.94,32a5.61,5.61,0,0,0-2.27,1,19.2,19.2,0,0,0-5.39,4.45c-.52.7-1.06,1.56-1.93,1.67a3.71,3.71,0,0,0-1.11.09c-.73.32-.64,1.38-1.08,2-.66,1-2.32.79-3.19,1.65s-.65,2.19-1.44,3a11.61,11.61,0,0,1-1.14.8,4.78,4.78,0,0,0-1.22,1.71L85.3,54"/><path class="b1dde208-2624-46e0-84ec-8b8794898d88" d="M185.76,31.77a5.46,5.46,0,0,1,2.26,1,18.87,18.87,0,0,1,5.39,4.44c.52.7,1.06,1.56,1.93,1.67a3.8,3.8,0,0,1,1.12.09c.72.32.64,1.38,1.07,2.05.67,1,2.32.8,3.19,1.65s.66,2.19,1.44,3c.33.32.78.5,1.14.79a4.78,4.78,0,0,1,1.22,1.71l2.88,5.6"/><path class="b1dde208-2624-46e0-84ec-8b8794898d88" d="M152.47,10.72c-.07-.86.75-1.54,1.56-1.83A9.2,9.2,0,0,0,156.45,8c.82-.58,1.27-1.65,2.2-2s2.17.12,3.1-.37,1.44-2.06,2.56-2c.84,0,1.38.94,2.19,1.13,1.1.25,2-.87,2.92-1.45a1.14,1.14,0,0,1,.46-.18,1.16,1.16,0,0,1,.71.21c.51.33.93.79,1.42,1.15a2,2,0,0,0,1.71.43c.58-.18,1-.76,1.58-.87a2.28,2.28,0,0,1,1.26.3l2.84,1.33c.64.29,1.37.75,1.34,1.45"/><path class="b1dde208-2624-46e0-84ec-8b8794898d88" d="M105.07,11.86a1.9,1.9,0,0,1,1.37-2c.73-.19,1.56.07,2.22-.29,1.19-.65.92-2.77,2.16-3.32.84-.38,1.94.21,2.68-.32a3.5,3.5,0,0,0,.75-1,2.69,2.69,0,0,1,3-1,3.78,3.78,0,0,0,1,.31,2.17,2.17,0,0,0,1.31-.62c.7-.56,1.67-1.14,2.43-.66.56.36.77,1.2,1.42,1.33s1-.32,1.42-.58a2.63,2.63,0,0,1,2.62,0,6.5,6.5,0,0,0,1.44.92c.92.27,2.05-.36,2.8.24a2.15,2.15,0,0,1,.53.81L133,7.32a.61.61,0,0,0,.18.26.56.56,0,0,0,.38.07c.57-.05,1.12-.23,1.68-.25a1.5,1.5,0,0,1,1.44.72"/><circle class="ab676ae5-882d-4983-83e4-a407f27478df" cx="170.7" cy="96.21" r="15.32"/><path class="ebd6843e-f067-4793-933d-58b038931564" d="M127.36,138.5s-1.23-.09-.62.06a25.59,25.59,0,0,1,3.38,2.38l16,4.38L162,141.4a39.87,39.87,0,0,0,3.65-2.24,2.08,2.08,0,0,1,.14-.52s.2-1.09-2-1.16-9.88-3.84-9.88-3.84l-7.73.57-7.35-.57Z"/><path class="ac3407dd-889d-438b-9546-b49f8325efea" d="M137.5,119.93s1.69-.58,5.82,2.37,7.94-1.22,7.94-1.22a4.8,4.8,0,0,1,3.53-1.21"/><path class="ac3407dd-889d-438b-9546-b49f8325efea" d="M151.26,121.08s4.29,4.26,7.87,0-1.21-7.41-3.08-8.64-5.08-7.32-5.21-10.52"/><path class="ac3407dd-889d-438b-9546-b49f8325efea" d="M141.88,121.08s-4.3,4.26-7.87,0,1.21-7.41,3.08-8.64,5.08-7.32,5.2-10.52"/><path class="ebe57ac2-e8d2-42b0-970a-d7095ba29e11" d="M137.5,121.78s-3.55-1.09-3.48-3.89,3.31-4.09,4.4-4.82c1.32-.87,2.64-4.8,2.64-4.8"/><path class="ebe57ac2-e8d2-42b0-970a-d7095ba29e11" d="M155.36,121.78s3.55-1.09,3.48-3.89-3.3-4.09-4.4-4.82c-1.32-.87-2.64-4.8-2.64-4.8"/><path class="ebe57ac2-e8d2-42b0-970a-d7095ba29e11" d="M127,137l7.63-6.22a8.66,8.66,0,0,1,5.49-2h1.5a8.63,8.63,0,0,1,3.57.78l1.23.55,2.1-.78a8.73,8.73,0,0,1,3-.55h.88a8.7,8.7,0,0,1,5.6,2l6.38,5.39"/><path class="e22d4e99-58b7-4ab8-b3ff-239706130355" d="M135,136.42a2.29,2.29,0,0,0,2.1,2.08c1.94.14,2.54-.88,2.45-2.65A7.53,7.53,0,0,0,135,136.42Z"/><path class="e22d4e99-58b7-4ab8-b3ff-239706130355" d="M140,136s-.58,3,1.33,3.32c2.86.48,4.69,1.84,5-2C146.37,137.34,142.36,135.68,140,136Z"/><path class="e22d4e99-58b7-4ab8-b3ff-239706130355" d="M158.84,136.55a2.29,2.29,0,0,1-2.1,2.08c-1.93.13-2.54-.89-2.44-2.66A7.45,7.45,0,0,1,158.84,136.55Z"/><path class="e22d4e99-58b7-4ab8-b3ff-239706130355" d="M153.8,136.14s.58,3-1.33,3.32c-2.86.47-4.7,1.83-5-2C147.45,137.47,151.46,135.81,153.8,136.14Z"/><path class="ec30a36a-e390-4632-a6e1-d0165450a3fa" d="M164.44,137.68l-6.38-5.39a8.7,8.7,0,0,0-5.6-2h-.88a8.51,8.51,0,0,0-3,.55l-2.1.78-1.23-.56a8.62,8.62,0,0,0-3.57-.77h-1.5a8.71,8.71,0,0,0-5.49,1.95L127,138.41s1.85.67,7-1.62,11.33.25,11.33.25a5.09,5.09,0,0,0,3.94,0,15.86,15.86,0,0,1,9.77-.29A15.78,15.78,0,0,0,164.44,137.68Z"/><path class="ae31f3e8-a8f1-43bd-868d-e1781db96eb5" d="M129.77,140.48h4.73a9.51,9.51,0,0,1,3.61.7c2.2.91,6.15,2.35,8.73,2.3a23.24,23.24,0,0,0,7.59-2.16,9.67,9.67,0,0,1,3.93-.84H163s-7.11,10.65-16.29,10.69S129.77,140.48,129.77,140.48Z"/><circle class="ebd6843e-f067-4793-933d-58b038931564" cx="134.32" cy="126.34" r="0.3"/><circle class="ebd6843e-f067-4793-933d-58b038931564" cx="136.7" cy="125.74" r="0.3"/><circle class="ebd6843e-f067-4793-933d-58b038931564" cx="135.97" cy="127.38" r="0.3"/><circle class="ebd6843e-f067-4793-933d-58b038931564" cx="139.07" cy="125.44" r="0.3"/><circle class="ebd6843e-f067-4793-933d-58b038931564" cx="138.47" cy="126.93" r="0.3"/><circle class="ebd6843e-f067-4793-933d-58b038931564" cx="141.51" cy="127.48" r="0.3"/><circle class="ebd6843e-f067-4793-933d-58b038931564" cx="143.91" cy="125.7" r="0.3"/><circle class="ebd6843e-f067-4793-933d-58b038931564" cx="143.91" cy="127.48" r="0.3"/><circle class="ebd6843e-f067-4793-933d-58b038931564" cx="146.34" cy="128.08" r="0.3"/><circle class="ebd6843e-f067-4793-933d-58b038931564" cx="148.06" cy="127.48" r="0.3"/><circle class="ebd6843e-f067-4793-933d-58b038931564" cx="149.34" cy="126.29" r="0.3"/><circle class="ebd6843e-f067-4793-933d-58b038931564" cx="151.09" cy="127.44" r="0.3"/><circle class="ebd6843e-f067-4793-933d-58b038931564" cx="153.53" cy="125.07" r="0.3"/><circle class="ebd6843e-f067-4793-933d-58b038931564" cx="154.08" cy="126.89" r="0.3"/><circle class="ebd6843e-f067-4793-933d-58b038931564" cx="155.64" cy="125.37" r="0.3"/><circle class="ebd6843e-f067-4793-933d-58b038931564" cx="156.48" cy="126.89" r="0.3"/><circle class="ebd6843e-f067-4793-933d-58b038931564" cx="158.31" cy="126.29" r="0.3"/><circle class="ebd6843e-f067-4793-933d-58b038931564" cx="157.72" cy="128.09" r="0.3"/><circle class="ebd6843e-f067-4793-933d-58b038931564" cx="159.52" cy="127.49" r="0.3"/><circle class="ebd6843e-f067-4793-933d-58b038931564" cx="158.31" cy="129.27" r="0.3"/><circle class="ebd6843e-f067-4793-933d-58b038931564" cx="160.73" cy="129.87" r="0.3"/><circle class="ebd6843e-f067-4793-933d-58b038931564" cx="161.31" cy="131.69" r="0.3"/><circle class="ebd6843e-f067-4793-933d-58b038931564" cx="163.72" cy="132.29" r="0.3"/><circle class="ebd6843e-f067-4793-933d-58b038931564" cx="165.54" cy="133.49" r="0.3"/><circle class="ebd6843e-f067-4793-933d-58b038931564" cx="166.13" cy="135.3" r="0.3"/><circle class="ebd6843e-f067-4793-933d-58b038931564" cx="166.73" cy="136.5" r="0.3"/><circle class="ebd6843e-f067-4793-933d-58b038931564" cx="164.32" cy="141.85" r="0.3"/><circle class="ebd6843e-f067-4793-933d-58b038931564" cx="164.32" cy="143.7" r="0.3"/><circle class="ebd6843e-f067-4793-933d-58b038931564" cx="172.12" cy="142.57" r="0.3"/><circle class="ebd6843e-f067-4793-933d-58b038931564" cx="170.87" cy="144.14" r="0.3"/><circle class="ebd6843e-f067-4793-933d-58b038931564" cx="173.49" cy="147.81" r="0.3"/><circle class="ebd6843e-f067-4793-933d-58b038931564" cx="172.79" cy="140.77" r="0.3"/><circle class="ebd6843e-f067-4793-933d-58b038931564" cx="163.12" cy="144.3" r="0.3"/><circle class="ebd6843e-f067-4793-933d-58b038931564" cx="163.72" cy="146.11" r="0.3"/><circle class="ebd6843e-f067-4793-933d-58b038931564" cx="161.26" cy="147.91" r="0.3"/><circle class="ebd6843e-f067-4793-933d-58b038931564" cx="162.52" cy="146.06" r="0.3"/><circle class="ebd6843e-f067-4793-933d-58b038931564" cx="161.34" cy="149.69" r="0.3"/><circle class="ebd6843e-f067-4793-933d-58b038931564" cx="162.52" cy="149.69" r="0.3"/><circle class="ebd6843e-f067-4793-933d-58b038931564" cx="163.21" cy="152.12" r="0.3"/><circle class="ebd6843e-f067-4793-933d-58b038931564" cx="158.92" cy="153.9" r="0.3"/><circle class="ebd6843e-f067-4793-933d-58b038931564" cx="160.12" cy="150.93" r="0.3"/><circle class="ebd6843e-f067-4793-933d-58b038931564" cx="158.34" cy="155.11" r="0.3"/><circle class="ebd6843e-f067-4793-933d-58b038931564" cx="158.92" cy="156.3" r="0.3"/><circle class="ebd6843e-f067-4793-933d-58b038931564" cx="157.14" cy="157.54" r="0.3"/><circle class="ebd6843e-f067-4793-933d-58b038931564" cx="155.93" cy="158.71" r="0.3"/><circle class="ebd6843e-f067-4793-933d-58b038931564" cx="153.54" cy="161.12" r="0.3"/><circle class="ebd6843e-f067-4793-933d-58b038931564" cx="158.34" cy="158.11" r="0.3"/><circle class="ebd6843e-f067-4793-933d-58b038931564" cx="157.44" cy="159.01" r="0.3"/><circle class="ebd6843e-f067-4793-933d-58b038931564" cx="155.93" cy="159.92" r="0.3"/><circle class="ebd6843e-f067-4793-933d-58b038931564" cx="160.09" cy="156.88" r="0.3"/><circle class="ebd6843e-f067-4793-933d-58b038931564" cx="164.12" cy="153.59" r="0.39"/><circle class="ebd6843e-f067-4793-933d-58b038931564" cx="164.71" cy="152.51" r="0.39"/><circle class="ebd6843e-f067-4793-933d-58b038931564" cx="169.78" cy="151.03" r="0.39"/><circle class="ebd6843e-f067-4793-933d-58b038931564" cx="163" cy="161.43" r="0.39"/><circle class="ebd6843e-f067-4793-933d-58b038931564" cx="161.96" cy="160.48" r="0.39"/><circle class="ebd6843e-f067-4793-933d-58b038931564" cx="174.1" cy="142.57" r="0.39"/><circle class="ebd6843e-f067-4793-933d-58b038931564" cx="172.79" cy="146.49" r="0.39"/><circle class="ebd6843e-f067-4793-933d-58b038931564" cx="175.32" cy="143.4" r="0.39"/><circle class="ebd6843e-f067-4793-933d-58b038931564" cx="173.28" cy="144.3" r="0.39"/><circle class="ebd6843e-f067-4793-933d-58b038931564" cx="165.54" cy="151.58" r="0.39"/><circle class="ebd6843e-f067-4793-933d-58b038931564" cx="162.26" cy="154.78" r="0.43"/><circle class="ebd6843e-f067-4793-933d-58b038931564" cx="159.77" cy="158.03" r="0.43"/><circle class="ebd6843e-f067-4793-933d-58b038931564" cx="159.77" cy="159.81" r="0.43"/><circle class="ebd6843e-f067-4793-933d-58b038931564" cx="158.09" cy="160.2" r="0.43"/><circle class="ebd6843e-f067-4793-933d-58b038931564" cx="155.75" cy="161.37" r="0.43"/><circle class="ebd6843e-f067-4793-933d-58b038931564" cx="162.88" cy="156.15" r="0.61"/><circle class="ebd6843e-f067-4793-933d-58b038931564" cx="165.23" cy="154.52" r="0.61"/><circle class="ebd6843e-f067-4793-933d-58b038931564" cx="167.7" cy="152.05" r="0.61"/><circle class="ebd6843e-f067-4793-933d-58b038931564" cx="168.39" cy="150.56" r="0.61"/><circle class="ebd6843e-f067-4793-933d-58b038931564" cx="169" cy="148.08" r="0.61"/><circle class="ebd6843e-f067-4793-933d-58b038931564" cx="167.27" cy="149.81" r="0.61"/><circle class="ebd6843e-f067-4793-933d-58b038931564" cx="170.01" cy="149.52" r="0.61"/><circle class="ebd6843e-f067-4793-933d-58b038931564" cx="171.17" cy="147.29" r="0.61"/><circle class="ebd6843e-f067-4793-933d-58b038931564" cx="176.86" cy="135.3" r="0.61"/><circle class="ebd6843e-f067-4793-933d-58b038931564" cx="174.87" cy="138.33" r="0.61"/><circle class="ebd6843e-f067-4793-933d-58b038931564" cx="176.86" cy="138.09" r="0.61"/><circle class="ebd6843e-f067-4793-933d-58b038931564" cx="175.05" cy="140.41" r="0.61"/><circle class="ebd6843e-f067-4793-933d-58b038931564" cx="176.31" cy="141.27" r="0.61"/><circle class="ebd6843e-f067-4793-933d-58b038931564" cx="170.19" cy="146.11" r="0.61"/><circle class="ebd6843e-f067-4793-933d-58b038931564" cx="161.96" cy="158.71" r="0.61"/><circle class="ebd6843e-f067-4793-933d-58b038931564" cx="160.54" cy="161.37" r="0.61"/><circle class="ebd6843e-f067-4793-933d-58b038931564" cx="160.22" cy="163.4" r="0.61"/><circle class="ebd6843e-f067-4793-933d-58b038931564" cx="160.72" cy="155.11" r="0.3"/><circle class="ebd6843e-f067-4793-933d-58b038931564" cx="121.4" cy="143.47" r="0.3"/><circle class="ebd6843e-f067-4793-933d-58b038931564" cx="122.65" cy="145.04" r="0.3"/><circle class="ebd6843e-f067-4793-933d-58b038931564" cx="120.03" cy="148.71" r="0.3"/><circle class="ebd6843e-f067-4793-933d-58b038931564" cx="120.73" cy="141.67" r="0.3"/><circle class="ebd6843e-f067-4793-933d-58b038931564" cx="120.98" cy="139.96" r="0.3"/><circle class="ebd6843e-f067-4793-933d-58b038931564" cx="118.63" cy="137.96" r="0.35"/><circle class="ebd6843e-f067-4793-933d-58b038931564" cx="120.57" cy="138.09" r="0.3"/><circle class="ebd6843e-f067-4793-933d-58b038931564" cx="130.32" cy="153.02" r="0.3"/><circle class="ebd6843e-f067-4793-933d-58b038931564" cx="134.6" cy="157.2" r="0.3"/><circle class="ebd6843e-f067-4793-933d-58b038931564" cx="136.38" cy="158.43" r="0.3"/><circle class="ebd6843e-f067-4793-933d-58b038931564" cx="137.6" cy="159.61" r="0.3"/><circle class="ebd6843e-f067-4793-933d-58b038931564" cx="139.99" cy="162.02" r="0.3"/><circle class="ebd6843e-f067-4793-933d-58b038931564" cx="146.96" cy="163.59" r="0.3"/><circle class="ebd6843e-f067-4793-933d-58b038931564" cx="143.91" cy="164.04" r="0.3"/><circle class="ebd6843e-f067-4793-933d-58b038931564" cx="145.86" cy="163.59" r="0.3"/><circle class="ebd6843e-f067-4793-933d-58b038931564" cx="143.98" cy="162.99" r="0.3"/><circle class="ebd6843e-f067-4793-933d-58b038931564" cx="141.11" cy="162.99" r="0.3"/><circle class="ebd6843e-f067-4793-933d-58b038931564" cx="149.9" cy="163.54" r="0.3"/><circle class="ebd6843e-f067-4793-933d-58b038931564" cx="151.15" cy="162.26" r="0.3"/><circle class="ebd6843e-f067-4793-933d-58b038931564" cx="142.1" cy="162.32" r="0.3"/><circle class="ebd6843e-f067-4793-933d-58b038931564" cx="135.18" cy="159.01" r="0.3"/><circle class="ebd6843e-f067-4793-933d-58b038931564" cx="136.08" cy="159.91" r="0.3"/><circle class="ebd6843e-f067-4793-933d-58b038931564" cx="137.6" cy="160.81" r="0.3"/><circle class="ebd6843e-f067-4793-933d-58b038931564" cx="133.44" cy="157.78" r="0.3"/><circle class="ebd6843e-f067-4793-933d-58b038931564" cx="129.41" cy="154.48" r="0.39"/><circle class="ebd6843e-f067-4793-933d-58b038931564" cx="128.82" cy="153.41" r="0.39"/><circle class="ebd6843e-f067-4793-933d-58b038931564" cx="127.99" cy="152.47" r="0.39"/><circle class="ebd6843e-f067-4793-933d-58b038931564" cx="131.26" cy="155.68" r="0.43"/><circle class="ebd6843e-f067-4793-933d-58b038931564" cx="133.75" cy="158.92" r="0.43"/><circle class="ebd6843e-f067-4793-933d-58b038931564" cx="133.75" cy="160.7" r="0.43"/><circle class="ebd6843e-f067-4793-933d-58b038931564" cx="135.44" cy="161.1" r="0.43"/><circle class="ebd6843e-f067-4793-933d-58b038931564" cx="137.78" cy="162.26" r="0.43"/><circle class="ebd6843e-f067-4793-933d-58b038931564" cx="130.65" cy="157.05" r="0.61"/><circle class="ebd6843e-f067-4793-933d-58b038931564" cx="129.69" cy="155.94" r="0.61"/><circle class="ebd6843e-f067-4793-933d-58b038931564" cx="124.85" cy="153.89" r="0.61"/><circle class="ebd6843e-f067-4793-933d-58b038931564" cx="128.29" cy="155.42" r="0.61"/><circle class="ebd6843e-f067-4793-933d-58b038931564" cx="126.39" cy="153.29" r="0.61"/><circle class="ebd6843e-f067-4793-933d-58b038931564" cx="125.14" cy="151.45" r="0.61"/><circle class="ebd6843e-f067-4793-933d-58b038931564" cx="124.53" cy="148.98" r="0.61"/><circle class="ebd6843e-f067-4793-933d-58b038931564" cx="124.01" cy="144" r="0.61"/><circle class="ebd6843e-f067-4793-933d-58b038931564" cx="126.26" cy="150.7" r="0.61"/><circle class="ebd6843e-f067-4793-933d-58b038931564" cx="123.52" cy="150.42" r="0.61"/><circle class="ebd6843e-f067-4793-933d-58b038931564" cx="120.57" cy="148.09" r="0.61"/><circle class="ebd6843e-f067-4793-933d-58b038931564" cx="123.52" cy="152.51" r="0.61"/><circle class="ebd6843e-f067-4793-933d-58b038931564" cx="122.65" cy="153.73" r="0.61"/><circle class="ebd6843e-f067-4793-933d-58b038931564" cx="126.59" cy="157.05" r="0.61"/><circle class="ebd6843e-f067-4793-933d-58b038931564" cx="126.59" cy="155.42" r="0.61"/><circle class="ebd6843e-f067-4793-933d-58b038931564" cx="123.66" cy="155.21" r="0.61"/><circle class="ebd6843e-f067-4793-933d-58b038931564" cx="121.74" cy="152.26" r="0.61"/><circle class="ebd6843e-f067-4793-933d-58b038931564" cx="121.4" cy="149.73" r="0.61"/><circle class="ebd6843e-f067-4793-933d-58b038931564" cx="120.79" cy="145.93" r="0.61"/><circle class="ebd6843e-f067-4793-933d-58b038931564" cx="119.09" cy="143.06" r="0.61"/><circle class="ebd6843e-f067-4793-933d-58b038931564" cx="118.63" cy="140.48" r="0.61"/><circle class="ebd6843e-f067-4793-933d-58b038931564" cx="124.95" cy="156.56" r="0.61"/><circle class="ebd6843e-f067-4793-933d-58b038931564" cx="128.62" cy="157.31" r="0.61"/><circle class="ebd6843e-f067-4793-933d-58b038931564" cx="127.06" cy="158.81" r="0.61"/><circle class="ebd6843e-f067-4793-933d-58b038931564" cx="129.25" cy="160.52" r="0.61"/><circle class="ebd6843e-f067-4793-933d-58b038931564" cx="131.93" cy="158.06" r="0.61"/><circle class="ebd6843e-f067-4793-933d-58b038931564" cx="129.51" cy="159.01" r="0.61"/><circle class="ebd6843e-f067-4793-933d-58b038931564" cx="131.04" cy="161.43" r="0.61"/><circle class="ebd6843e-f067-4793-933d-58b038931564" cx="122.35" cy="148.18" r="0.61"/><circle class="ebd6843e-f067-4793-933d-58b038931564" cx="119.43" cy="146.96" r="0.61"/><circle class="ebd6843e-f067-4793-933d-58b038931564" cx="123.33" cy="147" r="0.61"/><circle class="ebd6843e-f067-4793-933d-58b038931564" cx="131.57" cy="159.61" r="0.61"/><circle class="ebd6843e-f067-4793-933d-58b038931564" cx="132.99" cy="162.26" r="0.61"/><circle class="ebd6843e-f067-4793-933d-58b038931564" cx="134.98" cy="162.99" r="0.61"/><circle class="ebd6843e-f067-4793-933d-58b038931564" cx="136.76" cy="163.48" r="0.61"/><circle class="ebd6843e-f067-4793-933d-58b038931564" cx="137.17" cy="164.93" r="0.61"/><circle class="ebd6843e-f067-4793-933d-58b038931564" cx="139.62" cy="165.71" r="0.61"/><circle class="ebd6843e-f067-4793-933d-58b038931564" cx="139.07" cy="163.81" r="0.61"/><circle class="ebd6843e-f067-4793-933d-58b038931564" cx="141.48" cy="164.79" r="0.61"/><circle class="ebd6843e-f067-4793-933d-58b038931564" cx="142.16" cy="166.19" r="0.61"/><circle class="ebd6843e-f067-4793-933d-58b038931564" cx="144.99" cy="164.79" r="0.61"/><circle class="ebd6843e-f067-4793-933d-58b038931564" cx="143.65" cy="165.71" r="0.61"/><circle class="ebd6843e-f067-4793-933d-58b038931564" cx="146.11" cy="166.19" r="0.61"/><circle class="ebd6843e-f067-4793-933d-58b038931564" cx="154.94" cy="166.06" r="0.61"/><circle class="ebd6843e-f067-4793-933d-58b038931564" cx="156.17" cy="163.15" r="0.61"/><circle class="ebd6843e-f067-4793-933d-58b038931564" cx="155.75" cy="164.72" r="0.61"/><circle class="ebd6843e-f067-4793-933d-58b038931564" cx="157.93" cy="163.47" r="0.61"/><circle class="ebd6843e-f067-4793-933d-58b038931564" cx="164.31" cy="159.87" r="0.61"/><circle class="ebd6843e-f067-4793-933d-58b038931564" cx="165.54" cy="156.96" r="0.61"/><circle class="ebd6843e-f067-4793-933d-58b038931564" cx="165.12" cy="158.53" r="0.61"/><circle class="ebd6843e-f067-4793-933d-58b038931564" cx="167.3" cy="157.28" r="0.61"/><circle class="ebd6843e-f067-4793-933d-58b038931564" cx="169.23" cy="157.28" r="0.61"/><circle class="ebd6843e-f067-4793-933d-58b038931564" cx="169.95" cy="152.56" r="0.61"/><circle class="ebd6843e-f067-4793-933d-58b038931564" cx="170.84" cy="155.19" r="0.61"/><circle class="ebd6843e-f067-4793-933d-58b038931564" cx="172.22" cy="153.74" r="0.61"/><circle class="ebd6843e-f067-4793-933d-58b038931564" cx="171.34" cy="152.56" r="0.61"/><circle class="ebd6843e-f067-4793-933d-58b038931564" cx="172.58" cy="149.66" r="0.61"/><circle class="ebd6843e-f067-4793-933d-58b038931564" cx="174.85" cy="146.41" r="0.61"/><circle class="ebd6843e-f067-4793-933d-58b038931564" cx="172.16" cy="151.23" r="0.61"/><circle class="ebd6843e-f067-4793-933d-58b038931564" cx="174.33" cy="149.98" r="0.61"/><circle class="ebd6843e-f067-4793-933d-58b038931564" cx="166.73" cy="159.29" r="0.61"/><circle class="ebd6843e-f067-4793-933d-58b038931564" cx="167.16" cy="155.3" r="0.61"/><circle class="ebd6843e-f067-4793-933d-58b038931564" cx="168.79" cy="155.19" r="0.61"/><circle class="ebd6843e-f067-4793-933d-58b038931564" cx="166.9" cy="153.53" r="0.61"/><circle class="ebd6843e-f067-4793-933d-58b038931564" cx="136.46" cy="161.61" r="0.61"/><circle class="ebd6843e-f067-4793-933d-58b038931564" cx="132.8" cy="156.01" r="0.3"/><circle class="ebd6843e-f067-4793-933d-58b038931564" cx="161.96" cy="153.34" r="0.3"/><circle class="ebd6843e-f067-4793-933d-58b038931564" cx="162.52" cy="147.29" r="0.3"/><circle class="ebd6843e-f067-4793-933d-58b038931564" cx="133.11" cy="128.1" r="0.26"/><circle class="ebd6843e-f067-4793-933d-58b038931564" cx="133.7" cy="129.27" r="0.26"/><circle class="ebd6843e-f067-4793-933d-58b038931564" cx="131.92" cy="129.91" r="0.26"/><circle class="ebd6843e-f067-4793-933d-58b038931564" cx="128.88" cy="132.87" r="0.26"/><circle class="ebd6843e-f067-4793-933d-58b038931564" cx="127.1" cy="134.11" r="0.26"/><circle class="ebd6843e-f067-4793-933d-58b038931564" cx="130.1" cy="133.49" r="0.26"/><circle class="ebd6843e-f067-4793-933d-58b038931564" cx="128.26" cy="134.7" r="0.26"/><circle class="ebd6843e-f067-4793-933d-58b038931564" cx="127.1" cy="140.67" r="0.26"/><circle class="ebd6843e-f067-4793-933d-58b038931564" cx="128.29" cy="141.9" r="0.26"/><circle class="ebd6843e-f067-4793-933d-58b038931564" cx="128.29" cy="143.69" r="0.26"/><circle class="ebd6843e-f067-4793-933d-58b038931564" cx="129.51" cy="144.3" r="0.26"/><circle class="ebd6843e-f067-4793-933d-58b038931564" cx="128.9" cy="146.08" r="0.26"/><circle class="ebd6843e-f067-4793-933d-58b038931564" cx="130.09" cy="146.08" r="0.26"/><circle class="ebd6843e-f067-4793-933d-58b038931564" cx="131.3" cy="147.9" r="0.26"/><circle class="ebd6843e-f067-4793-933d-58b038931564" cx="130.09" cy="147.9" r="0.26"/><circle class="ebd6843e-f067-4793-933d-58b038931564" cx="130.09" cy="149.73" r="0.26"/><circle class="ebd6843e-f067-4793-933d-58b038931564" cx="131.93" cy="149.73" r="0.26"/><circle class="ebd6843e-f067-4793-933d-58b038931564" cx="132.52" cy="151.51" r="0.26"/><circle class="ebd6843e-f067-4793-933d-58b038931564" cx="133.69" cy="153.89" r="0.26"/><circle class="ebd6843e-f067-4793-933d-58b038931564" cx="134.9" cy="156.3" r="0.26"/><circle class="ebd6843e-f067-4793-933d-58b038931564" cx="136.09" cy="157.51" r="0.26"/><circle class="ebd6843e-f067-4793-933d-58b038931564" cx="137.31" cy="158.67" r="0.26"/><circle class="ebd6843e-f067-4793-933d-58b038931564" cx="125.86" cy="136.53" r="0.26"/><path class="bb1ff2ef-0c0a-4bd8-8746-7baba58b3b14" d="M138.77,155.61s8.87-5.16,15.52.33"/><path class="ebe57ac2-e8d2-42b0-970a-d7095ba29e11" d="M138.84,156.35s8.12-3.53,15.52.33"/><path class="a16c691d-7fd4-4518-b19b-048de6299424" d="M184.15,119.21s2.88-1.31,3.15.53c.53,3.62.38,6.76-6.3,5.35a3.61,3.61,0,0,0,4,2.47,5.63,5.63,0,0,0,4.81-5.24c0-1.89-.79-5-3.93-5.31s-2.17,1.48-2.17,1.48Z"/><path class="b8f45319-eca9-47eb-8e58-11c9ab74e11a" d="M103.81,105.22a7,7,0,0,0-6.62,4C95,113.68,89.86,114,89.86,114s-5.65,0-6,8-1.4,10.84.61,13.94,3.32,2.69,2.47,5.51S73.09,175,73.09,181s4.13,10.65,8.62,10.93,10.37-5.61,10.93-10,7.79-40.41,8.84-42,7.78-8,8-11.6-.42-8.26.35-9.67-.26-6.24-.26-6.24S107.06,106.54,103.81,105.22Z"/><path class="b3231c9a-c396-4363-a702-c25df15ebfeb" d="M97.75,136v-7.65s2.8.31,2.94-2.94-1.06-10.75-1.87-11.12a55,55,0,0,0-5.75-1.15"/><path class="b3231c9a-c396-4363-a702-c25df15ebfeb" d="M88.69,119.45s3.94.73,5.91-1.33c0,0-1.33,10.36,3.15,10.2"/><path class="b3231c9a-c396-4363-a702-c25df15ebfeb" d="M100.55,126.34s1,2,2.85,2,3.21-2.52,2.24-8.44-2.58-10.69-6.24-10.3"/><path class="b3231c9a-c396-4363-a702-c25df15ebfeb" d="M105.64,119.92s4.12,1.82,4.47-3.39"/><path class="bb3e04a4-c201-4a79-9469-beb85ad6ab3b" d="M75.94,178.52l12.74-35.75c.32-.91-1.13-1.3-1.45-.4L74.5,178.12c-.33.91,1.12,1.3,1.44.4Z"/><circle class="ab676ae5-882d-4983-83e4-a407f27478df" cx="122.56" cy="96.31" r="15.32"/><path class="a8e83a00-2cbf-4939-9942-2103102d4a85" d="M170.7,75.41a20.81,20.81,0,0,0-19.84,14.53H142.4a20.82,20.82,0,1,0,1,6.27c0-.21,0-.41,0-.62h6.6c0,.21,0,.41,0,.62a20.8,20.8,0,1,0,20.8-20.8Zm-48.14,36a15.23,15.23,0,1,1,15.22-15.22A15.22,15.22,0,0,1,122.56,111.43Zm48.14,0a15.23,15.23,0,1,1,15.22-15.22A15.22,15.22,0,0,1,170.7,111.43Z"/><circle class="e35a78df-a274-4d14-af5b-07c764e4a47c" cx="126.09" cy="106.56" r="2.3"/><circle class="e35a78df-a274-4d14-af5b-07c764e4a47c" cx="172.86" cy="106.56" r="2.3"/><path class="e35a78df-a274-4d14-af5b-07c764e4a47c" d="M134.76,97.19s-4.4,3.29-3.92,6.17S137.17,96.43,134.76,97.19Z"/><path class="e35a78df-a274-4d14-af5b-07c764e4a47c" d="M179.11,86.93s-.58-.06.4,1.77,3.46,8.81-1.9,13.31c0,0-1.37,3.18,1.67,1.88S186.23,90.91,179.11,86.93Z"/><polygon class="e92138c1-352c-4cac-bee6-7d120191044e" points="114.59 192.1 116.91 189.12 119.72 194.81 114.59 192.1"/><polygon class="e92138c1-352c-4cac-bee6-7d120191044e" points="119.79 192.1 122.11 189.12 124.92 194.81 119.79 192.1"/><polygon class="e92138c1-352c-4cac-bee6-7d120191044e" points="106.88 188.18 109.76 184.48 113.25 191.54 106.88 188.18"/><polygon class="e92138c1-352c-4cac-bee6-7d120191044e" points="104.24 194.34 107.12 190.63 110.61 197.7 104.24 194.34"/><polygon class="e92138c1-352c-4cac-bee6-7d120191044e" points="96.59 191.23 98.95 187.18 103.34 193.71 96.59 191.23"/><polygon class="e92138c1-352c-4cac-bee6-7d120191044e" points="98.63 199.6 101 195.55 105.39 202.09 98.63 199.6"/><polygon class="e92138c1-352c-4cac-bee6-7d120191044e" points="106.49 203.36 108.86 199.31 113.25 205.85 106.49 203.36"/><polygon class="e92138c1-352c-4cac-bee6-7d120191044e" points="114.11 206.95 116.48 202.9 120.87 209.43 114.11 206.95"/><polygon class="e92138c1-352c-4cac-bee6-7d120191044e" points="121.21 209.79 123.57 205.73 127.96 212.27 121.21 209.79"/><polygon class="e92138c1-352c-4cac-bee6-7d120191044e" points="133.03 211.4 133.09 207.7 128.28 212.2 133.03 211.4"/><polygon class="e92138c1-352c-4cac-bee6-7d120191044e" points="99.72 184.39 102.6 180.69 106.09 187.75 99.72 184.39"/><polygon class="e92138c1-352c-4cac-bee6-7d120191044e" points="112.21 176.99 115.09 173.28 118.58 180.34 112.21 176.99"/><polygon class="e92138c1-352c-4cac-bee6-7d120191044e" points="106.22 180.86 109.1 177.16 112.59 184.22 106.22 180.86"/><polygon class="e92138c1-352c-4cac-bee6-7d120191044e" points="111.86 198.13 114.74 194.43 118.23 201.49 111.86 198.13"/><polygon class="e92138c1-352c-4cac-bee6-7d120191044e" points="120.56 202.26 123.44 198.56 126.93 205.62 120.56 202.26"/><polygon class="e92138c1-352c-4cac-bee6-7d120191044e" points="114.59 185.05 116.91 182.07 119.72 187.75 114.59 185.05"/><polygon class="e92138c1-352c-4cac-bee6-7d120191044e" points="115.05 171.48 117.37 168.5 120.17 174.18 115.05 171.48"/><polygon class="e92138c1-352c-4cac-bee6-7d120191044e" points="119.92 170.11 122.8 166.41 126.28 173.47 119.92 170.11"/><polygon class="e92138c1-352c-4cac-bee6-7d120191044e" points="122.75 164.6 125.07 161.62 127.88 167.31 122.75 164.6"/><polygon class="e92138c1-352c-4cac-bee6-7d120191044e" points="118.97 182.4 121.85 178.7 125.34 185.76 118.97 182.4"/><polygon class="e92138c1-352c-4cac-bee6-7d120191044e" points="121.81 176.89 124.13 173.91 126.94 179.59 121.81 176.89"/><polygon class="e92138c1-352c-4cac-bee6-7d120191044e" points="126.59 171.06 128.91 168.08 131.72 173.77 126.59 171.06"/><polygon class="e92138c1-352c-4cac-bee6-7d120191044e" points="114.59 163.68 116.91 160.7 119.72 166.38 114.59 163.68"/><polygon class="e92138c1-352c-4cac-bee6-7d120191044e" points="108.05 167.34 110.37 164.36 113.17 170.04 108.05 167.34"/><polygon class="e92138c1-352c-4cac-bee6-7d120191044e" points="102.3 152.61 107.65 151.94 107.36 156.3 102.3 152.61"/><polygon class="e92138c1-352c-4cac-bee6-7d120191044e" points="100.34 143.96 102.6 144.16 101.22 151.45 100.34 143.96"/><polygon class="e92138c1-352c-4cac-bee6-7d120191044e" points="107.08 147.5 112.43 146.82 112.14 151.19 107.08 147.5"/><polygon class="e92138c1-352c-4cac-bee6-7d120191044e" points="113.58 152.07 118.34 150.7 117.61 152.87 113.58 152.07"/><polygon class="e92138c1-352c-4cac-bee6-7d120191044e" points="108.99 156.78 115.69 154.86 119.42 158.42 108.99 156.78"/><polygon class="e92138c1-352c-4cac-bee6-7d120191044e" points="103.24 139.24 108.09 139.24 106.01 146.34 103.24 139.24"/><polygon class="e92138c1-352c-4cac-bee6-7d120191044e" points="108.15 135.58 113 135.58 112.23 141.13 108.15 135.58"/><polygon class="e92138c1-352c-4cac-bee6-7d120191044e" points="97.78 157.05 102.07 156.23 101.78 160.6 97.78 157.05"/><polygon class="e92138c1-352c-4cac-bee6-7d120191044e" points="94.65 170.95 99.77 169.15 100.34 173.16 94.65 170.95"/><polygon class="e92138c1-352c-4cac-bee6-7d120191044e" points="97.41 166.6 104.8 164.15 106.38 167.54 97.41 166.6"/><polygon class="e92138c1-352c-4cac-bee6-7d120191044e" points="102.74 161.11 110.13 158.66 111.71 162.06 102.74 161.11"/><polygon class="e92138c1-352c-4cac-bee6-7d120191044e" points="104.04 172.75 106.79 169.23 110.11 175.95 104.04 172.75"/><polygon class="e92138c1-352c-4cac-bee6-7d120191044e" points="175.85 191.2 173.54 188.22 170.73 193.9 175.85 191.2"/><polygon class="e92138c1-352c-4cac-bee6-7d120191044e" points="170.66 191.2 168.34 188.22 165.53 193.9 170.66 191.2"/><polygon class="e92138c1-352c-4cac-bee6-7d120191044e" points="183.57 187.28 180.69 183.58 177.2 190.64 183.57 187.28"/><polygon class="e92138c1-352c-4cac-bee6-7d120191044e" points="186.21 193.44 183.33 189.74 179.84 196.8 186.21 193.44"/><polygon class="e92138c1-352c-4cac-bee6-7d120191044e" points="193.86 190.33 191.5 186.28 187.11 192.81 193.86 190.33"/><polygon class="e92138c1-352c-4cac-bee6-7d120191044e" points="191.82 198.7 189.46 194.65 185.06 201.19 191.82 198.7"/><polygon class="e92138c1-352c-4cac-bee6-7d120191044e" points="183.96 202.46 181.59 198.41 177.2 204.95 183.96 202.46"/><polygon class="e92138c1-352c-4cac-bee6-7d120191044e" points="176.34 206.05 173.97 202 169.58 208.53 176.34 206.05"/><polygon class="e92138c1-352c-4cac-bee6-7d120191044e" points="169.24 208.88 166.88 204.83 162.49 211.37 169.24 208.88"/><polygon class="e92138c1-352c-4cac-bee6-7d120191044e" points="157.42 210.5 157.36 206.79 162.17 211.3 157.42 210.5"/><polygon class="e92138c1-352c-4cac-bee6-7d120191044e" points="190.73 183.49 187.85 179.79 184.36 186.85 190.73 183.49"/><polygon class="e92138c1-352c-4cac-bee6-7d120191044e" points="178.24 176.09 175.36 172.38 171.87 179.44 178.24 176.09"/><polygon class="e92138c1-352c-4cac-bee6-7d120191044e" points="184.23 179.96 181.35 176.26 177.86 183.32 184.23 179.96"/><polygon class="e92138c1-352c-4cac-bee6-7d120191044e" points="178.59 197.23 175.71 193.52 172.22 200.59 178.59 197.23"/><polygon class="e92138c1-352c-4cac-bee6-7d120191044e" points="169.89 201.36 167.01 197.66 163.52 204.72 169.89 201.36"/><polygon class="e92138c1-352c-4cac-bee6-7d120191044e" points="175.85 184.15 173.54 181.17 170.73 186.85 175.85 184.15"/><polygon class="e92138c1-352c-4cac-bee6-7d120191044e" points="175.4 170.58 173.08 167.59 170.28 173.28 175.4 170.58"/><polygon class="e92138c1-352c-4cac-bee6-7d120191044e" points="170.54 169.21 167.66 165.51 164.17 172.57 170.54 169.21"/><polygon class="e92138c1-352c-4cac-bee6-7d120191044e" points="167.7 163.7 165.38 160.72 162.57 166.4 167.7 163.7"/><polygon class="e92138c1-352c-4cac-bee6-7d120191044e" points="171.48 181.5 168.6 177.79 165.11 184.86 171.48 181.5"/><polygon class="e92138c1-352c-4cac-bee6-7d120191044e" points="168.64 175.99 166.32 173.01 163.51 178.69 168.64 175.99"/><polygon class="e92138c1-352c-4cac-bee6-7d120191044e" points="163.86 170.16 161.54 167.18 158.73 172.87 163.86 170.16"/><polygon class="e92138c1-352c-4cac-bee6-7d120191044e" points="175.85 162.78 173.54 159.8 170.73 165.49 175.85 162.78"/><polygon class="e92138c1-352c-4cac-bee6-7d120191044e" points="182.4 166.44 180.08 163.46 177.28 169.15 182.4 166.44"/><polygon class="e92138c1-352c-4cac-bee6-7d120191044e" points="188.15 151.71 182.8 151.03 183.09 155.4 188.15 151.71"/><polygon class="e92138c1-352c-4cac-bee6-7d120191044e" points="190.11 143.06 187.85 143.25 189.23 150.55 190.11 143.06"/><polygon class="e92138c1-352c-4cac-bee6-7d120191044e" points="183.38 146.6 178.02 145.92 178.31 150.29 183.38 146.6"/><polygon class="e92138c1-352c-4cac-bee6-7d120191044e" points="210.19 155.96 205.43 154.6 206.16 156.76 210.19 155.96"/><polygon class="e92138c1-352c-4cac-bee6-7d120191044e" points="181.46 155.88 174.76 153.96 171.03 157.51 181.46 155.88"/><polygon class="e92138c1-352c-4cac-bee6-7d120191044e" points="187.21 138.34 182.36 138.34 184.44 145.44 187.21 138.34"/><polygon class="e92138c1-352c-4cac-bee6-7d120191044e" points="200.79 152.76 198.53 152.96 199.91 160.26 200.79 152.76"/><polygon class="e92138c1-352c-4cac-bee6-7d120191044e" points="204.3 156.46 202.03 156.65 203.41 163.95 204.3 156.46"/><polygon class="e92138c1-352c-4cac-bee6-7d120191044e" points="197.89 148.04 193.04 148.04 195.12 155.14 197.89 148.04"/><polygon class="e92138c1-352c-4cac-bee6-7d120191044e" points="190.98 132.76 188.72 132.96 190.1 140.26 190.98 132.76"/><polygon class="e92138c1-352c-4cac-bee6-7d120191044e" points="188.08 128.04 183.23 128.04 185.31 135.14 188.08 128.04"/><polygon class="e92138c1-352c-4cac-bee6-7d120191044e" points="200.42 143.06 198.16 143.25 199.53 150.55 200.42 143.06"/><polygon class="e92138c1-352c-4cac-bee6-7d120191044e" points="205.43 148.48 203.17 148.68 204.54 155.97 205.43 148.48"/><polygon class="e92138c1-352c-4cac-bee6-7d120191044e" points="197.51 138.33 192.66 138.33 194.75 145.44 197.51 138.33"/><polygon class="e92138c1-352c-4cac-bee6-7d120191044e" points="192.66 156.15 188.38 155.33 188.67 159.7 192.66 156.15"/><polygon class="e92138c1-352c-4cac-bee6-7d120191044e" points="203.17 165.31 197.81 164.63 198.11 169 203.17 165.31"/><polygon class="e92138c1-352c-4cac-bee6-7d120191044e" points="198.39 160.19 193.04 159.51 193.33 163.88 198.39 160.19"/><polygon class="e92138c1-352c-4cac-bee6-7d120191044e" points="195.8 170.05 190.68 168.25 190.11 172.25 195.8 170.05"/><polygon class="e92138c1-352c-4cac-bee6-7d120191044e" points="193.04 165.7 185.65 163.25 184.07 166.65 193.04 165.7"/><polygon class="e92138c1-352c-4cac-bee6-7d120191044e" points="187.71 160.21 180.32 157.76 178.74 161.15 187.71 160.21"/><polygon class="e92138c1-352c-4cac-bee6-7d120191044e" points="186.41 171.85 183.66 168.33 180.34 175.05 186.41 171.85"/><line class="b3231c9a-c396-4363-a702-c25df15ebfeb" x1="145.26" y1="189.14" x2="145.26" y2="206.18"/><path class="b3231c9a-c396-4363-a702-c25df15ebfeb" d="M156.43,191.57s.47,2.63-4.71,2.75-14.77,0-14.77,0-3.75-.31-5.18-3.12"/><path class="b3231c9a-c396-4363-a702-c25df15ebfeb" d="M156.71,197s.47,2.63-4.71,2.75-14.77,0-14.77,0-3.75-.31-5.18-3.12"/><path class="ac3fa81c-a1e7-40ef-8c3a-06283e403ea5" d="M77.64,195.86c-9.06.92-19.7,5.08-23.92,13.67-.42.87.87,1.63,1.29.76,4-8.1,14.07-12.06,22.63-12.94,1-.09,1-1.59,0-1.49Z"/><path class="a30bf8af-fc50-4a27-939d-7d0bfd8b4bf4" d="M83,287.61c3.53,7.4,14.64,7,21.25,6.25,3.76-.44,7.39-1.38,9.88-4.42,3.14-3.85,4.67-9,6.63-13.51,2.5-5.72,6.23-10,10.52-14.52.66-.69-.4-1.76-1.06-1.06-4.22,4.41-8,8.7-10.54,14.32-2.13,4.82-3.76,11.57-8,15.1-2,1.69-4.66,2.23-7.19,2.56a36.5,36.5,0,0,1-11.09.12c-3.34-.6-7.58-2.29-9.15-5.6-.42-.87-1.71-.11-1.3.76Z"/><path class="a04d5cc3-3338-4b68-b48d-2594c174cfa5" d="M111.84,286.25s-15,7.78-24.63-1.63c0,0,.39-11,13.26-11,0,0,6.4-.12,9.54,3.57"/><path class="a04d5cc3-3338-4b68-b48d-2594c174cfa5" d="M101,266.85s6.92,1.57,10.84,6"/><path class="a04d5cc3-3338-4b68-b48d-2594c174cfa5" d="M112.3,266.2A19.16,19.16,0,0,0,101,272"/><path class="a04d5cc3-3338-4b68-b48d-2594c174cfa5" d="M101,260.88s3.13-.49,11.3,3.75"/><path class="a04d5cc3-3338-4b68-b48d-2594c174cfa5" d="M110.66,259.15s-6.73,2.67-9.27,6.59"/><path class="a04d5cc3-3338-4b68-b48d-2594c174cfa5" d="M108.84,253.14s4-4.71,4.37-6.41c0,0,5,.72,14.24,13.33"/><path class="b266f98c-2559-4d07-9542-e03244747642" d="M115.05,119.92s6.28,1.12,7.3,6.37a86.69,86.69,0,0,1,1.31,8.72"/><path class="b266f98c-2559-4d07-9542-e03244747642" d="M178.64,119.84s-6.29,1.11-7.31,6.37-1.3,8.71-1.3,8.71"/></svg>